SplineFontDB: 3.0
FontName: HM_FTXbadr_ShadowOblique
FullName: HM_FTXbadr_ShadowOblique
FamilyName: HM_FTXbadr_ShadowOblique
Weight: Shadow
Copyright: Copyright (c) Hossein, 2013. All rights reserved.
Version: 0.1
ItalicAngle: 0
UnderlinePosition: -540
UnderlineWidth: 60
Ascent: 1638
Descent: 410
sfntRevision: 0x00010000
LayerCount: 2
Layer: 0 1 "Back"  1
Layer: 1 1 "Fore"  0
XUID: [1021 102 1371595031 6992056]
FSType: 0
OS2Version: 2
OS2_WeightWidthSlopeOnly: 0
OS2_UseTypoMetrics: 1
CreationTime: 1194658560
ModificationTime: 1360912299
PfmFamily: 17
TTFWeight: 400
TTFWidth: 5
LineGap: 0
VLineGap: 0
Panose: 2 0 5 3 8 0 0 2 0 3
OS2TypoAscent: 2100
OS2TypoAOffset: 0
OS2TypoDescent: -1000
OS2TypoDOffset: 0
OS2TypoLinegap: 0
OS2WinAscent: 2100
OS2WinAOffset: 0
OS2WinDescent: 1000
OS2WinDOffset: 0
HheadAscent: 2100
HheadAOffset: 0
HheadDescent: -1000
HheadDOffset: 0
OS2SubXSize: 1434
OS2SubYSize: 1331
OS2SubXOff: 0
OS2SubYOff: 293
OS2SupXSize: 1434
OS2SupYSize: 1331
OS2SupXOff: 0
OS2SupYOff: 928
OS2StrikeYSize: 102
OS2StrikeYPos: 512
OS2Vendor: 'pars'
OS2CodePages: 20000051.41000000
OS2UnicodeRanges: 00002003.80000000.00000008.00000000
Lookup: 4 0 1 "gsub_ligature_dfl_liga_arab_FAR_Lookup_01"  {"gsub_ligature_dfl_liga_arab_FAR_Lookup_01_Subtable_01"  } ['liga' ('arab' <'FAR ' > ) ]
Lookup: 4 0 1 "gsub_ligature_dfl_liga_arab_FAR_Lookup_02"  {"gsub_ligature_dfl_liga_arab_FAR_Lookup_02_Subtable_01"  } ['liga' ('arab' <'FAR ' > ) ]
Lookup: 3 0 0 "gsub_alternate_dfl_aalt_arab_FAR_Lookup_01"  {"gsub_alternate_dfl_aalt_arab_FAR_Lookup_01_Subtable_01"  } ['aalt' ('arab' <'FAR ' > ) ]
Lookup: 1 1 0 "gsub_single_rtl_fina_arab_FAR_Lookup_01"  {"gsub_single_rtl_fina_arab_FAR_Lookup_01_Subtable_01"  } ['fina' ('arab' <'FAR ' > ) ]
Lookup: 1 1 0 "gsub_single_rtl_init_arab_FAR_Lookup_01"  {"gsub_single_rtl_init_arab_FAR_Lookup_01_Subtable_01"  } ['init' ('arab' <'FAR ' > ) ]

StartChar: .notdef
Encoding: 65536 -1 0
Width: 1039
GlyphClass: 2
Flags: W
LayerCount: 2
Fore
SplineSet
509 299 m 0,0,1
 516 269 516 269 501 246.5 c 128,-1,2
 486 224 486 224 456 224 c 0,3,4
 428 224 428 224 403 246.5 c 128,-1,5
 378 269 378 269 371 299 c 0,6,7
 364 331 364 331 378.5 352.5 c 128,-1,8
 393 374 393 374 424 374 c 0,9,10
 452 374 452 374 477 352.5 c 128,-1,11
 502 331 502 331 509 299 c 0,0,1
499 780 m 0,12,13
 509 737 509 737 493 710 c 128,-1,14
 477 683 477 683 443 683 c 0,15,16
 413 683 413 683 391 701.5 c 128,-1,17
 369 720 369 720 363 749 c 0,18,19
 358 770 358 770 363.5 785 c 128,-1,20
 369 800 369 800 378.5 810.5 c 128,-1,21
 388 821 388 821 395.5 829 c 128,-1,22
 403 837 403 837 401 843 c 0,23,24
 396 863 396 863 375.5 875 c 128,-1,25
 355 887 355 887 327 887 c 0,26,27
 292 887 292 887 274.5 866 c 128,-1,28
 257 845 257 845 264 813 c 0,29,30
 268 795 268 795 284 769 c 128,-1,31
 300 743 300 743 317.5 718 c 128,-1,32
 335 693 335 693 350 673 c 128,-1,33
 365 653 365 653 368 648 c 0,34,35
 385 619 385 619 399.5 583.5 c 128,-1,36
 414 548 414 548 422 513 c 0,37,38
 427 492 427 492 430.5 470.5 c 128,-1,39
 434 449 434 449 438 424 c 1,40,-1
 401 424 l 1,41,-1
 397 442 l 1,42,-1
 394 472 l 1,43,44
 386 505 386 505 336 544 c 0,45,46
 253 609 253 609 242 620 c 0,47,48
 188 673 188 673 172 740 c 0,49,50
 163 781 163 781 169 815.5 c 128,-1,51
 175 850 175 850 192.5 875.5 c 128,-1,52
 210 901 210 901 239 915 c 128,-1,53
 268 929 268 929 304 929 c 0,54,55
 337 929 337 929 368.5 918.5 c 128,-1,56
 400 908 400 908 426.5 888.5 c 128,-1,57
 453 869 453 869 472 841.5 c 128,-1,58
 491 814 491 814 499 780 c 0,12,13
114 31 m 1,59,-1
 913 31 l 1,60,-1
 662 1122 l 1,61,-1
 -138 1122 l 1,62,-1
 114 31 l 1,59,-1
91 0 m 1,63,-1
 -175 1154 l 1,64,-1
 682 1154 l 1,65,-1
 948 0 l 1,66,-1
 91 0 l 1,63,-1
EndSplineSet
EndChar

StartChar: exclam
Encoding: 33 33 4
Width: 622
VWidth: 1639
GlyphClass: 2
Flags: W
LayerCount: 2
Fore
SplineSet
124 328 m 1,0,1
 -67 780 -67 780 -134 1016 c 0,2,3
 -165 1126 -165 1126 -185 1227 c 0,4,5
 -188 1240 -188 1240 -163 1269 c 0,6,7
 -160 1273 -160 1273 -159 1274 c 0,8,9
 -117 1334 -117 1334 -88 1391 c 1,10,11
 -74 1423 -74 1423 -66 1422 c 1,12,13
 -59 1418 -59 1418 -55 1412 c 1,14,15
 -52 1428 -52 1428 -42 1422 c 1,16,17
 -38 1418 -38 1418 -35 1412 c 1,18,-1
 -34 1412 l 1,19,20
 -31 1426 -31 1426 -21 1423 c 1,21,22
 -18 1420 -18 1420 -16 1417 c 0,23,24
 -14 1413 -14 1413 -9 1383 c 0,25,26
 1 1327 1 1327 5 1299 c 1,27,-1
 6 1299 l 1,28,29
 10 1318 10 1318 22 1332 c 1,30,31
 33 1334 33 1334 35 1332 c 1,32,33
 40 1324 40 1324 44 1274 c 1,34,35
 48 1247 48 1247 57 1192 c 0,36,37
 66 1137 66 1137 70 1110 c 0,38,39
 82 1030 82 1030 131 818 c 0,40,41
 180 608 180 608 196 558 c 0,42,43
 204 533 204 533 217 484 c 0,44,45
 235 418 235 418 246 385 c 0,46,47
 249 377 249 377 254 362 c 0,48,49
 259 346 259 346 262 338 c 2,50,-1
 265 321 l 1,51,52
 262 317 262 317 248 310 c 0,53,54
 208 285 l 2,55,-1
 185 339 l 1,56,-1
 166 328 l 1,57,-1
 163 338 l 1,58,-1
 145 328 l 1,59,-1
 141 338 l 1,60,-1
 124 328 l 1,0,1
-57 1412 m 1,61,-1
 -58 1410 l 1,62,-1
 -57 1412 l 1,61,-1
-35 1412 m 1,63,-1
 -36 1410 l 1,64,-1
 -35 1412 l 1,63,-1
-45 1323 m 1,65,66
 -50 1317 -50 1317 -65 1291 c 1,67,68
 -92 1248 -92 1248 -106 1228 c 0,69,70
 -108 1225 -108 1225 -114 1218 c 0,71,72
 -131 1198 -131 1198 -131 1187 c 0,73,74
 -131 1176 -131 1176 -118 1132 c 0,75,76
 -112 1104 -112 1104 -77 984 c 0,77,78
 12 680 12 680 146 395 c 1,79,80
 163 401 163 401 166 408 c 1,81,82
 167 419 167 419 149 471 c 0,83,84
 123 551 123 551 108 615 c 0,85,86
 103 637 103 637 90 682 c 0,87,88
 77 728 77 728 72 749 c 0,89,90
 -6 1076 -6 1076 -45 1323 c 1,65,66
166 269 m 1,91,92
 206 273 206 273 225 266 c 0,93,94
 248 258 248 258 299 213 c 0,95,96
 304 209 304 209 306 207 c 0,97,98
 362 155 362 155 374 134 c 0,99,100
 378 127 378 127 382 113 c 0,101,102
 386 98 386 98 389 92 c 0,103,104
 391 87 391 87 419 55 c 0,105,106
 433 37 433 37 435 21 c 0,107,108
 438 -9 438 -9 397 -67 c 0,109,110
 395 -70 395 -70 394 -71 c 0,111,112
 361 -116 361 -116 339 -121 c 0,113,114
 320 -124 320 -124 284 -96 c 0,115,116
 268 -83 268 -83 259 -79 c 0,117,118
 254 -78 254 -78 245 -77 c 0,119,120
 231 -75 231 -75 225 -72 c 0,121,122
 204 -61 204 -61 164 -26 c 0,123,124
 94 35 94 35 76 71 c 0,125,126
 72 80 72 80 65 113 c 0,127,128
 61 133 61 133 61 136 c 0,129,130
 61 164 61 164 106 216 c 0,131,132
 108 218 108 218 109 220 c 0,133,134
 145 264 145 264 166 269 c 1,91,92
203 213 m 0,135,136
 196 212 196 212 180 195 c 0,137,138
 147 159 147 159 132 133 c 0,139,140
 131 131 131 131 127 125 c 0,141,142
 117 109 117 109 118 102 c 1,143,144
 121 94 121 94 135 79 c 0,145,146
 160 51 160 51 196 20 c 0,147,148
 238 -16 238 -16 244 -20 c 0,149,150
 252 -24 252 -24 257 -25 c 0,151,152
 263 -24 263 -24 279 -7 c 0,153,154
 302 18 302 18 327 62 c 0,155,156
 328 64 328 64 330 70 c 0,157,158
 337 88 337 88 336 95 c 1,159,160
 332 102 332 102 317 118 c 0,161,162
 306 130 306 130 266 167 c 0,163,164
 250 182 250 182 223 203 c 1,165,166
 205 213 205 213 203 213 c 0,135,136
EndSplineSet
EndChar

StartChar: percent
Encoding: 37 37 8
Width: 1075
VWidth: 1639
GlyphClass: 2
Flags: W
LayerCount: 2
Fore
SplineSet
452 1469 m 1,0,-1
 472 1461 l 1,1,-1
 473 1469 l 1,2,-1
 493 1461 l 1,3,-1
 494 1469 l 1,4,-1
 578 1437 l 1,5,-1
 576 1415 l 1,6,-1
 584 1414 l 1,7,-1
 581 1392 l 1,8,-1
 589 1391 l 1,9,-1
 586 1364 l 1,10,-1
 631 1348 l 1,11,12
 630 1327 630 1327 609 1222 c 0,13,14
 608 1216 608 1216 607 1212 c 2,15,-1
 560 948 l 2,16,17
 537 823 537 823 493 572 c 0,18,19
 448 321 448 321 425 197 c 0,20,21
 417 153 417 153 402 64 c 0,22,23
 386 -25 386 -25 378 -69 c 0,24,25
 354 -189 354 -189 351 -221 c 1,26,-1
 264 -189 l 1,27,-1
 264 -177 l 1,28,-1
 179 -146 l 1,29,30
 179 -144 179 -144 180 -139 c 0,31,32
 179 -127 179 -127 174 -123 c 1,33,34
 174 -121 174 -121 175 -116 c 0,35,36
 174 -104 174 -104 169 -100 c 1,37,-1
 181 -28 l 1,38,-1
 205 102 l 1,39,-1
 274 489 l 1,40,-1
 393 1148 l 1,41,-1
 429 1348 l 1,42,-1
 452 1469 l 1,0,-1
528 1397 m 1,43,-1
 501 1407 l 1,44,45
 500 1381 500 1381 478 1276 c 0,46,47
 477 1270 477 1270 476 1266 c 0,48,49
 459 1177 459 1177 429 1005 c 2,50,-1
 296 272 l 2,51,52
 288 230 288 230 272 146 c 0,53,54
 239 -22 239 -22 228 -107 c 1,55,56
 230 -108 230 -108 236 -110 c 0,57,58
 251 -116 251 -116 256 -115 c 0,59,60
 258 -113 258 -113 262 -95 c 0,61,62
 264 -84 264 -84 268 -64 c 0,63,64
 272 -43 272 -43 274 -33 c 0,65,66
 283 19 283 19 321 231 c 1,67,68
 350 400 350 400 411 737 c 0,69,70
 447 937 447 937 465 1036 c 0,71,72
 503 1248 503 1248 508 1284 c 0,73,74
 510 1293 510 1293 515 1312 c 0,75,76
 530 1370 530 1370 528 1397 c 1,43,-1
-70 1378 m 1,77,-1
 -55 1366 l 1,78,-1
 -54 1366 l 1,79,-1
 -49 1378 l 1,80,-1
 -47 1378 l 1,81,-1
 -34 1366 l 1,82,-1
 -32 1366 l 1,83,-1
 -27 1378 l 1,84,-1
 -26 1378 l 1,85,86
 -7 1364 -7 1364 32 1336 c 0,87,88
 131 1267 131 1267 176 1230 c 1,89,90
 181 1222 181 1222 181 1210 c 0,91,92
 182 1208 182 1208 184 1205 c 0,93,94
 187 1201 187 1201 188 1199 c 0,95,96
 189 1197 189 1197 187 1193 c 0,97,98
 186 1189 186 1189 186 1187 c 0,99,100
 187 1184 187 1184 189 1180 c 1,101,102
 191 1173 191 1173 190 1169 c 1,103,-1
 190 1168 l 1,104,105
 230 1144 230 1144 235 1133 c 1,106,107
 236 1124 236 1124 216 1097 c 1,108,109
 207 1081 207 1081 188 1048 c 0,110,111
 169 1015 169 1015 159 999 c 0,112,113
 157 997 157 997 153 988 c 0,114,115
 141 963 141 963 134 963 c 0,116,117
 128 964 128 964 118 973 c 0,118,119
 78 1004 78 1004 75 1007 c 1,120,-1
 73 1007 l 1,121,-1
 59 1010 l 1,122,-1
 48 1005 l 1,123,-1
 8 1035 l 1,124,-1
 -154 1158 l 1,125,-1
 -146 1171 l 1,126,-1
 -146 1173 l 1,127,-1
 -159 1181 l 1,128,-1
 -151 1194 l 1,129,-1
 -152 1196 l 1,130,-1
 -164 1204 l 1,131,132
 -145 1250 -145 1250 -70 1378 c 1,77,-1
54 1071 m 1,133,134
 63 1086 63 1086 80 1116 c 0,135,136
 98 1147 98 1147 106 1161 c 0,137,138
 107 1163 107 1163 113 1170 c 0,139,140
 126 1188 126 1188 124 1196 c 0,141,142
 121 1203 121 1203 89 1223 c 0,143,144
 76 1233 76 1233 49 1253 c 0,145,146
 22 1273 22 1273 10 1282 c 0,147,148
 6 1285 6 1285 -3 1292 c 0,149,150
 -21 1305 -21 1305 -30 1309 c 1,151,152
 -32 1304 -32 1304 -78 1220 c 0,153,154
 -79 1218 -79 1218 -83 1212 c 0,155,156
 -95 1193 -95 1193 -94 1186 c 0,157,158
 -93 1180 -93 1180 -63 1160 c 0,159,160
 -59 1157 -59 1157 -59 1156 c 0,161,162
 -43 1143 -43 1143 -10 1119 c 0,163,164
 33 1087 33 1087 53 1071 c 1,165,-1
 54 1071 l 1,133,134
649 285 m 1,166,-1
 664 274 l 1,167,-1
 665 274 l 1,168,-1
 670 285 l 1,169,-1
 672 285 l 1,170,-1
 685 274 l 1,171,-1
 687 274 l 1,172,-1
 692 285 l 1,173,-1
 693 285 l 1,174,-1
 851 169 l 1,175,-1
 888 143 l 1,176,-1
 901 130 l 1,177,-1
 897 115 l 1,178,179
 908 110 908 110 904 96 c 0,180,181
 903 93 903 93 902 92 c 0,182,183
 912 85 912 85 909 77 c 1,184,-1
 909 75 l 1,185,186
 949 52 949 52 954 41 c 1,187,188
 954 35 954 35 948 26 c 2,189,-1
 929 -5 l 2,190,191
 919 -22 919 -22 899 -56 c 0,192,193
 868 -107 868 -107 855 -133 c 1,194,-1
 792 -85 l 1,195,-1
 792 -90 l 1,196,-1
 777 -79 l 1,197,-1
 776 -79 l 1,198,-1
 771 -90 l 1,199,200
 744 -73 744 -73 635 13 c 0,201,202
 628 18 628 18 624 21 c 0,203,204
 574 56 574 56 569 64 c 0,205,206
 567 67 567 67 569 72 c 0,207,208
 570 77 570 77 570 79 c 0,209,210
 569 81 569 81 566 84 c 0,211,212
 563 88 563 88 563 90 c 0,213,214
 562 92 562 92 564 96 c 0,215,216
 566 100 566 100 565 102 c 0,217,218
 564 104 564 104 561 107 c 0,219,220
 558 111 558 111 557 113 c 0,221,222
 556 122 556 122 579 157 c 0,223,224
 581 160 581 160 581 161 c 0,225,226
 627 243 627 243 649 285 c 1,166,-1
844 105 m 1,227,-1
 738 182 l 1,228,-1
 689 216 l 1,229,-1
 623 93 l 1,230,-1
 623 92 l 1,231,-1
 771 -21 l 1,232,-1
 773 -21 l 1,233,-1
 820 59 l 1,234,-1
 844 105 l 1,227,-1
EndSplineSet
EndChar

StartChar: parenleft
Encoding: 40 40 11
Width: 629
VWidth: 1639
GlyphClass: 2
Flags: W
LayerCount: 2
Fore
SplineSet
443 -254 m 1,0,1
 436 -250 436 -250 412 -230 c 0,2,3
 403 -221 403 -221 386 -203 c 0,4,5
 368 -184 368 -184 360 -175 c 0,6,7
 247 -58 247 -58 154 98 c 0,8,9
 16 326 16 326 -49 608 c 0,10,11
 -79 740 -79 740 -86 820 c 1,12,13
 -94 977 -94 977 -62 1143 c 0,14,15
 -41 1259 -41 1259 -5 1348 c 0,16,17
 19 1411 19 1411 30 1422 c 0,18,19
 34 1426 34 1426 59 1425 c 0,20,21
 91 1424 91 1424 99 1420 c 0,22,23
 125 1405 125 1405 126 1352 c 0,24,25
 126 1342 126 1342 124 1337 c 1,26,27
 165 1334 165 1334 169 1307 c 0,28,29
 168 1302 168 1302 159 1276 c 0,30,31
 146 1243 146 1243 139 1214 c 0,32,33
 111 1109 111 1109 101 1012 c 1,34,35
 72 630 72 630 247 274 c 0,36,37
 257 253 257 253 267 235 c 0,38,39
 314 149 314 149 421 23 c 0,40,41
 445 -5 445 -5 492 -52 c 0,42,43
 495 -56 495 -56 506 -66 c 0,44,45
 522 -80 522 -80 526 -87 c 0,46,47
 527 -89 527 -89 526 -93 c 0,48,49
 526 -98 526 -98 526 -100 c 0,50,51
 527 -101 527 -101 532 -112 c 0,52,53
 532 -114 532 -114 531 -117 c 0,54,55
 531 -122 531 -122 532 -125 c 0,56,57
 538 -136 538 -136 566 -162 c 1,58,59
 579 -178 579 -178 579 -179 c 1,60,61
 579 -187 579 -187 564 -213 c 0,62,63
 558 -227 558 -227 546 -255 c 0,64,65
 533 -283 533 -283 527 -297 c 1,66,67
 515 -291 515 -291 479 -254 c 0,68,69
 471 -246 471 -246 467 -243 c 1,70,-1
 464 -254 l 1,71,-1
 446 -243 l 1,72,-1
 443 -254 l 1,0,1
124 1337 m 1,73,-1
 120 1328 l 1,74,-1
 124 1337 l 1,73,-1
120 1327 m 1,75,-1
 119 1325 l 1,76,-1
 120 1327 l 1,75,-1
29 1246 m 1,77,78
 19 1227 19 1227 7 1169 c 1,79,80
 -10 1098 -10 1098 -22 1012 c 0,81,82
 -45 851 -45 851 -23 684 c 1,83,84
 -8 587 -8 587 46 441 c 0,85,86
 170 92 170 92 404 -144 c 0,87,88
 424 -164 424 -164 442 -180 c 1,89,-1
 444 -180 l 1,90,-1
 474 -115 l 1,91,-1
 474 -113 l 1,92,93
 331 33 331 33 244 171 c 0,94,95
 109 387 109 387 44 664 c 0,96,97
 10 813 10 813 4 923 c 0,98,99
 -3 1031 -3 1031 10 1135 c 0,100,101
 12 1150 12 1150 19 1181 c 0,102,103
 28 1224 28 1224 29 1246 c 1,77,78
EndSplineSet
EndChar

StartChar: parenright
Encoding: 41 41 12
Width: 719
VWidth: 1639
GlyphClass: 2
Flags: W
LayerCount: 2
Fore
SplineSet
-161 1437 m 1,0,-1
 -144 1424 l 1,1,-1
 -140 1437 l 1,2,-1
 -123 1424 l 1,3,-1
 -118 1437 l 1,4,5
 -92 1421 -92 1421 -30 1350 c 0,6,7
 -27 1347 -27 1347 -26 1345 c 0,8,9
 95 1215 95 1215 188 1053 c 0,10,11
 200 1030 200 1030 226 985 c 0,12,13
 282 888 282 888 305 838 c 0,14,15
 423 576 423 576 448 353 c 1,16,17
 460 219 460 219 438 57 c 1,18,19
 416 -90 416 -90 375 -198 c 0,20,21
 372 -205 372 -205 367 -221 c 0,22,23
 350 -268 350 -268 336 -282 c 0,24,25
 323 -295 323 -295 301 -275 c 0,26,27
 295 -268 295 -268 292 -262 c 1,28,29
 291 -256 291 -256 296 -239 c 1,30,31
 278 -251 278 -251 236 -243 c 0,32,33
 225 -240 225 -240 220 -236 c 0,34,35
 207 -224 207 -224 202 -184 c 0,36,37
 201 -181 201 -181 199 -177 c 0,38,39
 195 -170 195 -170 197 -166 c 0,40,41
 198 -156 198 -156 219 -98 c 0,42,43
 221 -93 221 -93 222 -90 c 0,44,45
 242 -17 242 -17 255 59 c 0,46,47
 304 386 304 386 172 722 c 1,48,49
 88 930 88 930 -48 1099 c 1,50,51
 -116 1181 -116 1181 -153 1219 c 0,52,53
 -165 1232 -165 1232 -187 1253 c 0,54,55
 -188 1255 -188 1255 -193 1258 c 0,56,57
 -201 1266 -201 1266 -202 1269 c 0,58,59
 -203 1272 -203 1272 -202 1277 c 0,60,61
 -202 1281 -202 1281 -202 1282 c 0,62,63
 -203 1284 -203 1284 -205 1288 c 0,64,65
 -207 1292 -207 1292 -207 1294 c 0,66,67
 -208 1296 -208 1296 -207 1300 c 0,68,69
 -207 1304 -207 1304 -207 1305 c 0,70,71
 -207 1307 -207 1307 -210 1311 c 0,72,73
 -213 1316 -213 1316 -213 1319 c 0,74,75
 -212 1330 -212 1330 -197 1356 c 0,76,77
 -191 1369 -191 1369 -179 1396 c 0,78,79
 -167 1424 -167 1424 -161 1437 c 1,0,-1
293 -74 m 1,80,81
 392 219 392 219 344 503 c 0,82,83
 303 748 303 748 162 997 c 0,84,85
 69 1157 69 1157 -42 1282 c 0,86,87
 -62 1305 -62 1305 -100 1343 c 0,88,89
 -116 1359 -116 1359 -122 1358 c 1,90,91
 -127 1354 -127 1354 -142 1315 c 0,92,93
 -143 1312 -143 1312 -144 1310 c 0,94,95
 -148 1295 -148 1295 -148 1294 c 0,96,97
 -146 1290 -146 1290 -131 1274 c 0,98,99
 -108 1252 -108 1252 -87 1228 c 0,100,101
 -13 1145 -13 1145 40 1069 c 0,102,103
 262 750 262 750 310 360 c 0,104,105
 318 293 318 293 321 228 c 0,106,107
 324 131 324 131 309 20 c 0,108,109
 305 -5 305 -5 297 -46 c 0,110,111
 297 -49 297 -49 295 -54 c 0,112,113
 292 -68 292 -68 293 -74 c 1,80,81
292 -75 m 1,114,-1
 291 -77 l 1,115,-1
 292 -75 l 1,114,-1
291 -79 m 1,116,-1
 290 -80 l 1,117,-1
 291 -79 l 1,116,-1
300 -231 m 1,118,-1
 296 -239 l 1,119,-1
 298 -239 l 1,120,-1
 300 -231 l 1,118,-1
EndSplineSet
EndChar

StartChar: plus
Encoding: 43 43 14
Width: 952
VWidth: 1639
GlyphClass: 2
Flags: W
LayerCount: 2
Fore
SplineSet
159 989 m 1,0,-1
 308 989 l 1,1,-1
 329 900 l 1,2,-1
 361 900 l 1,3,-1
 435 579 l 1,4,-1
 780 579 l 1,5,-1
 800 490 l 1,6,-1
 832 490 l 1,7,-1
 858 377 l 1,8,-1
 481 377 l 1,9,-1
 575 -30 l 1,10,-1
 469 -30 l 1,11,-1
 459 13 l 1,12,-1
 384 13 l 1,13,-1
 300 377 l 1,14,-1
 -5 377 l 1,15,-1
 -15 420 l 1,16,-1
 -90 420 l 1,17,-1
 -127 581 l 1,18,-1
 253 581 l 1,19,-1
 159 989 l 1,0,-1
276 943 m 1,20,-1
 212 943 l 1,21,-1
 306 535 l 1,22,-1
 -73 535 l 1,23,-1
 -58 466 l 1,24,-1
 322 466 l 1,25,-1
 416 59 l 1,26,-1
 480 59 l 1,27,-1
 386 466 l 1,28,-1
 763 466 l 1,29,-1
 747 533 l 1,30,-1
 371 533 l 1,31,-1
 276 943 l 1,20,-1
EndSplineSet
EndChar

StartChar: hyphen
Encoding: 45 45 16
AltUni2: 002212.ffffffff.0 0000ad.ffffffff.0
Width: 1157
VWidth: 1639
GlyphClass: 2
Flags: W
LayerCount: 2
Fore
SplineSet
-24 579 m 1,0,-1
 883 579 l 1,1,-1
 903 490 l 1,2,-1
 936 490 l 1,3,-1
 962 377 l 1,4,-1
 97 377 l 1,5,-1
 87 420 l 1,6,-1
 12 420 l 1,7,-1
 -24 579 l 1,0,-1
851 533 m 1,8,-1
 29 533 l 1,9,-1
 44 466 l 1,10,-1
 866 466 l 1,11,-1
 851 533 l 1,8,-1
EndSplineSet
EndChar

StartChar: period
Encoding: 46 46 17
Width: 573
VWidth: 1639
GlyphClass: 2
Flags: W
LayerCount: 2
Fore
SplineSet
154 216 m 1,0,1
 184 224 184 224 209 216 c 0,2,3
 212 214 212 214 215.5 213 c 128,-1,4
 219 212 219 212 222.5 210 c 128,-1,5
 226 208 226 208 230 205 c 128,-1,6
 234 202 234 202 236.5 200 c 128,-1,7
 239 198 239 198 243.5 194 c 128,-1,8
 248 190 248 190 250 188.5 c 128,-1,9
 252 187 252 187 257 183 c 128,-1,10
 262 179 262 179 263 177 c 128,-1,11
 264 175 264 175 270 171 c 2,12,-1
 275 166 l 2,13,14
 319 128 319 128 332 105 c 0,15,16
 336 98 336 98 338 84 c 0,17,18
 341 70 341 70 345 64 c 0,19,20
 348 59 348 59 374 31 c 0,21,22
 387 17 387 17 390 5 c 1,23,24
 391 -10 391 -10 379 -33 c 0,25,26
 358 -73 358 -73 335 -98 c 0,27,28
 320 -114 320 -114 309 -118 c 0,29,30
 293 -121 293 -121 259 -92 c 0,31,32
 243 -79 243 -79 234 -75 c 0,33,34
 230 -73 230 -73 220 -73 c 0,35,36
 210 -72 210 -72 205 -71 c 0,37,38
 183 -60 183 -60 148 -30 c 0,39,40
 98 13 98 13 88 30 c 0,41,42
 85 35 85 35 84 38 c 0,43,44
 80 46 80 46 73 79 c 0,45,46
 73 83 73 83 71 89 c 0,47,48
 69 98 69 98 69 102 c 0,49,50
 72 125 72 125 104 169 c 0,51,52
 135 213 135 213 154 216 c 1,0,1
190 159 m 0,53,54
 184 159 184 159 175 147 c 2,55,-1
 174 144 l 1,56,57
 160 128 160 128 138 93 c 0,58,59
 137 91 137 91 135 88 c 0,60,61
 128 74 128 74 129 67 c 1,62,63
 136 53 136 53 176 20 c 0,64,65
 214 -13 214 -13 220 -16 c 0,66,67
 226 -18 226 -18 229 -18 c 0,68,69
 237 -15 237 -15 247 -2 c 0,70,71
 270 31 270 31 280 48 c 1,72,73
 290 71 290 71 289 72 c 0,74,75
 284 85 284 85 240 123 c 0,76,77
 237 125 237 125 230 132 c 0,78,79
 200 160 200 160 190 159 c 0,53,54
EndSplineSet
EndChar

StartChar: slash
Encoding: 47 47 18
Width: 744
VWidth: 1639
GlyphClass: 2
Flags: W
LayerCount: 2
Fore
SplineSet
277 1361 m 1,0,-1
 297 1353 l 1,1,-1
 299 1361 l 1,2,-1
 319 1353 l 1,3,-1
 320 1361 l 1,4,-1
 397 1330 l 1,5,-1
 395 1309 l 1,6,-1
 403 1307 l 1,7,-1
 400 1286 l 1,8,-1
 408 1284 l 1,9,-1
 404 1260 l 1,10,-1
 450 1241 l 1,11,-1
 438 1174 l 1,12,-1
 411 1025 l 1,13,-1
 330 577 l 1,14,-1
 235 57 l 1,15,-1
 207 -103 l 1,16,-1
 190 -190 l 1,17,-1
 115 -162 l 1,18,-1
 117 -144 l 1,19,20
 108 -144 108 -144 105 -148 c 1,21,-1
 30 -120 l 1,22,-1
 33 -100 l 1,23,-1
 25 -97 l 1,24,-1
 28 -77 l 1,25,-1
 20 -74 l 1,26,-1
 32 3 l 1,27,-1
 58 144 l 1,28,-1
 133 564 l 1,29,-1
 232 1109 l 1,30,-1
 261 1278 l 1,31,-1
 277 1361 l 1,0,-1
347 1291 m 1,32,-1
 327 1299 l 1,33,-1
 265 956 l 1,34,-1
 144 280 l 1,35,-1
 79 -80 l 1,36,-1
 98 -87 l 1,37,-1
 114 2 l 1,38,-1
 148 190 l 1,39,-1
 253 766 l 1,40,-1
 316 1115 l 1,41,-1
 338 1232 l 1,42,-1
 347 1291 l 1,32,-1
EndSplineSet
EndChar

StartChar: colon
Encoding: 58 58 29
Width: 573
VWidth: 1639
GlyphClass: 2
Flags: W
LayerCount: 2
Fore
SplineSet
35 731 m 1,0,1
 64 739 64 739 88 731 c 1,2,3
 106 723 106 723 136 699 c 0,4,5
 198 645 198 645 213 622 c 0,6,7
 217 615 217 615 220 599 c 0,8,9
 223 584 223 584 226 577 c 0,10,11
 231 569 231 569 246 556 c 0,12,13
 268 534 268 534 271 520 c 1,14,15
 272 505 272 505 260 482 c 0,16,17
 240 443 240 443 217 418 c 0,18,19
 200 400 200 400 190 397 c 1,20,21
 174 394 174 394 140 423 c 0,22,23
 124 436 124 436 115 440 c 0,24,25
 111 442 111 442 101 442 c 0,26,27
 91 443 91 443 86 444 c 0,28,29
 64 455 64 455 31 484 c 0,30,31
 -24 529 -24 529 -35 553 c 0,32,33
 -39 561 -39 561 -46 594 c 0,34,35
 -46 598 -46 598 -48 604 c 0,36,37
 -50 613 -50 613 -50 617 c 0,38,39
 -47 640 -47 640 -15 684 c 0,40,41
 16 728 16 728 35 731 c 1,0,1
71 674 m 0,42,43
 67 673 67 673 54 658 c 0,44,45
 34 636 34 636 19 608 c 0,46,47
 18 606 18 606 16 603 c 0,48,49
 9 589 9 589 10 582 c 0,50,51
 14 569 14 569 55 537 c 0,52,53
 58 535 58 535 59 533 c 0,54,55
 95 502 95 502 100 499 c 0,56,57
 106 497 106 497 111 497 c 0,58,59
 119 500 119 500 127 512 c 0,60,61
 149 540 149 540 161 563 c 1,62,63
 171 586 171 586 171 587 c 0,64,65
 170 592 170 592 162.5 601 c 128,-1,66
 155 610 155 610 149 615 c 128,-1,67
 143 620 143 620 132 629 c 2,68,-1
 121 638 l 2,69,70
 118 640 118 640 111 647 c 0,71,72
 81 675 81 675 71 674 c 0,42,43
154 216 m 1,73,74
 184 224 184 224 209 216 c 0,75,76
 212 214 212 214 215.5 213 c 128,-1,77
 219 212 219 212 222.5 210 c 128,-1,78
 226 208 226 208 230 205 c 128,-1,79
 234 202 234 202 236.5 200 c 128,-1,80
 239 198 239 198 243.5 194 c 128,-1,81
 248 190 248 190 250 188.5 c 128,-1,82
 252 187 252 187 257 183 c 128,-1,83
 262 179 262 179 263 177 c 128,-1,84
 264 175 264 175 270 171 c 2,85,-1
 275 166 l 2,86,87
 319 128 319 128 332 105 c 0,88,89
 336 98 336 98 338 84 c 0,90,91
 341 70 341 70 345 64 c 0,92,93
 348 59 348 59 374 31 c 0,94,95
 387 17 387 17 390 5 c 1,96,97
 391 -10 391 -10 379 -33 c 0,98,99
 358 -73 358 -73 335 -98 c 0,100,101
 320 -114 320 -114 309 -118 c 0,102,103
 293 -121 293 -121 259 -92 c 0,104,105
 243 -79 243 -79 234 -75 c 0,106,107
 230 -73 230 -73 220 -73 c 0,108,109
 210 -72 210 -72 205 -71 c 0,110,111
 183 -60 183 -60 148 -30 c 0,112,113
 98 13 98 13 88 30 c 0,114,115
 85 35 85 35 84 38 c 0,116,117
 80 46 80 46 73 79 c 0,118,119
 73 83 73 83 71 89 c 0,120,121
 69 98 69 98 69 102 c 0,122,123
 72 125 72 125 104 169 c 0,124,125
 135 213 135 213 154 216 c 1,73,74
190 159 m 0,126,127
 184 159 184 159 175 147 c 2,128,-1
 174 144 l 1,129,130
 160 128 160 128 138 93 c 0,131,132
 137 91 137 91 135 88 c 0,133,134
 128 74 128 74 129 67 c 1,135,136
 136 53 136 53 176 20 c 0,137,138
 214 -13 214 -13 220 -16 c 0,139,140
 226 -18 226 -18 229 -18 c 0,141,142
 237 -15 237 -15 247 -2 c 0,143,144
 270 31 270 31 280 48 c 1,145,146
 290 71 290 71 289 72 c 0,147,148
 284 85 284 85 240 123 c 0,149,150
 237 125 237 125 230 132 c 0,151,152
 200 160 200 160 190 159 c 0,126,127
EndSplineSet
EndChar

StartChar: equal
Encoding: 61 61 32
Width: 952
VWidth: 1639
GlyphClass: 2
Flags: W
LayerCount: 2
Fore
SplineSet
-153 695 m 1,0,-1
 753 695 l 1,1,-1
 773 607 l 1,2,-1
 805 607 l 1,3,-1
 832 492 l 1,4,-1
 -32 494 l 1,5,-1
 -42 536 l 1,6,-1
 -117 536 l 1,7,-1
 -153 695 l 1,0,-1
721 649 m 1,8,-1
 -100 649 l 1,9,-1
 -84 582 l 1,10,-1
 737 581 l 1,11,-1
 721 649 l 1,8,-1
-89 417 m 1,12,-1
 817 417 l 1,13,-1
 838 328 l 1,14,-1
 870 328 l 1,15,-1
 896 213 l 1,16,-1
 33 213 l 1,17,-1
 23 256 l 1,18,-1
 -52 256 l 1,19,-1
 -89 417 l 1,12,-1
785 371 m 1,20,-1
 -36 371 l 1,21,-1
 -20 302 l 1,22,-1
 801 302 l 1,23,-1
 785 371 l 1,20,-1
EndSplineSet
EndChar

StartChar: bracketleft
Encoding: 91 91 62
Width: 613
VWidth: 1639
GlyphClass: 2
Flags: W
LayerCount: 2
Fore
SplineSet
-240 1435 m 1,0,-1
 158 1435 l 1,1,-1
 178 1346 l 1,2,-1
 210 1346 l 1,3,-1
 231 1255 l 1,4,-1
 -32 1255 l 1,5,-1
 363 -458 l 1,6,-1
 596 -458 l 1,7,-1
 617 -546 l 1,8,-1
 649 -546 l 1,9,-1
 670 -638 l 1,10,-1
 313 -638 l 1,11,-1
 303 -595 l 1,12,-1
 228 -595 l 1,13,-1
 -240 1435 l 1,0,-1
126 1389 m 1,14,-1
 -187 1389 l 1,15,-1
 261 -549 l 1,16,-1
 575 -549 l 1,17,-1
 564 -503 l 1,18,-1
 299 -503 l 1,19,-1
 -128 1343 l 1,20,-1
 136 1343 l 1,21,-1
 126 1389 l 1,14,-1
EndSplineSet
EndChar

StartChar: bracketright
Encoding: 93 93 64
Width: 704
VWidth: 1639
GlyphClass: 2
Flags: W
LayerCount: 2
Fore
SplineSet
-240 1435 m 1,0,-1
 159 1435 l 1,1,-1
 180 1346 l 1,2,-1
 212 1346 l 1,3,-1
 670 -640 l 1,4,-1
 313 -640 l 1,5,-1
 304 -597 l 1,6,-1
 229 -597 l 1,7,-1
 197 -458 l 1,8,-1
 460 -458 l 1,9,-1
 66 1253 l 1,10,-1
 -124 1253 l 1,11,-1
 -133 1296 l 1,12,-1
 -208 1296 l 1,13,-1
 -240 1435 l 1,0,-1
127 1389 m 1,14,-1
 -187 1389 l 1,15,-1
 -176 1342 l 1,16,-1
 88 1342 l 1,17,-1
 514 -503 l 1,18,-1
 250 -503 l 1,19,-1
 261 -551 l 1,20,-1
 575 -551 l 1,21,-1
 127 1389 l 1,14,-1
EndSplineSet
EndChar

StartChar: guillemotleft
Encoding: 171 171 175
Width: 924
VWidth: 1639
GlyphClass: 2
Flags: W
LayerCount: 2
Fore
SplineSet
514 735 m 1,0,1
 516 738 516 738 520.5 740.5 c 128,-1,2
 525 743 525 743 530 747 c 128,-1,3
 535 751 535 751 540 752.5 c 128,-1,4
 545 754 545 754 550.5 754 c 128,-1,5
 556 754 556 754 560.5 750 c 128,-1,6
 565 746 565 746 567 738 c 0,7,8
 570 727 570 727 556 690 c 0,9,10
 555 686 555 686 554 684 c 0,11,12
 530 610 530 610 522 558 c 0,13,14
 493 353 493 353 584 164 c 0,15,16
 602 129 602 129 673 42 c 0,17,18
 697 13 697 13 710 -7 c 0,19,20
 712 -10 712 -10 720 -36 c 0,21,22
 722 -42 722 -42 724 -46 c 0,23,24
 727 -51 727 -51 739 -64 c 0,25,26
 774 -104 774 -104 766 -118 c 1,27,28
 756 -128 756 -128 716 -105 c 0,29,30
 700 -96 700 -96 667 -79 c 0,31,32
 602 -46 602 -46 572 -23 c 0,33,34
 379 130 379 130 315 368 c 0,35,36
 301 422 301 422 296 474 c 0,37,38
 279 644 279 644 367 769 c 0,39,40
 374 779 374 779 380 787 c 0,41,42
 421 833 421 833 450 841 c 0,43,44
 450 843 450 843 458 842 c 2,45,-1
 467 841 l 2,46,47
 469 841 469 841 476 842 c 0,48,49
 500 844 500 844 507 840 c 1,50,51
 512 833 512 833 516 812 c 2,52,-1
 526 772 l 2,53,54
 526 769 526 769 516 740 c 0,55,56
 514 737 514 737 514 735 c 1,0,1
205 733 m 1,57,58
 207 733 207 733 211.5 737 c 128,-1,59
 216 741 216 741 219 743 c 128,-1,60
 222 745 222 745 227.5 748 c 128,-1,61
 233 751 233 751 237 751 c 128,-1,62
 241 751 241 751 245 750 c 128,-1,63
 249 749 249 749 253 745 c 128,-1,64
 257 741 257 741 258 735 c 0,65,66
 261 724 261 724 246 686 c 0,67,68
 245 683 245 683 244 682 c 0,69,70
 221 611 221 611 213 554 c 0,71,72
 183 346 183 346 280 151 c 0,73,74
 296 120 296 120 367 35 c 0,75,76
 388 9 388 9 401 -8 c 0,77,78
 403 -11 403 -11 410 -38 c 0,79,80
 412 -44 412 -44 414 -48 c 0,81,82
 417 -53 417 -53 430 -66 c 0,83,84
 467 -107 467 -107 457 -121 c 1,85,86
 447 -130 447 -130 409 -108 c 0,87,88
 404 -105 404 -105 393 -98 c 0,89,90
 379 -89 379 -89 371 -85 c 0,91,92
 367 -83 367 -83 360 -82 c 0,93,94
 352 -80 352 -80 348 -79 c 0,95,96
 306 -57 306 -57 274 -33 c 0,97,98
 83 108 83 108 13 346 c 0,99,100
 -3 401 -3 401 -11 454 c 0,101,102
 -34 621 -34 621 46 749 c 0,103,104
 64 777 64 777 85 799 c 0,105,106
 122 835 122 835 142 840 c 0,107,108
 145 840 145 840 148 840.5 c 128,-1,109
 151 841 151 841 153.5 841 c 128,-1,110
 156 841 156 841 160 840.5 c 128,-1,111
 164 840 164 840 165.5 840 c 128,-1,112
 167 840 167 840 172 839 c 2,113,-1
 176 838 l 2,114,115
 178 838 178 838 183 839 c 0,116,117
 191 840 191 840 194 840 c 0,118,119
 204 832 204 832 207 810 c 1,120,121
 217 781 217 781 217 772 c 0,122,123
 217 759 217 759 205 733 c 1,57,58
454 761 m 1,124,125
 414 728 414 728 379 643 c 1,126,127
 329 514 329 514 354 392 c 0,128,129
 383 263 383 263 498 126 c 1,130,131
 579 32 579 32 633 3 c 1,132,133
 630 8 630 8 580 72 c 1,134,135
 539 130 539 130 512 182 c 0,136,137
 406 388 406 388 419 585 c 0,138,139
 422 615 422 615 451 751 c 0,140,141
 453 757 453 757 454 761 c 1,124,125
145 758 m 1,142,143
 104 731 104 731 70 640 c 0,144,145
 19 506 19 506 47 382 c 0,146,147
 76 258 76 258 188 126 c 0,148,149
 271 28 271 28 324 2 c 1,150,151
 309 24 309 24 277 67 c 0,152,153
 224 139 224 139 204 179 c 0,154,155
 99 381 99 381 111 587 c 0,156,157
 116 646 116 646 145 758 c 1,142,143
205 733 m 1,158,-1
 204 731 l 1,159,-1
 205 733 l 1,158,-1
EndSplineSet
EndChar

StartChar: guillemotright
Encoding: 187 187 176
Width: 924
VWidth: 1639
GlyphClass: 2
Flags: W
LayerCount: 2
Fore
SplineSet
518 -61 m 1,0,1
 483 -82 483 -82 450 -79 c 0,2,3
 447 -79 447 -79 441 -79 c 0,4,5
 429 -77 429 -77 424 -71 c 1,6,7
 421 -69 421 -69 420 -59 c 2,8,-1
 419 -49 l 1,9,-1
 410 -10 l 2,10,11
 410 -5 410 -5 421 27 c 0,12,13
 422 31 422 31 423 33 c 0,14,15
 442 88 442 88 452 139 c 0,16,17
 475 263 475 263 455 369 c 0,18,19
 443 427 443 427 404 510 c 1,20,21
 355 608 355 608 240 751 c 0,22,23
 221 775 221 775 215 813 c 0,24,25
 212 838 212 838 212 840 c 0,26,27
 220 846 220 846 252 841 c 0,28,29
 254 841 254 841 257 842 c 0,30,31
 264 843 264 843 266 843 c 0,32,33
 303 835 303 835 376 776 c 0,34,35
 457 711 457 711 529 605 c 0,36,37
 539 590 539 590 556 558 c 0,38,39
 567 538 567 538 572 528 c 0,40,41
 640 419 640 419 661 349 c 0,42,43
 723 135 723 135 618 -38 c 0,44,45
 592 -81 592 -81 552 -108 c 1,46,47
 526 -123 526 -123 521 -123 c 0,48,49
 509 -119 509 -119 504 -102 c 1,50,51
 504 -92 504 -92 518 -61 c 1,0,1
-91 810 m 1,52,53
 -105 822 -105 822 -95 833 c 0,54,55
 -92 835 -92 835 -91 836 c 0,56,57
 -88 837 -88 837 -75 836 c 0,58,59
 -70 836 -70 836 -60 837 c 0,60,61
 -45 838 -45 838 -39 838 c 0,62,63
 -33 836 -33 836 -27 833.5 c 128,-1,64
 -21 831 -21 831 -15 829.5 c 128,-1,65
 -9 828 -9 828 -2 823 c 128,-1,66
 5 818 5 818 9.5 815.5 c 128,-1,67
 14 813 14 813 22.5 806.5 c 128,-1,68
 31 800 31 800 34.5 797.5 c 128,-1,69
 38 795 38 795 47 788.5 c 128,-1,70
 56 782 56 782 58 779.5 c 128,-1,71
 60 777 60 777 70 770 c 2,72,-1
 79 763 l 1,73,74
 175 681 175 681 265 526 c 1,75,76
 331 408 331 408 342 380 c 0,77,78
 346 370 346 370 349 361 c 0,79,80
 410 172 410 172 343 13 c 0,81,82
 318 -43 318 -43 280 -84 c 1,83,84
 244 -119 244 -119 222 -126 c 0,85,86
 204 -132 204 -132 200 -112 c 0,87,88
 198 -99 198 -99 202 -87 c 0,89,90
 204 -84 204 -84 206 -76 c 0,91,92
 209 -68 209 -68 211 -66 c 1,93,94
 180 -86 180 -86 143 -84 c 0,95,96
 124 -84 124 -84 121 -81 c 0,97,98
 118 -78 118 -78 117 -75 c 0,99,100
 114 -68 114 -68 107 -33 c 0,101,102
 102 -11 102 -11 118 31 c 0,103,104
 119 34 l 0,105,106
 138 97 138 97 144 130 c 0,107,108
 168 266 168 266 147 369 c 0,109,110
 139 408 139 408 103 492 c 1,111,112
 62 584 62 584 -40 712 c 0,113,114
 -43 716 -43 716 -54 728 c 0,115,116
 -91 772 -91 772 -85 786 c 1,117,-1
 -85 787 l 1,118,119
 -95 798 -95 798 -90 809 c 1,120,-1
 -91 810 l 1,52,53
304 759 m 1,121,122
 307 752 307 752 322 735 c 0,123,124
 328 727 328 727 341 709 c 0,125,126
 354 691 354 691 360 684 c 0,127,128
 404 624 404 624 436 556 c 0,129,130
 524 371 524 371 516 190 c 0,131,132
 513 123 513 123 482 3 c 2,133,-1
 482 2 l 1,134,135
 524 33 524 33 559 123 c 1,136,137
 605 248 605 248 582 366 c 0,138,139
 552 520 552 520 401 677 c 0,140,141
 353 726 353 726 304 759 c 1,121,122
-3 754 m 1,142,143
 -1 749 -1 749 11 733 c 0,144,145
 25 717 25 717 46 689 c 0,146,147
 99 616 99 616 132 544 c 0,148,149
 219 355 219 355 209 179 c 0,150,151
 205 113 205 113 175 -3 c 1,152,153
 217 28 217 28 252 118 c 1,154,155
 298 243 298 243 276 361 c 0,156,157
 247 513 247 513 108 659 c 0,158,159
 53 716 53 716 -3 754 c 1,142,143
EndSplineSet
EndChar

StartChar: guilsinglleft
Encoding: 8249 8249 195
Width: 520
GlyphClass: 2
Flags: W
LayerCount: 2
Fore
SplineSet
307 70 m 1,0,1
 324 48 324 48 328 35 c 0,2,3
 330 26 330 26 319 26 c 0,4,5
 311 26 311 26 294 33 c 1,6,7
 235 73 235 73 182.5 128 c 128,-1,8
 130 183 130 183 83 255 c 0,9,10
 41 321 41 321 14.5 385 c 128,-1,11
 -12 449 -12 449 -27 513 c 1,12,13
 -60 656 -60 656 -30 783 c 1,14,15
 4 904 4 904 81 958 c 1,16,17
 104 969 104 969 107 969 c 0,18,19
 114 969 114 969 116 963 c 0,20,21
 118 953 118 953 106 912 c 1,22,23
 34 746 34 746 88 513 c 0,24,25
 148 249 148 249 307 70 c 1,0,1
EndSplineSet
EndChar

StartChar: guilsinglright
Encoding: 8250 8250 196
Width: 523
GlyphClass: 2
Flags: W
LayerCount: 2
Fore
SplineSet
89 70 m 1,0,1
 168 249 168 249 106 513 c 0,2,3
 51 751 51 751 -99 913 c 1,4,5
 -129 954 -129 954 -131 963 c 0,6,7
 -132 969 -132 969 -125 969 c 0,8,9
 -123 969 -123 969 -115 966.5 c 128,-1,10
 -107 964 -107 964 -96 958 c 0,11,12
 -42 931 -42 931 6 887 c 128,-1,13
 54 843 54 843 97 783 c 0,14,15
 145 718 145 718 175.5 650.5 c 128,-1,16
 206 583 206 583 223 513 c 0,17,18
 238 450 238 450 238 385 c 128,-1,19
 238 320 238 320 226 255 c 0,20,21
 214 188 214 188 186.5 130 c 128,-1,22
 159 72 159 72 119 33 c 1,23,24
 108 26 108 26 97 26 c 256,25,26
 86 26 86 26 84 35 c 0,27,28
 81 47 81 47 89 70 c 1,0,1
EndSplineSet
EndChar

StartChar: afii57451
Encoding: 1611 1611 311
AltUni2: 00fe70.ffffffff.0
Width: 36
VWidth: 1639
GlyphClass: 2
Flags: HW
AnchorPoint: "GposMark2BaseAnchorHamzaErabAbove_01_01" -247 1535 mark 0
AnchorPoint: "GposMark2BaseAnchorHamzaErabBelow_01_01" -247 2165 mark 0
AnchorPoint: "GposMark2BaseAnchorClassErabAbove_01_02" -247 1535 mark 0
AnchorPoint: "GposMark2MarkAnchorHamzaErabAbove_01_01" -247 1535 mark 0
AnchorPoint: "GposMark2MarkAnchorHamzaErabBelow_01_01" -247 2165 mark 0
AnchorPoint: "GposMark2MarkAnchorShaddaErabAbove_01_02" -247 1535 mark 0
AnchorPoint: "GposMark2MarkAnchorShaddaErabBelow_01_02" -247 2165 mark 0
LayerCount: 2
Fore
SplineSet
-158 2165 m 1,0,-1
 -154 2153 l 1,1,-1
 -135 2165 l 1,2,-1
 -132 2153 l 1,3,-1
 -114 2165 l 1,4,-1
 -89 2058 l 1,5,-1
 -61 2076 l 1,6,-1
 -45 2006 l 2,7,8
 -40 1981 -40 1981 -40 1979 c 0,9,10
 -42 1974 -42 1974 -69 1959 c 1,11,12
 -83 1949 -83 1949 -82 1937 c 1,13,-1
 -64 1948 l 1,14,-1
 -39 1843 l 1,15,-1
 -11 1860 l 1,16,-1
 5 1791 l 1,17,-1
 10 1763 l 1,18,-1
 -14 1747 l 1,19,-1
 -80 1704 l 1,20,-1
 -239 1599 l 1,21,-1
 -339 1535 l 1,22,-1
 -353 1596 l 1,23,-1
 -381 1578 l 1,24,-1
 -383 1589 l 1,25,-1
 -402 1578 l 1,26,-1
 -405 1589 l 1,27,-1
 -423 1578 l 1,28,-1
 -446 1674 l 2,29,30
 -454 1712 -454 1712 -454 1715 c 0,31,32
 -451 1721 -451 1721 -438 1729 c 0,33,34
 -398 1754 -398 1754 -397 1755 c 0,35,36
 -395 1758 -395 1758 -394 1760 c 0,37,38
 -392 1766 -392 1766 -402 1811 c 1,39,-1
 -430 1793 l 1,40,-1
 -433 1804 l 1,41,-1
 -452 1793 l 1,42,-1
 -454 1804 l 1,43,-1
 -473 1793 l 1,44,-1
 -496 1893 l 1,45,-1
 -504 1932 l 1,46,-1
 -479 1950 l 1,47,-1
 -410 1996 l 1,48,-1
 -158 2165 l 1,0,-1
-140 2094 m 1,49,-1
 -379 1935 l 1,50,-1
 -429 1901 l 1,51,-1
 -450 1886 l 1,52,-1
 -447 1863 l 1,53,-1
 -377 1907 l 1,54,-1
 -206 2019 l 1,55,-1
 -158 2052 l 1,56,-1
 -135 2068 l 1,57,-1
 -140 2094 l 1,49,-1
-90 1878 m 1,58,59
 -107 1873 -107 1873 -166 1828 c 0,60,61
 -171 1824 -171 1824 -175 1822 c 0,62,63
 -253 1772 -253 1772 -332 1717 c 0,64,65
 -341 1711 -341 1711 -357 1701 c 0,66,67
 -374 1690 -374 1690 -382 1684 c 0,68,69
 -398 1673 -398 1673 -400 1670 c 0,70,71
 -401 1665 -401 1665 -397 1648 c 1,72,73
 -381 1653 -381 1653 -320 1698 c 0,74,75
 -316 1701 -316 1701 -313 1702 c 0,76,77
 -164 1799 -164 1799 -153 1807 c 0,78,79
 -111 1833 -111 1833 -104 1838 c 0,80,81
 -87 1849 -87 1849 -85 1852 c 0,82,83
 -85 1857 -85 1857 -90 1878 c 1,58,59
EndSplineSet
EndChar

StartChar: afii57452
Encoding: 1612 1612 312
AltUni2: 00fe72.ffffffff.0
Width: 63
VWidth: 1639
GlyphClass: 2
Flags: HW
AnchorPoint: "GposMark2BaseAnchorHamzaErabAbove_01_01" -250 1535 mark 0
AnchorPoint: "GposMark2BaseAnchorHamzaErabBelow_01_01" -250 2168 mark 0
AnchorPoint: "GposMark2BaseAnchorClassErabAbove_01_02" -250 1535 mark 0
AnchorPoint: "GposMark2MarkAnchorHamzaErabAbove_01_01" -250 1535 mark 0
AnchorPoint: "GposMark2MarkAnchorHamzaErabBelow_01_01" -250 2168 mark 0
AnchorPoint: "GposMark2MarkAnchorShaddaErabAbove_01_02" -250 1535 mark 0
AnchorPoint: "GposMark2MarkAnchorShaddaErabBelow_01_02" -250 2168 mark 0
LayerCount: 2
Fore
SplineSet
-275 1835 m 1,0,1
 -305 1867 -305 1867 -319 1889 c 0,2,3
 -377 1990 -377 1990 -316 2107 c 0,4,5
 -290 2156 -290 2156 -258 2165 c 0,6,7
 -246 2168 -246 2168 -210 2168 c 0,8,9
 -167 2167 -167 2167 -143 2152 c 1,10,11
 -117 2132 -117 2132 -103 2098 c 1,12,13
 -98 2077 -98 2077 -93 2068 c 0,14,15
 -90 2063 -90 2063 -75 2048 c 1,16,17
 -62 2033 -62 2033 -51 2009 c 1,18,19
 -35 1966 -35 1966 -33 1912 c 0,20,21
 -33 1907 -33 1907 -35 1896 c 0,22,23
 -37 1878 -37 1878 -37 1870 c 0,24,25
 -36 1857 -36 1857 -27 1827 c 0,26,27
 -22 1810 -22 1810 -20 1802 c 1,28,29
 5 1796 5 1796 8 1794 c 0,30,31
 14 1788 14 1788 17 1773 c 1,32,33
 33 1731 33 1731 20 1705 c 0,34,35
 17 1701 17 1701 15 1699 c 0,36,37
 15 1697 15 1697 9.5 1698 c 128,-1,38
 4 1699 4 1699 2.5 1699 c 128,-1,39
 1 1699 1 1699 -5 1701 c 2,40,-1
 -11 1702 l 2,41,42
 -21 1704 -21 1704 -39 1710 c 0,43,44
 -58 1715 -58 1715 -67 1717 c 0,45,46
 -84 1724 -84 1724 -91 1722 c 0,47,48
 -101 1718 -101 1718 -128 1681 c 0,49,50
 -132 1676 -132 1676 -135 1673 c 0,51,52
 -211 1592 -211 1592 -289 1556 c 0,53,54
 -304 1549 -304 1549 -331 1540 c 0,55,56
 -343 1535 -343 1535 -349 1537 c 0,57,58
 -357 1540 -357 1540 -374 1582 c 2,59,-1
 -375 1583 l 1,60,61
 -388 1577 -388 1577 -395 1583 c 1,62,63
 -413 1580 -413 1580 -416 1583 c 1,64,65
 -428 1578 -428 1578 -434 1579 c 0,66,67
 -441 1582 -441 1582 -454 1614 c 1,68,69
 -467 1639 -467 1639 -464 1643 c 1,70,71
 -470 1664 -470 1664 -469 1666 c 2,72,-1
 -477 1688 l 1,73,-1
 -460 1702 l 1,74,-1
 -417 1733 l 1,75,-1
 -438 1765 l 1,76,-1
 -426 1786 l 1,77,-1
 -452 1770 l 1,78,-1
 -453 1770 l 1,79,-1
 -460 1779 l 1,80,-1
 -473 1770 l 1,81,-1
 -474 1770 l 1,82,-1
 -481 1779 l 1,83,-1
 -494 1770 l 1,84,-1
 -496 1770 l 1,85,86
 -522 1800 -522 1800 -527 1837 c 0,87,88
 -527 1840 -527 1840 -530 1845 c 0,89,90
 -533 1851 -533 1851 -533 1853 c 0,91,92
 -530 1866 -530 1866 -508 1888 c 0,93,94
 -476 1915 -476 1915 -422 1917 c 1,95,96
 -383 1917 -383 1917 -372 1914 c 0,97,98
 -344 1904 -344 1904 -332 1860 c 0,99,100
 -326 1839 -326 1839 -322 1830 c 0,101,102
 -321 1828 -321 1828 -305 1816 c 0,103,104
 -301 1812 -301 1812 -299 1811 c 1,105,-1
 -275 1835 l 1,0,1
-129 1973 m 1,106,107
 -130 2034 -130 2034 -133 2043 c 0,108,109
 -136 2054 -136 2054 -141 2063 c 0,110,111
 -162 2106 -162 2106 -194 2117 c 0,112,113
 -201 2119 -201 2119 -206 2119 c 0,114,115
 -234 2116 -234 2116 -252 2076 c 1,116,117
 -247 2076 -247 2076 -234 2077 c 0,118,119
 -179 2080 -179 2080 -162 2066 c 1,120,121
 -143 2041 -143 2041 -131 1973 c 1,122,-1
 -129 1973 l 1,106,107
-285 2011 m 1,123,-1
 -286 2009 l 1,124,-1
 -285 2011 l 1,123,-1
-285 2007 m 1,125,126
 -313 1963 -313 1963 -263 1902 c 0,127,128
 -259 1898 -259 1898 -248 1888 c 0,129,130
 -219 1861 -219 1861 -224 1848 c 1,131,-1
 -224 1847 l 1,132,133
 -214 1836 -214 1836 -219 1825 c 1,134,-1
 -218 1824 l 1,135,136
 -203 1810 -203 1810 -224 1788 c 0,137,138
 -227 1785 -227 1785 -228 1784 c 0,139,140
 -261 1744 -261 1744 -312 1709 c 1,141,-1
 -310 1725 l 1,142,-1
 -334 1709 l 1,143,-1
 -332 1725 l 1,144,145
 -349 1717 -349 1717 -352 1709 c 0,146,147
 -354 1707 -354 1707 -355 1701 c 0,148,149
 -357 1695 -357 1695 -358 1694 c 0,150,151
 -364 1688 -364 1688 -399 1661 c 0,152,153
 -413 1650 -413 1650 -412 1645 c 0,154,155
 -411 1640 -411 1640 -410 1635 c 1,156,157
 -339 1655 -339 1655 -243 1747 c 1,158,159
 -216 1777 -216 1777 -204 1793 c 0,160,161
 -202 1794 -202 1794 -199 1798 c 0,162,163
 -190 1808 -190 1808 -185 1811 c 0,164,165
 -183 1812 -183 1812 -178 1811 c 128,-1,166
 -173 1810 -173 1810 -171 1811 c 0,167,168
 -132 1811 -132 1811 -76 1794 c 1,169,170
 -68 1827 -68 1827 -75 1837 c 0,171,172
 -78 1840 -78 1840 -95 1843 c 0,173,174
 -113 1847 -113 1847 -141 1860 c 1,175,-1
 -135 1878 l 1,176,177
 -144 1882 -144 1882 -184 1879 c 0,178,179
 -196 1879 -196 1879 -204 1881 c 0,180,181
 -218 1884 -218 1884 -239 1904 c 1,182,183
 -271 1944 -271 1944 -285 2007 c 1,125,126
-365 1778 m 1,184,185
 -362 1780 -362 1780 -361.5 1783 c 128,-1,186
 -361 1786 -361 1786 -362 1793 c 2,187,-1
 -362 1799 l 1,188,189
 -361 1841 -361 1841 -392 1862 c 0,190,191
 -396 1865 -396 1865 -399 1866 c 0,192,193
 -422 1876 -422 1876 -453 1843 c 0,194,195
 -456 1840 -456 1840 -457 1838 c 1,196,197
 -450 1836 -450 1836 -434 1838 c 0,198,199
 -421 1839 -421 1839 -416 1838 c 0,200,201
 -383 1834 -383 1834 -369 1798 c 0,202,203
 -365 1787 -365 1787 -365 1778 c 1,184,185
-358 1760 m 1,204,-1
 -360 1755 l 1,205,-1
 -358 1760 l 1,204,-1
-352 1737 m 1,206,-1
 -353 1727 l 1,207,-1
 -352 1727 l 1,208,-1
 -352 1737 l 1,206,-1
-353 1725 m 1,209,-1
 -354 1724 l 1,210,-1
 -353 1725 l 1,209,-1
-335 1709 m 1,211,-1
 -333 1707 l 1,212,-1
 -335 1709 l 1,211,-1
-314 1709 m 1,213,-1
 -312 1707 l 1,214,-1
 -314 1709 l 1,213,-1
EndSplineSet
EndChar

StartChar: afii57453
Encoding: 1613 1613 313
AltUni2: 00fe74.ffffffff.0
Width: 34
VWidth: 1639
GlyphClass: 2
Flags: HW
AnchorPoint: "GposMark2BaseAnchorClassErabBelow_01_02" 78.5 -125 mark 0
LayerCount: 2
Fore
SplineSet
168 -125 m 1,0,-1
 172 -136 l 1,1,-1
 191 -125 l 1,2,-1
 193 -136 l 1,3,-1
 212 -125 l 1,4,-1
 237 -231 l 1,5,-1
 265 -213 l 1,6,-1
 281 -284 l 2,7,8
 286 -309 286 -309 285 -310 c 0,9,10
 283 -315 283 -315 256 -330 c 1,11,12
 242 -340 242 -340 243 -353 c 1,13,-1
 262 -341 l 1,14,-1
 286 -446 l 1,15,-1
 315 -430 l 1,16,-1
 330 -499 l 1,17,-1
 335 -526 l 1,18,-1
 312 -543 l 1,19,-1
 245 -585 l 1,20,-1
 86 -690 l 1,21,-1
 -13 -754 l 1,22,-1
 -27 -694 l 1,23,-1
 -55 -712 l 1,24,-1
 -58 -700 l 1,25,-1
 -76 -712 l 1,26,-1
 -79 -700 l 1,27,-1
 -98 -712 l 1,28,-1
 -120 -615 l 2,29,30
 -128 -577 -128 -577 -128 -574 c 0,31,32
 -125 -568 -125 -568 -113 -561 c 0,33,34
 -73 -536 -73 -536 -71 -534 c 0,35,36
 -69 -531 -69 -531 -68 -530 c 0,37,38
 -66 -524 -66 -524 -77 -479 c 1,39,-1
 -105 -497 l 1,40,-1
 -107 -485 l 1,41,-1
 -126 -497 l 1,42,-1
 -129 -485 l 1,43,-1
 -147 -497 l 1,44,-1
 -170 -397 l 1,45,-1
 -178 -358 l 1,46,-1
 -153 -339 l 1,47,-1
 -84 -294 l 1,48,-1
 168 -125 l 1,0,-1
186 -195 m 1,49,-1
 -54 -354 l 1,50,-1
 -104 -389 l 1,51,-1
 -125 -403 l 1,52,-1
 -121 -426 l 1,53,-1
 -52 -382 l 1,54,-1
 119 -271 l 1,55,-1
 168 -238 l 1,56,-1
 190 -221 l 1,57,-1
 186 -195 l 1,49,-1
236 -412 m 1,58,59
 219 -417 219 -417 160 -461 c 0,60,61
 155 -465 155 -465 151 -467 c 0,62,63
 73 -517 73 -517 -6 -572 c 0,64,65
 -15 -578 -15 -578 -32 -589 c 0,66,67
 -49 -600 -49 -600 -57 -605 c 0,68,69
 -73 -616 -73 -616 -75 -620 c 0,70,71
 -76 -625 -76 -625 -71 -641 c 1,72,73
 -55 -636 -55 -636 6 -592 c 0,74,75
 10 -589 10 -589 12 -587 c 0,76,77
 161 -490 161 -490 173 -482 c 0,78,79
 215 -456 215 -456 222 -451 c 0,80,81
 239 -440 239 -440 240 -438 c 0,82,83
 241 -433 241 -433 236 -412 c 1,58,59
EndSplineSet
EndChar

StartChar: afii57454
Encoding: 1614 1614 314
AltUni2: 00fe76.ffffffff.0
Width: 46
VWidth: 1639
GlyphClass: 2
Flags: HW
AnchorPoint: "GposMark2BaseAnchorHamzaErabAbove_01_01" -248 1535 mark 0
AnchorPoint: "GposMark2BaseAnchorHamzaErabBelow_01_01" -248 1948 mark 0
AnchorPoint: "GposMark2BaseAnchorClassErabAbove_01_02" -248 1535 mark 0
AnchorPoint: "GposMark2MarkAnchorHamzaErabAbove_01_01" -248 1535 mark 0
AnchorPoint: "GposMark2MarkAnchorHamzaErabBelow_01_01" -248 1948 mark 0
AnchorPoint: "GposMark2MarkAnchorShaddaErabAbove_01_02" -248 1535 mark 0
AnchorPoint: "GposMark2MarkAnchorShaddaErabBelow_01_02" -248 1948 mark 0
LayerCount: 2
Fore
SplineSet
-449 1578 m 1,0,-1
 -472 1678 l 2,1,2
 -480 1713 -480 1713 -479 1715 c 0,3,4
 -475 1722 -475 1722 -453 1735 c 0,5,6
 -452 1736 -452 1736 -391 1776 c 1,7,8
 -345 1810 -345 1810 -217 1893 c 0,9,10
 -209 1898 -209 1898 -192 1911 c 0,11,12
 -153 1941 -153 1941 -132 1948 c 1,13,-1
 -129 1937 l 1,14,-1
 -110 1948 l 1,15,-1
 -108 1937 l 1,16,-1
 -89 1948 l 1,17,-1
 -65 1843 l 1,18,-1
 -37 1860 l 1,19,-1
 -21 1791 l 1,20,-1
 -16 1763 l 1,21,-1
 -39 1747 l 1,22,-1
 -106 1704 l 1,23,-1
 -265 1599 l 1,24,-1
 -364 1535 l 1,25,-1
 -378 1596 l 1,26,-1
 -406 1578 l 1,27,-1
 -409 1589 l 1,28,-1
 -428 1578 l 1,29,-1
 -430 1589 l 1,30,-1
 -449 1578 l 1,0,-1
-116 1878 m 1,31,32
 -133 1873 -133 1873 -192 1828 c 0,33,34
 -197 1824 -197 1824 -200 1822 c 0,35,36
 -278 1772 -278 1772 -358 1717 c 0,37,38
 -367 1711 -367 1711 -383 1701 c 0,39,40
 -400 1690 -400 1690 -408 1684 c 0,41,42
 -424 1673 -424 1673 -426 1670 c 0,43,44
 -427 1665 -427 1665 -422 1648 c 1,45,46
 -406 1653 -406 1653 -345 1698 c 0,47,48
 -341 1701 -341 1701 -339 1702 c 0,49,50
 -190 1799 -190 1799 -179 1807 c 0,51,52
 -137 1833 -137 1833 -129 1838 c 0,53,54
 -112 1849 -112 1849 -111 1852 c 0,55,56
 -111 1857 -111 1857 -116 1878 c 1,31,32
EndSplineSet
EndChar

StartChar: afii57455
Encoding: 1615 1615 315
AltUni2: 00fe78.ffffffff.0
Width: 55
VWidth: 1639
GlyphClass: 2
Flags: HW
AnchorPoint: "GposMark2BaseAnchorHamzaErabAbove_01_01" -271 1535 mark 0
AnchorPoint: "GposMark2BaseAnchorHamzaErabBelow_01_01" -271 2168 mark 0
AnchorPoint: "GposMark2BaseAnchorClassErabAbove_01_02" -271 1535 mark 0
AnchorPoint: "GposMark2MarkAnchorHamzaErabAbove_01_01" -271 1535 mark 0
AnchorPoint: "GposMark2MarkAnchorHamzaErabBelow_01_01" -271 2168 mark 0
AnchorPoint: "GposMark2MarkAnchorShaddaErabAbove_01_02" -271 1535 mark 0
AnchorPoint: "GposMark2MarkAnchorShaddaErabBelow_01_02" -271 2168 mark 0
LayerCount: 2
Fore
SplineSet
-526 1686 m 1,0,1
 -407 1753 -407 1753 -374 1781 c 0,2,3
 -337 1811 -337 1811 -326 1832 c 1,4,5
 -325 1839 -325 1839 -337 1852 c 0,6,7
 -363 1882 -363 1882 -373 1902 c 0,8,9
 -410 1974 -410 1974 -391 2045 c 1,10,11
 -358 2144 -358 2144 -310 2163 c 0,12,13
 -297 2168 -297 2168 -257 2168 c 0,14,15
 -209 2167 -209 2167 -186 2148 c 1,16,17
 -163 2129 -163 2129 -148 2089 c 1,18,19
 -143 2070 -143 2070 -141 2068 c 0,20,21
 -137 2060 -137 2060 -124 2047 c 0,22,23
 -110 2032 -110 2032 -105 2024 c 0,24,25
 -82 1975 -82 1975 -80 1911 c 0,26,27
 -80 1904 -80 1904 -82 1890 c 0,28,29
 -83 1876 -83 1876 -83 1870 c 0,30,31
 -82 1865 -82 1865 -68 1802 c 1,32,33
 -47 1801 -47 1801 -38 1794 c 1,34,35
 -16 1768 -16 1768 -25 1717 c 0,36,37
 -26 1705 -26 1705 -32 1699 c 1,38,39
 -37 1697 -37 1697 -55 1702 c 1,40,41
 -79 1706 -79 1706 -115 1719 c 0,42,43
 -136 1724 -136 1724 -139 1722 c 0,44,45
 -149 1716 -149 1716 -183 1672 c 0,46,47
 -189 1665 -189 1665 -192 1661 c 0,48,49
 -307 1548 -307 1548 -398 1535 c 1,50,-1
 -423 1583 l 1,51,-1
 -440 1578 l 1,52,-1
 -442 1583 l 1,53,-1
 -461 1578 l 1,54,-1
 -464 1583 l 1,55,-1
 -482 1578 l 1,56,-1
 -515 1640 l 1,57,-1
 -509 1642 l 1,58,-1
 -520 1663 l 1,59,-1
 -515 1665 l 1,60,-1
 -526 1686 l 1,0,1
-176 1975 m 1,61,62
 -177 2043 -177 2043 -192 2071 c 1,63,64
 -222 2113 -222 2113 -254 2119 c 1,65,66
 -282 2114 -282 2114 -300 2076 c 1,67,68
 -295 2076 -295 2076 -282 2077 c 0,69,70
 -226 2080 -226 2080 -207 2065 c 1,71,72
 -189 2042 -189 2042 -178 1975 c 1,73,-1
 -176 1975 l 1,61,62
-332 2009 m 1,74,75
 -361 1964 -361 1964 -311 1904 c 0,76,77
 -308 1901 -308 1901 -299 1893 c 0,78,79
 -267 1862 -267 1862 -272 1848 c 1,80,-1
 -272 1847 l 1,81,82
 -261 1835 -261 1835 -267 1825 c 1,83,-1
 -266 1824 l 1,84,85
 -249 1808 -249 1808 -288 1767 c 0,86,87
 -293 1762 -293 1762 -294 1760 c 0,88,89
 -325 1727 -325 1727 -427 1666 c 0,90,91
 -447 1654 -447 1654 -461 1645 c 1,92,-1
 -456 1635 l 1,93,94
 -383 1656 -383 1656 -289 1750 c 0,95,96
 -268 1771 -268 1771 -251 1791 c 0,97,98
 -238 1810 -238 1810 -233 1812 c 0,99,100
 -231 1812 -231 1812 -226 1811.5 c 128,-1,101
 -221 1811 -221 1811 -219 1811 c 0,102,103
 -180 1811 -180 1811 -158 1804 c 0,104,105
 -155 1803 -155 1803 -148 1801 c 0,106,107
 -130 1795 -130 1795 -124 1796 c 1,108,109
 -117 1801 -117 1801 -118 1824 c 0,110,111
 -119 1834 -119 1834 -125 1838 c 0,112,113
 -129 1840 -129 1840 -149 1845 c 0,114,115
 -153 1846 -153 1846 -189 1860 c 1,116,-1
 -181 1876 l 1,117,118
 -192 1882 -192 1882 -232 1880 c 0,119,120
 -244 1879 -244 1879 -252 1881 c 0,121,122
 -263 1884 -263 1884 -281 1899 c 0,123,124
 -318 1932 -318 1932 -332 2008 c 2,125,-1
 -332 2009 l 1,74,75
EndSplineSet
EndChar

StartChar: afii57456
Encoding: 1616 1616 316
AltUni2: 00fe7a.ffffffff.0
Width: 44
VWidth: 1639
GlyphClass: 2
Flags: HW
AnchorPoint: "GposMark2BaseAnchorClassErabBelow_01_02" 59 -125 mark 0
LayerCount: 2
Fore
SplineSet
173 -125 m 1,0,-1
 177 -136 l 1,1,-1
 196 -125 l 1,2,-1
 199 -136 l 1,3,-1
 218 -125 l 1,4,-1
 242 -231 l 1,5,-1
 270 -213 l 1,6,-1
 286 -284 l 1,7,-1
 291 -310 l 1,8,-1
 261 -331 l 1,9,-1
 190 -377 l 1,10,-1
 25 -485 l 1,11,-1
 -57 -540 l 1,12,-1
 -71 -479 l 1,13,-1
 -99 -497 l 1,14,-1
 -102 -485 l 1,15,-1
 -121 -497 l 1,16,-1
 -123 -485 l 1,17,-1
 -142 -497 l 1,18,-1
 -165 -397 l 1,19,-1
 -173 -358 l 1,20,-1
 -148 -339 l 1,21,-1
 -80 -295 l 1,22,-1
 85 -184 l 1,23,-1
 173 -125 l 1,0,-1
191 -195 m 1,24,-1
 -47 -354 l 1,25,-1
 -98 -389 l 1,26,-1
 -119 -403 l 1,27,-1
 -115 -426 l 1,28,-1
 -46 -382 l 1,29,-1
 125 -271 l 1,30,-1
 173 -238 l 1,31,-1
 196 -221 l 1,32,-1
 191 -195 l 1,24,-1
EndSplineSet
EndChar

StartChar: afii57457
Encoding: 1617 1617 317
AltUni2: 00fe7c.ffffffff.0
Width: 122
VWidth: 1639
GlyphClass: 2
Flags: HW
AnchorPoint: "GposMark2BaseAnchorHamzaErabAbove_01_01" -210.5 1533 mark 0
AnchorPoint: "GposMark2BaseAnchorHamzaErabBelow_01_01" -210.5 2055 mark 0
AnchorPoint: "GposMark2BaseAnchorClassErabAbove_01_02" -210.5 1533 mark 0
AnchorPoint: "GposMark2MarkAnchorHamzaErabAbove_01_01" -210.5 1533 mark 0
AnchorPoint: "GposMark2MarkAnchorHamzaErabBelow_01_01" -210.5 2055 mark 0
AnchorPoint: "GposMark2MarkAnchorShaddaErabAbove_01_02" -210.5 2205 basemark 0
AnchorPoint: "GposMark2MarkAnchorShaddaErabBelow_01_02" -210.5 1383 basemark 0
LayerCount: 2
Fore
SplineSet
-156 1860 m 1,0,1
 -132 1896 -132 1896 -144 1973 c 0,2,3
 -145 1980 -145 1980 -147 1994 c 0,4,5
 -149 2009 -149 2009 -151 2016 c 0,6,7
 -154 2034 -154 2034 -154 2035 c 0,8,9
 -149 2044 -149 2044 -120 2055 c 1,10,-1
 -117 2047 l 1,11,-1
 -99 2055 l 1,12,-1
 -95 2047 l 1,13,-1
 -77 2055 l 1,14,15
 -48 2000 -48 2000 -39 1960 c 1,16,-1
 -25 1966 l 1,17,18
 42 1837 42 1837 38 1722 c 1,19,20
 32 1646 32 1646 -11 1630 c 1,21,22
 -54 1621 -54 1621 -88 1640 c 0,23,24
 -91 1642 -91 1642 -101 1651 c 0,25,26
 -124 1672 -124 1672 -132 1670 c 1,27,28
 -137 1666 -137 1666 -141 1645 c 1,29,30
 -157 1592 -157 1592 -164 1579 c 0,31,32
 -191 1534 -191 1534 -242 1533 c 0,33,34
 -259 1533 -259 1533 -274 1540 c 0,35,36
 -280 1543 -280 1543 -304 1567 c 0,37,38
 -311 1573 -311 1573 -314 1576 c 0,39,40
 -322 1580 -322 1580 -337 1580 c 0,41,42
 -357 1581 -357 1581 -366 1588 c 0,43,44
 -396 1608 -396 1608 -418 1653 c 0,45,46
 -463 1745 -463 1745 -462 1840 c 0,47,48
 -460 1908 -460 1908 -417 1916 c 1,49,-1
 -416 1909 l 1,50,-1
 -396 1916 l 1,51,-1
 -394 1909 l 1,52,-1
 -374 1916 l 1,53,-1
 -372 1893 l 1,54,55
 -366 1888 -366 1888 -367 1871 c 2,56,-1
 -367 1870 l 1,57,-1
 -361 1852 l 1,58,-1
 -354 1807 l 1,59,60
 -342 1824 -342 1824 -322 1827 c 1,61,-1
 -316 1781 l 1,62,63
 -310 1789 -310 1789 -306.5 1800 c 128,-1,64
 -303 1811 -303 1811 -301.5 1817.5 c 128,-1,65
 -300 1824 -300 1824 -300.5 1840 c 128,-1,66
 -301 1856 -301 1856 -301 1859.5 c 128,-1,67
 -301 1863 -301 1863 -303 1884 c 2,68,-1
 -305 1904 l 2,69,70
 -305 1908 -305 1908 -307 1917 c 0,71,72
 -312 1947 -312 1947 -309 1955 c 0,73,74
 -303 1967 -303 1967 -262 1981 c 1,75,-1
 -260 1973 l 1,76,-1
 -240 1981 l 1,77,-1
 -238 1973 l 1,78,-1
 -219 1981 l 1,79,-1
 -194 1914 l 1,80,-1
 -180 1891 l 1,81,-1
 -166 1893 l 1,82,-1
 -156 1860 l 1,0,1
-100 1989 m 1,83,84
 -100 1985 -100 1985 -93 1943 c 0,85,86
 -81 1860 -81 1860 -94 1829 c 0,87,88
 -104 1804 -104 1804 -149 1807 c 0,89,90
 -154 1807 l 0,91,92
 -182 1809 -182 1809 -195 1820 c 0,93,94
 -226 1851 -226 1851 -245 1917 c 1,95,96
 -260 1911 -260 1911 -254 1879 c 0,97,98
 -254 1876 -254 1876 -254 1875 c 0,99,100
 -246 1788 -246 1788 -249 1768 c 1,101,102
 -269 1721 -269 1721 -323 1719 c 1,103,104
 -357 1721 -357 1721 -368 1730 c 1,105,106
 -388 1756 -388 1756 -404 1832 c 1,107,-1
 -406 1832 l 1,108,109
 -417 1747 -417 1747 -373 1678 c 0,110,111
 -347 1635 -347 1635 -322 1627 c 0,112,113
 -308 1624 -308 1624 -282 1644 c 2,114,-1
 -280 1645 l 1,115,116
 -258 1666 -258 1666 -239 1727 c 0,117,118
 -229 1758 -229 1758 -228 1770 c 1,119,-1
 -209 1755 l 1,120,-1
 -207 1770 l 1,121,-1
 -188 1755 l 1,122,-1
 -185 1770 l 1,123,124
 -179 1765 -179 1765 -169 1754 c 0,125,126
 -147 1732 -147 1732 -134 1725 c 0,127,128
 -85 1704 -85 1704 -62 1773 c 1,129,130
 -39 1862 -39 1862 -88 1966 c 0,131,132
 -94 1979 -94 1979 -100 1989 c 1,83,84
EndSplineSet
EndChar

StartChar: afii57458
Encoding: 1618 1618 318
AltUni2: 00fe7e.ffffffff.0
Width: 26
VWidth: 1639
GlyphClass: 2
Flags: HW
AnchorPoint: "GposMark2BaseAnchorHamzaErabAbove_01_01" -246 1523 mark 0
AnchorPoint: "GposMark2BaseAnchorHamzaErabBelow_01_01" -246 2009 mark 0
AnchorPoint: "GposMark2BaseAnchorClassErabAbove_01_02" -246 1523 mark 0
AnchorPoint: "GposMark2MarkAnchorHamzaErabAbove_01_01" -246 1523 mark 0
AnchorPoint: "GposMark2MarkAnchorHamzaErabBelow_01_01" -246 2009 mark 0
AnchorPoint: "GposMark2MarkAnchorShaddaErabAbove_01_02" -246 1523 mark 0
AnchorPoint: "GposMark2MarkAnchorShaddaErabBelow_01_02" -246 2009 mark 0
LayerCount: 2
Fore
SplineSet
-391 2007 m 0,0,1
 -383 2009 -383 2009 -353 2009 c 0,2,3
 -257 2007 -257 2007 -196 1937 c 0,4,5
 -188 1927 -188 1927 -149 1858 c 0,6,7
 -145 1851 -145 1851 -142 1847 c 0,8,9
 -93 1765 -93 1765 -84 1739 c 0,10,11
 -83 1736 -83 1736 -82 1735 c 0,12,13
 -38 1601 -38 1601 -103 1555 c 0,14,15
 -114 1547 -114 1547 -141 1540 c 0,16,17
 -211 1523 -211 1523 -273 1551 c 0,18,19
 -281 1554 -281 1554 -295 1566 c 0,20,21
 -309 1577 -309 1577 -315 1579 c 0,22,23
 -323 1583 -323 1583 -338 1589 c 0,24,25
 -388 1610 -388 1610 -409 1638 c 1,26,27
 -426 1664 -426 1664 -438 1714 c 0,28,29
 -454 1786 -454 1786 -449 1842 c 0,30,31
 -442 1926 -442 1926 -425 1970 c 1,32,33
 -409 2002 -409 2002 -391 2007 c 0,0,1
-191 1834 m 1,34,35
 -224 1906 -224 1906 -289 1942 c 0,36,37
 -297 1946 -297 1946 -303 1948 c 0,38,39
 -340 1961 -340 1961 -348 1958 c 1,40,41
 -363 1949 -363 1949 -376 1909 c 0,42,43
 -389 1870 -389 1870 -397 1783 c 0,44,45
 -400 1738 -400 1738 -394 1717 c 1,46,47
 -368 1644 -368 1644 -294 1628.5 c 128,-1,48
 -220 1613 -220 1613 -180 1662 c 0,49,50
 -166 1679 -166 1679 -162 1702 c 1,51,52
 -233 1680 -233 1680 -247 1679 c 0,53,54
 -301 1679 -301 1679 -321 1686 c 0,55,56
 -353 1697 -353 1697 -367 1714 c 0,57,58
 -373 1722 -373 1722 -381 1760 c 0,59,60
 -395 1837 -395 1837 -369 1875 c 1,61,62
 -359 1884 -359 1884 -322 1883 c 0,63,64
 -229 1881 -229 1881 -192 1834 c 1,65,-1
 -191 1834 l 1,34,35
-189 1832 m 1,66,-1
 -190 1830 l 1,67,-1
 -189 1832 l 1,66,-1
-291 1732 m 1,68,69
 -263 1722 -263 1722 -223 1743 c 0,70,71
 -209 1752 -209 1752 -209 1763 c 1,72,73
 -216 1792 -216 1792 -247 1796 c 0,74,75
 -259 1797 -259 1797 -268 1793 c 0,76,77
 -279 1787 -279 1787 -284 1768 c 0,78,79
 -289 1752 -289 1752 -291 1732 c 1,68,69
EndSplineSet
EndChar

StartChar: uni0654
Encoding: 1620 1620 320
Width: 102
VWidth: 1639
GlyphClass: 2
Flags: HW
AnchorPoint: "GposMark2BaseAnchorClassErabAbove_01_02" -218.5 1534 mark 0
AnchorPoint: "GposMark2MarkAnchorHamzaErabAbove_01_01" -218.5 2185 basemark 0
AnchorPoint: "GposMark2MarkAnchorHamzaErabBelow_01_01" -218.5 1384 basemark 0
LayerCount: 2
Fore
SplineSet
-361 1717 m 1,0,1
 -424 1740 -424 1740 -438 1825 c 0,2,3
 -442 1850 -442 1850 -439 1871 c 0,4,5
 -426 1955 -426 1955 -348 2006 c 0,6,7
 -321 2023 -321 2023 -294 2030 c 0,8,9
 -285 2032 -285 2032 -275 2033.5 c 128,-1,10
 -265 2035 -265 2035 -260.5 2035 c 128,-1,11
 -256 2035 -256 2035 -239 2035 c 2,12,-1
 -222 2035 l 1,13,14
 -189 2033 -189 2033 -174 2017 c 1,15,16
 -161 2000 -161 2000 -148 1945 c 1,17,18
 -114 1938 -114 1938 -102 1889 c 0,19,20
 -94 1852 -94 1852 -111 1837 c 0,21,22
 -127 1824 -127 1824 -174 1847 c 0,23,24
 -195 1857 -195 1857 -206 1858 c 0,25,26
 -225 1860 -225 1860 -259 1835 c 0,27,28
 -264 1831 -264 1831 -268 1829 c 1,29,-1
 -267 1827 l 1,30,31
 -205 1807 -205 1807 -120 1830 c 0,32,33
 -100 1836 -100 1836 -72 1834 c 0,34,35
 -56 1833 -56 1833 -55 1832 c 0,36,37
 -51 1827 -51 1827 -47 1811 c 0,38,39
 -38 1769 -38 1769 -38 1738 c 1,40,41
 -36 1738 -36 1738 -31 1741 c 0,42,43
 -9 1750 -9 1750 -2 1743 c 0,44,45
 4 1738 4 1738 4 1724 c 0,46,47
 5 1674 5 1674 0 1667 c 0,48,49
 -2 1665 l 0,50,51
 -8 1662 -8 1662 -73 1644 c 0,52,53
 -76 1643 -76 1643 -77 1643 c 0,54,55
 -192 1603 -192 1603 -238 1569 c 0,56,57
 -275 1540 -275 1540 -284 1537 c 1,58,59
 -301 1534 -301 1534 -309 1538 c 1,60,61
 -318 1549 -318 1549 -312 1565 c 0,62,63
 -307 1575 -307 1575 -281 1610 c 1,64,65
 -287 1606 -287 1606 -298 1597 c 0,66,67
 -315 1583 -315 1583 -326 1579 c 0,68,69
 -334 1577 -334 1577 -365 1578 c 0,70,71
 -388 1579 -388 1579 -392 1581 c 0,72,73
 -402 1589 -402 1589 -405 1624 c 0,74,75
 -405 1627 -405 1627 -407 1632 c 0,76,77
 -410 1639 -410 1639 -409 1643 c 0,78,79
 -407 1666 -407 1666 -367 1710 c 0,80,81
 -363 1715 -363 1715 -361 1717 c 1,0,1
-310 1947 m 1,82,83
 -253 1947 -253 1947 -242 1943 c 0,84,85
 -239 1942 -239 1942 -229 1937 c 0,86,87
 -209 1927 -209 1927 -204 1929 c 0,88,89
 -183 1939 -183 1939 -205 1969 c 0,90,91
 -215 1981 -215 1981 -225 1986 c 0,92,93
 -225 1988 -225 1988 -231 1987 c 128,-1,94
 -237 1986 -237 1986 -237.5 1986 c 128,-1,95
 -238 1986 -238 1986 -244 1984 c 2,96,-1
 -250 1983 l 1,97,98
 -297 1967 -297 1967 -310 1947 c 1,82,83
-282 1893 m 1,99,100
 -309 1879 -309 1879 -310 1861 c 1,101,-1
 -282 1891 l 1,102,-1
 -282 1893 l 1,99,100
-362 1883 m 1,103,104
 -387 1856 -387 1856 -387 1822 c 0,105,106
 -387 1816 -387 1816 -386 1812 c 0,107,108
 -382 1805 -382 1805 -367 1789 c 1,109,110
 -331 1757 -331 1757 -300 1747 c 1,111,-1
 -307 1729 l 1,112,-1
 -295 1724 l 1,113,-1
 -302 1706 l 1,114,-1
 -290 1701 l 1,115,-1
 -298 1683 l 1,116,117
 -229 1715 -229 1715 -146 1738 c 0,118,119
 -105 1751 -105 1751 -101 1756 c 0,120,121
 -93 1766 -93 1766 -91 1778 c 1,122,123
 -108 1777 -108 1777 -142 1773 c 0,124,125
 -221 1765 -221 1765 -263 1771 c 1,126,127
 -332 1785 -332 1785 -354 1840 c 0,128,129
 -359 1856 -359 1856 -362 1883 c 1,103,104
-276 1615 m 1,130,-1
 -282 1612 l 1,131,-1
 -281 1610 l 1,132,-1
 -276 1614 l 1,133,-1
 -276 1615 l 1,130,-1
EndSplineSet
EndChar

StartChar: uni0655
Encoding: 1621 1621 321
Width: 103
VWidth: 1639
GlyphClass: 2
Flags: HW
AnchorPoint: "GposMark2BaseAnchorClassErabBelow_01_02" 80 -125 mark 0
LayerCount: 2
Fore
SplineSet
-62 -443 m 1,0,1
 -125 -420 -125 -420 -139 -335 c 0,2,3
 -143 -310 -143 -310 -141 -289 c 0,4,5
 -128 -205 -128 -205 -50 -154 c 0,6,7
 -23 -137 -23 -137 4 -130 c 0,8,9
 13 -128 13 -128 23.5 -126.5 c 128,-1,10
 34 -125 34 -125 38.5 -125 c 128,-1,11
 43 -125 43 -125 59 -125 c 2,12,-1
 76 -125 l 1,13,14
 109 -127 109 -127 125 -143 c 1,15,16
 138 -160 138 -160 150 -215 c 1,17,18
 184 -222 184 -222 196 -270 c 0,19,20
 204 -307 204 -307 188 -323 c 0,21,22
 172 -336 172 -336 124 -313 c 0,23,24
 103 -303 103 -303 93 -302 c 0,25,26
 74 -300 74 -300 39 -325 c 0,27,28
 34 -329 34 -329 31 -331 c 1,29,-1
 31 -333 l 1,30,31
 93 -353 93 -353 178 -330 c 0,32,33
 198 -324 198 -324 227 -326 c 0,34,35
 243 -327 243 -327 244 -328 c 0,36,37
 248 -333 248 -333 252 -349 c 0,38,39
 261 -391 261 -391 261 -421 c 1,40,41
 263 -421 263 -421 268 -419 c 0,42,43
 290 -412 290 -412 296 -417 c 0,44,45
 302 -422 302 -422 302 -436 c 0,46,47
 303 -486 303 -486 299 -493 c 0,48,49
 297 -495 297 -495 296 -495 c 0,50,51
 290 -498 290 -498 226 -515 c 0,52,53
 223 -516 223 -516 222 -517 c 0,54,55
 107 -557 107 -557 60 -590 c 1,56,57
 24 -619 24 -619 14 -623 c 1,58,59
 -3 -626 -3 -626 -10 -622 c 1,60,61
 -19 -611 -19 -611 -13 -595 c 0,62,63
 -8 -585 -8 -585 17 -549 c 1,64,65
 11 -553 11 -553 0 -563 c 0,66,67
 -16 -577 -16 -577 -27 -581 c 0,68,69
 -35 -583 -35 -583 -67 -582 c 0,70,71
 -90 -581 -90 -581 -93 -579 c 0,72,73
 -103 -571 -103 -571 -106 -536 c 0,74,75
 -106 -533 -106 -533 -109 -528 c 0,76,77
 -111 -520 -111 -520 -111 -517 c 0,78,79
 -109 -494 -109 -494 -68 -450 c 0,80,81
 -64 -445 -64 -445 -62 -443 c 1,0,1
-12 -213 m 1,82,83
 45 -213 45 -213 56 -216 c 0,84,85
 59 -217 59 -217 69 -223 c 0,86,87
 89 -234 89 -234 95 -231 c 0,88,89
 116 -221 116 -221 94 -191 c 0,90,91
 84 -179 84 -179 74 -174 c 0,92,93
 74 -172 74 -172 68 -173 c 128,-1,94
 62 -174 62 -174 61 -174 c 128,-1,95
 60 -174 60 -174 54 -175 c 2,96,-1
 49 -177 l 1,97,98
 1 -193 1 -193 -12 -213 c 1,82,83
16 -267 m 1,99,100
 -11 -281 -11 -281 -12 -298 c 1,101,-1
 17 -269 l 1,102,-1
 16 -267 l 1,99,100
-64 -277 m 1,103,104
 -89 -304 -89 -304 -89 -338 c 0,105,106
 -89 -344 -89 -344 -87 -348 c 0,107,108
 -83 -355 -83 -355 -68 -371 c 1,109,110
 -32 -403 -32 -403 -2 -413 c 1,111,-1
 -9 -431 l 1,112,-1
 3 -436 l 1,113,-1
 -3 -454 l 1,114,-1
 9 -459 l 1,115,-1
 1 -477 l 1,116,117
 70 -445 70 -445 152 -421 c 0,118,119
 193 -408 193 -408 198 -404 c 0,120,121
 206 -394 206 -394 207 -382 c 1,122,123
 190 -383 190 -383 157 -387 c 0,124,125
 78 -395 78 -395 35 -389 c 1,126,127
 -34 -375 -34 -375 -56 -320 c 0,128,129
 -61 -304 -61 -304 -64 -277 c 1,103,104
22 -544 m 1,130,-1
 17 -548 l 1,131,-1
 17 -549 l 1,132,-1
 23 -546 l 1,133,-1
 22 -544 l 1,130,-1
EndSplineSet
EndChar

StartChar: uni0656
Encoding: 1622 1622 322
Width: 82
VWidth: 1639
GlyphClass: 2
Flags: HW
AnchorPoint: "GposMark2BaseAnchorClassErabBelow_01_02" 80.5 -120 mark 0
LayerCount: 2
Fore
SplineSet
120 -646 m 1,0,1
 110 -661 110 -661 105 -658 c 0,2,3
 102 -656 102 -656 100 -651 c 128,-1,4
 98 -646 98 -646 96 -638 c 2,5,-1
 95 -630 l 1,6,7
 88 -601 88 -601 71 -549 c 0,8,9
 56 -504 56 -504 19 -415 c 0,10,11
 -34 -284 -34 -284 -51 -220 c 0,12,13
 -60 -184 -60 -184 -40 -151 c 1,14,15
 -24 -120 -24 -120 -15 -138 c 0,16,17
 -14 -140 -14 -140 -13 -141 c 1,18,19
 1 -127 1 -127 8 -141 c 1,20,21
 17 -128 17 -128 23 -131 c 0,22,23
 30 -137 30 -137 35 -156 c 1,24,25
 55 -206 55 -206 61 -230 c 1,26,27
 70 -217 70 -217 75 -220 c 0,28,29
 82 -225 82 -225 87 -243 c 0,30,31
 91 -254 91 -254 99 -276 c 0,32,33
 107 -299 107 -299 111 -308 c 0,34,35
 123 -342 123 -342 146 -408 c 0,36,37
 169 -475 169 -475 180 -508 c 0,38,39
 183 -518 183 -518 192 -541 c 0,40,41
 208 -582 208 -582 212 -600 c 0,42,43
 221 -655 221 -655 208 -682 c 1,44,45
 195 -700 195 -700 196 -700 c 1,46,47
 193 -702 193 -702 189 -700 c 0,48,49
 184 -696 184 -696 182 -682 c 0,50,51
 180 -674 180 -674 176 -658 c 0,52,53
 171 -641 171 -641 169 -633 c 1,54,-1
 168 -633 l 1,55,56
 164 -652 164 -652 152 -657 c 0,57,58
 145 -660 145 -660 142 -646 c 1,59,60
 125 -660 125 -660 120 -646 c 1,0,1
6 -212 m 1,61,62
 -9 -227 -9 -227 20 -289 c 0,63,64
 24 -297 24 -297 26 -302 c 0,65,66
 35 -327 35 -327 56 -378 c 0,67,68
 105 -496 105 -496 119 -554 c 1,69,-1
 121 -554 l 1,70,71
 122 -530 122 -530 90 -450 c 0,72,73
 88 -445 88 -445 87 -441 c 0,74,75
 78 -416 78 -416 61 -364 c 0,76,77
 28 -260 28 -260 6 -212 c 1,61,62
EndSplineSet
EndChar

StartChar: uni0670
Encoding: 1648 1648 326
Width: 82
VWidth: 1639
GlyphClass: 2
Flags: HW
AnchorPoint: "GposMark2BaseAnchorHamzaErabAbove_01_01" -284.5 1537 mark 0
AnchorPoint: "GposMark2BaseAnchorHamzaErabBelow_01_01" -284.5 2119 mark 0
AnchorPoint: "GposMark2BaseAnchorClassErabAbove_01_02" -284.5 1537 mark 0
AnchorPoint: "GposMark2MarkAnchorHamzaErabAbove_01_01" -284.5 1537 mark 0
AnchorPoint: "GposMark2MarkAnchorHamzaErabBelow_01_01" -284.5 2119 mark 0
AnchorPoint: "GposMark2MarkAnchorShaddaErabAbove_01_02" -284.5 1537 mark 0
AnchorPoint: "GposMark2MarkAnchorShaddaErabBelow_01_02" -284.5 2119 mark 0
LayerCount: 2
Fore
SplineSet
-244 1592 m 1,0,1
 -254 1577 -254 1577 -260 1581 c 0,2,3
 -263 1583 -263 1583 -265 1587.5 c 128,-1,4
 -267 1592 -267 1592 -268 1601 c 2,5,-1
 -270 1609 l 1,6,7
 -277 1638 -277 1638 -294 1689 c 0,8,9
 -309 1734 -309 1734 -346 1823 c 0,10,11
 -399 1953 -399 1953 -416 2019 c 0,12,13
 -425 2055 -425 2055 -404 2088 c 1,14,15
 -388 2119 -388 2119 -379 2101 c 0,16,17
 -378 2098 l 1,18,19
 -364 2112 -364 2112 -356 2098 c 1,20,21
 -347 2111 -347 2111 -342 2107 c 0,22,23
 -335 2101 -335 2101 -330 2083 c 1,24,25
 -310 2033 -310 2033 -304 2009 c 1,26,27
 -295 2022 -295 2022 -289 2019 c 0,28,29
 -282 2014 -282 2014 -278 1996 c 0,30,31
 -274 1985 -274 1985 -266 1963 c 0,32,33
 -258 1940 -258 1940 -254 1930 c 0,34,35
 -242 1896 -242 1896 -219 1830 c 0,36,37
 -196 1763 -196 1763 -185 1730 c 0,38,39
 -182 1720 -182 1720 -172 1698 c 0,40,41
 -156 1657 -156 1657 -153 1638 c 0,42,43
 -144 1583 -144 1583 -157 1556 c 1,44,45
 -170 1538 -170 1538 -169 1539 c 1,46,47
 -172 1537 -172 1537 -175 1538 c 0,48,49
 -180 1542 -180 1542 -183 1556 c 0,50,51
 -185 1564 -185 1564 -189 1581 c 0,52,53
 -194 1598 -194 1598 -196 1606 c 1,54,-1
 -197 1606 l 1,55,56
 -201 1587 -201 1587 -213 1582 c 0,57,58
 -220 1579 -220 1579 -223 1592 c 1,59,60
 -239 1578 -239 1578 -244 1592 c 1,0,1
-358 2027 m 1,61,62
 -373 2012 -373 2012 -345 1949 c 0,63,64
 -341 1941 -341 1941 -339 1937 c 0,65,66
 -330 1912 -330 1912 -308 1861 c 0,67,68
 -259 1743 -259 1743 -246 1684 c 1,69,-1
 -244 1684 l 1,70,71
 -243 1708 -243 1708 -275 1788 c 0,72,73
 -277 1794 -277 1794 -278 1797 c 0,74,75
 -287 1822 -287 1822 -303 1875 c 0,76,77
 -336 1979 -336 1979 -358 2027 c 1,61,62
EndSplineSet
EndChar

StartChar: uni0674
Encoding: 1652 1652 327
Width: 107
GlyphClass: 2
Flags: HW
AnchorPoint: "GposMark2BaseAnchorClassErabAbove_01_02" 51 1014 mark 0
AnchorPoint: "GposMark2MarkAnchorHamzaErabAbove_01_01" 51 1579 basemark 0
AnchorPoint: "GposMark2MarkAnchorHamzaErabBelow_01_01" 51 864 basemark 0
LayerCount: 2
Fore
SplineSet
220 1178 m 2,0,1
 220 1160 220 1160 217 1145 c 128,-1,2
 214 1130 214 1130 209 1129 c 0,3,4
 167 1118 167 1118 132 1109 c 128,-1,5
 97 1100 97 1100 81 1095 c 0,6,7
 41 1082 41 1082 6 1062 c 128,-1,8
 -29 1042 -29 1042 -56 1018 c 1,9,10
 -59 1014 -59 1014 -63 1014 c 0,11,12
 -66 1014 -66 1014 -71.5 1018 c 128,-1,13
 -77 1022 -77 1022 -77 1025 c 256,14,15
 -78 1028 -78 1028 -74 1032 c 1,16,-1
 -74 1031 l 1,17,18
 -68 1051 -68 1051 -50 1076 c 128,-1,19
 -32 1101 -32 1101 -3 1136 c 1,20,21
 -93 1171 -93 1171 -107 1233 c 0,22,23
 -118 1282 -118 1282 -66 1355 c 1,24,25
 -11 1429 -11 1429 48 1429 c 0,26,27
 58 1429 58 1429 70.5 1425.5 c 128,-1,28
 83 1422 83 1422 94 1415.5 c 128,-1,29
 105 1409 105 1409 113 1400.5 c 128,-1,30
 121 1392 121 1392 123 1382 c 0,31,32
 126 1368 126 1368 126 1353.5 c 128,-1,33
 126 1339 126 1339 123.5 1327 c 128,-1,34
 121 1315 121 1315 115.5 1307.5 c 128,-1,35
 110 1300 110 1300 103 1300 c 0,36,37
 99 1300 99 1300 90.5 1307.5 c 128,-1,38
 82 1315 82 1315 70.5 1323.5 c 128,-1,39
 59 1332 59 1332 45.5 1339.5 c 128,-1,40
 32 1347 32 1347 19 1347 c 256,41,42
 6 1347 6 1347 -7 1339.5 c 128,-1,43
 -20 1332 -20 1332 -30.5 1321.5 c 128,-1,44
 -41 1311 -41 1311 -46.5 1299 c 128,-1,45
 -52 1287 -52 1287 -50 1277 c 0,46,47
 -46 1259 -46 1259 -31.5 1244 c 128,-1,48
 -17 1229 -17 1229 3 1218 c 128,-1,49
 23 1207 23 1207 46.5 1201 c 128,-1,50
 70 1195 70 1195 93 1195 c 0,51,52
 96 1195 96 1195 114 1200 c 128,-1,53
 132 1205 132 1205 154 1210.5 c 128,-1,54
 176 1216 176 1216 195.5 1221 c 128,-1,55
 215 1226 215 1226 219 1226 c 1,56,-1
 220 1178 l 2,0,1
EndSplineSet
EndChar

StartChar: afii57388
Encoding: 1548 1548 329
Width: 610
VWidth: 1639
GlyphClass: 2
Flags: W
LayerCount: 2
Fore
SplineSet
250 192 m 1,0,1
 334 152 334 152 361 110 c 0,2,3
 365 103 365 103 367 88 c 0,4,5
 371 70 371 70 376 62 c 0,6,7
 381 55 381 55 394 42 c 0,8,9
 414 20 414 20 420 7 c 1,10,11
 425 -12 425 -12 416 -38 c 0,12,13
 381 -123 381 -123 334 -125 c 0,14,15
 314 -125 314 -125 273 -97 c 0,16,17
 259 -88 259 -88 251 -84 c 0,18,19
 246 -82 246 -82 235 -79 c 0,20,21
 223 -76 223 -76 218 -74 c 0,22,23
 167 -50 167 -50 127 -3 c 0,24,25
 83 50 83 50 62 141 c 0,26,27
 51 192 51 192 52 216 c 0,28,29
 55 266 55 266 86 335 c 0,30,31
 116 404 116 404 146 425 c 0,32,33
 169 441 169 441 215 438 c 0,34,35
 238 437 238 437 239 436 c 0,36,37
 249 429 249 429 254 407 c 0,38,39
 264 366 264 366 257 351 c 0,40,41
 255 347 255 347 253 344 c 1,42,43
 290 357 290 357 303 339 c 1,44,45
 307 331 307 331 306 321 c 0,46,47
 304 310 304 310 279 277 c 1,48,49
 256 232 256 232 250 192 c 1,0,1
179 356 m 1,50,51
 165 343 165 343 140 292 c 1,52,53
 103 201 103 201 107 155 c 0,54,55
 110 125 110 125 122 98 c 1,56,57
 154 37 154 37 215 -7 c 0,58,59
 246 -29 246 -29 257 -30 c 0,60,61
 266 -30 266 -30 281 -13 c 0,62,63
 318 32 318 32 324 62 c 0,64,65
 326 73 326 73 300 97 c 2,66,-1
 298 98 l 2,67,68
 287 108 287 108 234 138 c 0,69,70
 210 152 210 152 197 164 c 0,71,72
 158 204 158 204 155 274 c 0,73,74
 154 286 154 286 156 295 c 0,75,76
 158 304 158 304 179 356 c 1,50,51
253 344 m 1,77,-1
 252 343 l 1,78,-1
 253 344 l 1,77,-1
EndSplineSet
EndChar

StartChar: afii57403
Encoding: 1563 1563 334
Width: 614
VWidth: 1639
GlyphClass: 2
Flags: W
LayerCount: 2
Fore
SplineSet
162 746 m 1,0,1
 193 760 193 760 209 745 c 0,2,3
 214 739 214 739 215 733 c 0,4,5
 216 720 216 720 199 697 c 1,6,7
 174 657 174 657 165 628 c 0,8,9
 157 601 157 601 159 592 c 0,10,11
 162 584 162 584 183 579 c 2,12,-1
 185 579 l 1,13,14
 226 566 226 566 247 548 c 1,15,16
 268 528 268 528 278 499 c 1,17,-1
 284 474 l 1,18,19
 287 471 287 471 302 456 c 0,20,21
 319 438 319 438 325 423 c 0,22,23
 352 364 352 364 288 301 c 0,24,25
 280 293 280 293 272 287 c 0,26,27
 241 263 241 263 190 295 c 0,28,29
 185 298 185 298 176 305 c 0,30,31
 164 314 164 314 158.5 316.5 c 128,-1,32
 153 319 153 319 140 322 c 0,33,34
 131 324 131 324 128 325 c 0,35,36
 99 339 99 339 65 367 c 0,37,38
 -4 428 -4 428 -30 541 c 0,39,40
 -44 605 -44 605 -38 641 c 0,41,42
 -23 713 -23 713 14 777 c 0,43,44
 40 821 40 821 65 835 c 0,45,46
 78 840 78 840 128 840 c 0,47,48
 149 839 149 839 155 835 c 1,49,50
 161 830 161 830 163 812 c 0,51,52
 174 765 174 765 162 746 c 1,0,1
91 764 m 1,53,54
 79 753 79 753 57 712 c 0,55,56
 0 598 0 598 19 529 c 0,57,58
 22 518 22 518 26 510 c 0,59,60
 57 441 57 441 121 395 c 0,61,62
 154 371 154 371 166 371 c 1,63,64
 176 372 176 372 191 389 c 0,65,66
 232 434 232 434 237 467 c 1,67,68
 237 484 237 484 208 507 c 0,69,70
 197 515 197 515 147 535 c 0,71,72
 121 546 121 546 107 559 c 0,73,74
 67 600 67 600 63 673 c 0,75,76
 62 688 62 688 65 699 c 0,77,78
 67 708 67 708 91 764 c 1,53,54
171 216 m 0,79,80
 174 217 174 217 187 216 c 2,81,-1
 223 216 l 1,82,83
 246 209 246 209 299 161 c 0,84,85
 341 121 341 121 349 107 c 0,86,87
 354 100 354 100 357 84 c 0,88,89
 360 69 360 69 364 62 c 0,90,91
 366 58 366 58 392 32 c 0,92,93
 405 17 405 17 408 5 c 1,94,95
 409 -12 409 -12 397 -34 c 0,96,97
 356 -107 356 -107 327 -116 c 0,98,99
 312 -121 312 -121 277 -92 c 0,100,101
 260 -79 260 -79 251 -75 c 0,102,103
 247 -73 247 -73 238 -74 c 0,104,105
 228 -74 228 -74 224 -72 c 0,106,107
 189 -53 189 -53 135 -2 c 0,108,109
 108 26 108 26 101 39 c 0,110,111
 95 53 95 53 92 79 c 1,112,-1
 86 102 l 1,113,114
 90 125 90 125 122 171 c 0,115,116
 152 211 152 211 171 216 c 0,79,80
209 159 m 0,117,118
 201 158 201 158 191 144 c 0,119,120
 171 119 171 119 155 93 c 1,121,122
 145 69 145 69 146 67 c 0,123,124
 154 52 154 52 200 15 c 0,125,126
 238 -17 238 -17 247 -18 c 1,127,128
 251 -17 251 -17 264 -2 c 0,129,130
 284 24 284 24 297 48 c 0,131,132
 307 65 307 65 307 72 c 0,133,134
 304 83 304 83 264 118 c 0,135,136
 260 121 260 121 258 123 c 0,137,138
 221 159 221 159 209 159 c 0,117,118
EndSplineSet
EndChar

StartChar: afii57407
Encoding: 1567 1567 335
Width: 884
VWidth: 1639
GlyphClass: 2
Flags: W
LayerCount: 2
Fore
SplineSet
234 438 m 1,0,1
 283 509 283 509 293 546 c 1,2,3
 301 583 301 583 300 590 c 0,4,5
 292 612 292 612 258 651 c 0,6,7
 222 690 222 690 120 772 c 0,8,9
 107 783 107 783 79 806 c 0,10,11
 -16 882 -16 882 -57 925 c 0,12,13
 -159 1040 -159 1040 -174 1175 c 0,14,15
 -180 1239 -180 1239 -162 1289 c 0,16,17
 -113 1425 -113 1425 66 1430 c 0,18,19
 128 1431 128 1431 191 1415 c 0,20,21
 260 1398 260 1398 312 1368 c 0,22,23
 344 1348 344 1348 353 1335 c 0,24,25
 354 1332 354 1332 356 1319 c 0,26,27
 357 1314 357 1314 360 1303 c 0,28,29
 366 1285 366 1285 367 1278 c 1,30,31
 398 1264 398 1264 408 1243 c 1,32,33
 410 1236 410 1236 402 1205 c 0,34,35
 393 1167 393 1167 374 1118 c 0,36,37
 373 1115 373 1115 370 1109 c 0,38,39
 363 1092 363 1092 359 1087 c 1,40,41
 353 1085 353 1085 335 1097 c 1,42,43
 304 1114 304 1114 273 1127 c 0,44,45
 173 1166 173 1166 117 1117 c 0,46,47
 101 1102 101 1102 91 1082 c 0,48,49
 75 1047 75 1047 89 1020 c 0,50,51
 98 1003 98 1003 146 958 c 0,52,53
 172 933 172 933 226 885 c 0,54,55
 271 845 271 845 293 825 c 0,56,57
 362 757 362 757 392 713 c 0,58,59
 400 701 400 701 412 677 c 0,60,61
 421 658 421 658 426 649 c 0,62,63
 479 561 479 561 489 530 c 0,64,65
 493 517 493 517 495 505 c 0,66,67
 514 385 514 385 426 282 c 0,68,69
 423 279 423 279 422 277 c 1,70,-1
 421 277 l 1,71,-1
 378 310 l 1,72,-1
 359 320 l 1,73,-1
 357 320 l 1,74,75
 345 328 345 328 338 320 c 1,76,-1
 336 320 l 1,77,-1
 245 390 l 1,78,-1
 245 392 l 1,79,-1
 252 405 l 1,80,-1
 240 413 l 1,81,-1
 239 415 l 1,82,-1
 247 428 l 1,83,-1
 234 436 l 1,84,-1
 234 438 l 1,0,1
305 415 m 1,85,86
 335 390 335 390 342 389 c 1,87,88
 352 392 352 392 370 430 c 0,89,90
 420 524 420 524 398 594 c 1,91,92
 364 691 364 691 230 810 c 0,93,94
 108 918 108 918 100 925 c 0,95,96
 -17 1046 -17 1046 -11 1143 c 1,97,98
 -4 1232 -4 1232 117 1234 c 0,99,100
 155 1234 155 1234 191 1225 c 0,101,102
 220 1217 220 1217 244 1205 c 0,103,104
 269 1194 269 1194 270 1194 c 0,105,106
 275 1196 275 1196 283 1217 c 0,107,108
 294 1245 294 1245 303 1278 c 1,109,110
 307 1300 307 1300 306 1302 c 0,111,112
 302 1313 302 1313 272 1327 c 2,113,-1
 269 1328 l 1,114,115
 222 1354 222 1354 146 1373 c 0,116,117
 24 1402 24 1402 -60 1319 c 0,118,119
 -95 1283 -95 1283 -112 1237 c 0,120,121
 -134 1167 -134 1167 -112 1105 c 1,122,123
 -68 997 -68 997 74 881 c 0,124,125
 92 866 92 866 129 837 c 0,126,127
 184 793 184 793 209 772 c 0,128,129
 294 699 294 699 319 659 c 0,130,131
 326 648 326 648 331 638 c 0,132,133
 338 622 338 622 348 579 c 1,134,135
 353 540 353 540 353 538 c 0,136,137
 353 503 353 503 319 443 c 0,138,139
 310 426 310 426 305 415 c 1,85,86
339 256 m 1,140,141
 379 260 379 260 397 253 c 0,142,143
 427 243 427 243 483 189 c 2,144,-1
 486 187 l 2,145,146
 531 145 531 145 547 121 c 0,147,148
 552 114 552 114 555 99 c 0,149,150
 559 84 559 84 563 77 c 0,151,152
 568 69 568 69 582 54 c 0,153,154
 605 27 605 27 609 11 c 1,155,156
 612 -21 612 -21 569 -80 c 0,157,158
 567 -83 567 -83 566 -84 c 0,159,160
 533 -130 533 -130 511 -134 c 0,161,162
 492 -137 492 -137 458 -109 c 0,163,164
 441 -96 441 -96 431 -92 c 0,165,166
 426 -91 426 -91 418 -90 c 0,167,168
 405 -88 405 -88 399 -85 c 0,169,170
 377 -74 377 -74 340 -43 c 0,171,172
 266 22 266 22 248 59 c 0,173,174
 244 67 244 67 237 100 c 0,175,176
 237 104 237 104 235 111 c 0,177,178
 233 121 233 121 233 125 c 0,179,180
 237 155 237 155 280 205 c 0,181,182
 321 251 321 251 339 256 c 1,140,141
431 -39 m 1,183,184
 463 -7 463 -7 492 36 c 1,185,186
 510 69 510 69 510 77 c 0,187,188
 509 86 509 86 487 108 c 0,189,190
 450 148 450 148 410 179 c 0,191,192
 384 200 384 200 376 200 c 1,193,194
 363 197 363 197 334 159 c 0,195,196
 310 128 310 128 299 112 c 0,197,198
 291 98 291 98 291 90 c 0,199,200
 292 85 292 85 296 78.5 c 128,-1,201
 300 72 300 72 304 69 c 128,-1,202
 308 66 308 66 315 58 c 2,203,-1
 322 51 l 1,204,205
 387 -15 387 -15 431 -39 c 1,183,184
EndSplineSet
EndChar

StartChar: afii57409
Encoding: 1569 1569 336
AltUni2: 00fe80.ffffffff.0
Width: 754
VWidth: 1639
GlyphClass: 2
Flags: HW
AnchorPoint: "GposMark2BaseAnchorHamzaErabAbove_01_01" 267 657 basechar 0
AnchorPoint: "GposMark2BaseAnchorHamzaErabBelow_01_01" 267 -314 basechar 0
LayerCount: 2
Fore
SplineSet
151 -90 m 1,0,1
 146 -94 146 -94 136 -103 c 0,2,3
 125 -114 125 -114 119 -118 c 1,4,5
 120 -121 120 -121 108 -120 c 2,6,-1
 96 -118 l 1,7,8
 68 -122 68 -122 57 -116 c 1,9,10
 53 -112 53 -112 51 -93 c 1,11,12
 38 -47 38 -47 54 -3 c 0,13,14
 57 2 57 2 61 12 c 0,15,16
 66 23 66 23 68 28 c 0,17,18
 68 29 68 29 70 32 c 0,19,20
 73 38 73 38 72 39 c 0,21,22
 67 48 67 48 42 61 c 1,23,24
 -8 97 -8 97 -23 121 c 0,25,26
 -31 132 -31 132 -40 172 c 0,27,28
 -55 244 -55 244 22 342 c 0,29,30
 26 347 26 347 34 356 c 0,31,32
 43 367 43 367 47 372 c 0,33,34
 158 507 158 507 298 481 c 0,35,36
 346 471 346 471 370 427 c 0,37,38
 373 422 373 422 375 418 c 0,39,40
 378 413 378 413 380 401 c 0,41,42
 384 384 384 384 389 377 c 0,43,44
 391 374 391 374 408 357 c 0,45,46
 411 354 411 354 413 353 c 0,47,48
 447 311 447 311 425 267 c 1,49,50
 406 233 406 233 377 212 c 1,51,52
 358 201 358 201 349 200 c 0,53,54
 337 201 337 201 296 232 c 0,55,56
 288 238 288 238 283 241 c 0,57,58
 278 244 278 244 271 243 c 0,59,60
 265 243 265 243 261 244 c 0,61,62
 257 245 257 245 250 249 c 0,63,64
 242 253 242 253 239 254 c 0,65,66
 234 256 234 256 229 254.5 c 128,-1,67
 224 253 224 253 217 249.5 c 128,-1,68
 210 246 210 246 207.5 244.5 c 128,-1,69
 205 243 205 243 197 237 c 2,70,-1
 189 231 l 1,71,72
 200 228 200 228 221 220 c 0,73,74
 252 209 252 209 267 205 c 0,75,76
 331 189 331 189 410 200 c 0,77,78
 423 202 423 202 451 205 c 0,79,80
 479 208 479 208 491 210 c 1,81,82
 524 209 524 209 529 207 c 0,83,84
 534 204 534 204 538 186 c 0,85,86
 538 184 538 184 539 182 c 0,87,88
 548 140 548 140 545 118 c 1,89,90
 548 118 548 118 556 120 c 0,91,92
 577 123 577 123 583 116 c 0,93,94
 587 113 587 113 588 108 c 128,-1,95
 589 103 589 103 589 100 c 128,-1,96
 589 97 589 97 589 89 c 2,97,-1
 588 82 l 2,98,99
 586 71 586 71 582 51 c 0,100,101
 577 30 577 30 575 20 c 0,102,103
 570 -5 570 -5 562 -11 c 0,104,105
 546 -21 546 -21 482 -16 c 0,106,107
 466 -15 466 -15 457 -16 c 0,108,109
 304 -38 304 -38 234 -95 c 0,110,111
 221 -105 221 -105 198 -128 c 0,112,113
 182 -143 182 -143 175 -149 c 0,114,115
 158 -164 158 -164 145 -161 c 1,116,117
 136 -156 136 -156 136 -141 c 0,118,119
 138 -130 138 -130 151 -90 c 1,0,1
100 325 m 1,120,121
 166 354 166 354 208 339 c 0,122,123
 225 333 225 333 258 312 c 1,124,125
 273 299 273 299 280 300 c 0,126,127
 303 308 303 308 329 358 c 1,128,129
 337 378 337 378 337 382 c 0,130,131
 328 412 328 412 276 432 c 0,132,133
 273 433 273 433 272 433 c 0,134,135
 252 438 252 438 218 421 c 0,136,137
 132 385 132 385 100 325 c 1,120,121
73 287 m 1,138,139
 48 264 48 264 19 200 c 1,140,141
 9 171 9 171 10 169 c 0,142,143
 11 166 11 166 11 164 c 0,144,145
 16 154 16 154 39 134 c 0,146,147
 87 93 87 93 131 72 c 1,148,-1
 126 54 l 1,149,-1
 137 49 l 1,150,-1
 132 31 l 1,151,-1
 142 26 l 1,152,-1
 122 -20 l 1,153,154
 129 -15 129 -15 141 -5 c 0,155,156
 163 12 163 12 175 20 c 0,157,158
 239 53 239 53 329 67 c 0,159,160
 347 70 347 70 424 74 c 1,161,162
 460 74 460 74 462 74 c 0,163,164
 466 76 466 76 467 77 c 0,165,166
 481 87 481 87 489 150 c 0,167,168
 490 155 490 155 490 157 c 1,169,170
 474 157 474 157 444 152 c 0,171,172
 419 148 419 148 407 148 c 0,173,174
 280 140 280 140 187 174 c 0,175,176
 108 204 108 204 86 236 c 0,177,178
 83 241 83 241 75 279 c 0,179,180
 74 284 74 284 73 287 c 1,138,139
153 -87 m 1,181,-1
 151 -90 l 1,182,-1
 153 -87 l 1,181,-1
EndSplineSet
EndChar

StartChar: afii57410
Encoding: 1570 1570 337
AltUni2: 00fe81.ffffffff.0
Width: 396
VWidth: 1639
GlyphClass: 2
Flags: W
LayerCount: 2
Fore
SplineSet
-530 1645 m 1,0,1
 -549 1688 -549 1688 -543 1737 c 0,2,3
 -541 1768 -541 1768 -526 1796 c 0,4,5
 -512 1823 -512 1823 -498 1837 c 0,6,7
 -465 1865 -465 1865 -396 1865 c 0,8,9
 -352 1865 -352 1865 -219 1834 c 0,10,11
 -178 1825 -178 1825 -151 1820 c 0,12,13
 -88 1813 -88 1813 -48 1850 c 0,14,15
 -44 1854 -44 1854 -36 1864 c 0,16,17
 -23 1881 -23 1881 -16 1886 c 1,18,19
 -9 1884 -9 1884 -6 1873 c 1,20,21
 9 1893 9 1893 16 1873 c 1,22,23
 24 1888 24 1888 31 1886 c 1,24,25
 37 1881 37 1881 36 1870 c 0,26,27
 37 1863 37 1863 42 1848 c 0,28,29
 45 1838 45 1838 46 1834 c 0,30,31
 52 1804 52 1804 35 1752 c 1,32,33
 52 1761 52 1761 68 1784 c 0,34,35
 75 1797 75 1797 83 1797 c 1,36,37
 89 1794 89 1794 88 1783 c 0,38,39
 88 1777 88 1777 84 1742 c 0,40,41
 67 1645 67 1645 12 1625 c 1,42,43
 -17 1618 -17 1618 -104 1630 c 0,44,45
 -130 1634 -130 1634 -183 1646 c 0,46,47
 -295 1670 -295 1670 -346 1670 c 1,48,49
 -376 1668 -376 1668 -418 1625 c 0,50,51
 -437 1605 -437 1605 -445 1602 c 1,52,53
 -456 1629 -456 1629 -440 1688 c 1,54,55
 -444 1684 -444 1684 -453 1673 c 0,56,57
 -474 1649 -474 1649 -487 1645 c 1,58,-1
 -490 1660 l 1,59,-1
 -508 1645 l 1,60,-1
 -512 1660 l 1,61,-1
 -530 1645 l 1,0,1
-6 1873 m 1,62,-1
 -7 1871 l 1,63,-1
 -6 1873 l 1,62,-1
16 1873 m 1,64,-1
 14 1871 l 1,65,-1
 16 1873 l 1,64,-1
-23 1784 m 1,66,67
 -105 1754 -105 1754 -245 1788 c 0,68,69
 -259 1791 -259 1791 -289 1799 c 0,70,71
 -348 1814 -348 1814 -376 1817 c 0,72,73
 -424 1821 -424 1821 -458 1778 c 0,74,75
 -468 1764 -468 1764 -471 1750 c 1,76,77
 -446 1760 -446 1760 -380 1756 c 0,78,79
 -356 1754 -356 1754 -206 1727 c 0,80,81
 -182 1723 -182 1723 -163 1720 c 0,82,83
 -99 1711 -99 1711 -91 1712 c 0,84,85
 -45 1719 -45 1719 -26 1775 c 0,86,87
 -24 1780 -24 1780 -23 1784 c 1,66,67
-439 1689 m 1,88,-1
 -440 1688 l 1,89,-1
 -439 1689 l 1,88,-1
95 -43 m 1,90,91
 89 -33 89 -33 83 -7 c 0,92,93
 77 21 77 21 68 72 c 0,94,95
 44 192 44 192 7 343 c 0,96,97
 -23 462 -23 462 -87 699 c 0,98,99
 -191 1085 -191 1085 -236 1278 c 0,100,101
 -245 1317 -245 1317 -219 1407 c 0,102,103
 -215 1420 -215 1420 -213 1428 c 0,104,105
 -205 1471 -205 1471 -198 1476 c 0,106,107
 -193 1478 -193 1478 -187 1468 c 0,108,109
 -186 1466 -186 1466 -185 1463 c 0,110,111
 -184 1460 -184 1460 -183 1460 c 1,112,113
 -180 1481 -180 1481 -170 1472 c 0,114,115
 -166 1467 -166 1467 -163 1460 c 1,116,-1
 -162 1460 l 1,117,118
 -162 1462 -162 1462 -161 1464 c 0,119,120
 -161 1467 -161 1467 -161 1468 c 0,121,122
 -152 1486 -152 1486 -138 1448 c 0,123,124
 -132 1429 -132 1429 -115 1355 c 1,125,-1
 -113 1355 l 1,126,127
 -113 1382 -113 1382 -103 1387 c 0,128,129
 -100 1389 -100 1389 -96 1386 c 0,130,131
 -91 1379 -91 1379 -89 1366 c 1,132,133
 -84 1353 -84 1353 -74 1309 c 0,134,135
 -69 1288 -69 1288 -58 1244 c 0,136,137
 -37 1157 -37 1157 -24 1115 c 0,138,139
 -19 1099 -19 1099 48 835 c 0,140,141
 55 807 55 807 61 784 c 0,142,143
 135 507 135 507 182 285 c 0,144,145
 219 111 219 111 206 3 c 0,146,147
 196 -72 196 -72 179 -85 c 1,148,149
 167 -57 167 -57 159 5 c 1,150,-1
 157 5 l 1,151,152
 154 -29 154 -29 138 -43 c 1,153,-1
 130 -21 l 1,154,-1
 128 -21 l 1,155,156
 125 -35 125 -35 116 -43 c 1,157,-1
 108 -21 l 1,158,-1
 107 -21 l 1,159,160
 104 -35 104 -35 95 -43 c 1,90,91
-162 1369 m 1,161,162
 -168 1357 -168 1357 -174 1320 c 1,163,164
 -187 1265 -187 1265 -186 1246 c 0,165,166
 -184 1228 -184 1228 -163 1155 c 1,167,168
 -120 989 l 0,169,170
 23 460 23 460 110 85 c 1,171,-1
 111 85 l 1,172,173
 123 253 123 253 48 549 c 0,174,175
 44 566 44 566 38 585 c 0,176,177
 -45 920 -45 920 -90 1091 c 1,178,179
 -133 1243 -133 1243 -162 1369 c 1,161,162
159 8 m 1,180,-1
 158 7 l 1,181,-1
 159 8 l 1,180,-1
EndSplineSet
AlternateSubs2: "gsub_alternate_dfl_aalt_arab_FAR_Lookup_01_Subtable_01" uniFE82 afii57410
Substitution2: "gsub_single_rtl_fina_arab_FAR_Lookup_01_Subtable_01" uniFE82
EndChar

StartChar: uniFE83
Encoding: 1571 1571 339
AltUni2: 00fe83.ffffffff.0
Width: 506
VWidth: 1639
GlyphClass: 2
Flags: W
LayerCount: 2
Fore
SplineSet
164 -43 m 1,0,1
 158 -33 158 -33 153 -7 c 0,2,3
 150 6 150 6 145 33 c 0,4,5
 140 60 140 60 138 72 c 0,6,7
 99 254 99 254 76 344 c 0,8,9
 59 416 59 416 -71 891 c 0,10,11
 -135 1126 -135 1126 -168 1284 c 0,12,13
 -172 1305 -172 1305 -164 1340 c 0,14,15
 -157 1373 -157 1373 -144 1430 c 0,16,17
 -143 1433 -143 1433 -141 1443 c 0,18,19
 -135 1471 -135 1471 -129 1476 c 0,20,21
 -124 1478 -124 1478 -118 1467 c 0,22,23
 -117 1465 -117 1465 -115.5 1462 c 128,-1,24
 -114 1459 -114 1459 -114 1458 c 1,25,26
 -112 1478 -112 1478 -102 1473 c 1,27,28
 -96 1468 -96 1468 -94 1458 c 1,29,-1
 -92 1458 l 1,30,31
 -88 1476 -88 1476 -81 1474 c 1,32,33
 -77 1471 -77 1471 -69 1450 c 0,34,35
 -63 1432 -63 1432 -46 1355 c 1,36,-1
 -44 1355 l 1,37,38
 -44 1378 -44 1378 -35 1386 c 1,39,40
 -30 1387 -30 1387 -26 1384 c 0,41,42
 -17 1373 -17 1373 -7 1320 c 0,43,44
 -5 1312 -5 1312 -4 1307 c 0,45,46
 6 1276 6 1276 55 1077 c 0,47,48
 56 1071 56 1071 57 1068 c 0,49,50
 215 447 215 447 235 358 c 0,51,52
 244 318 244 318 253 280 c 0,53,54
 288 112 288 112 276 2 c 1,55,56
 266 -66 266 -66 255 -80 c 0,57,58
 252 -84 252 -84 249 -85 c 1,59,60
 237 -57 237 -57 228 5 c 1,61,-1
 226 5 l 1,62,63
 222 -32 222 -32 207 -43 c 1,64,-1
 199 -21 l 1,65,-1
 197 -21 l 1,66,67
 194 -35 194 -35 185 -43 c 1,68,-1
 178 -21 l 1,69,-1
 176 -21 l 1,70,71
 173 -35 173 -35 164 -43 c 1,0,1
-93 1368 m 1,72,73
 -98 1355 -98 1355 -104 1323 c 1,74,75
 -118 1269 -118 1269 -117 1246 c 0,76,77
 -115 1228 -115 1228 -95 1159 c 1,78,79
 -52 992 l 1,80,81
 70 540 70 540 128 312 c 0,82,83
 139 267 139 267 159 175 c 0,84,85
 172 114 172 114 179 84 c 1,86,-1
 181 84 l 1,87,88
 181 101 181 101 182 134 c 0,89,90
 184 184 184 184 182 210 c 0,91,92
 168 368 168 368 89 659 c 0,93,94
 72 722 72 722 41 850 c 0,95,96
 9 978 9 978 -8 1040 c 0,97,98
 -67 1257 -67 1257 -93 1368 c 1,72,73
229 7 m 1,99,-1
 228 7 l 1,100,-1
 229 7 l 1,99,-1
-332 1747 m 1,101,102
 -395 1770 -395 1770 -409 1855 c 0,103,104
 -413 1880 -413 1880 -410 1901 c 0,105,106
 -397 1985 -397 1985 -319 2036 c 0,107,108
 -292 2053 -292 2053 -266 2060 c 0,109,110
 -258 2062 -258 2062 -247 2063.5 c 128,-1,111
 -236 2065 -236 2065 -231.5 2065 c 128,-1,112
 -227 2065 -227 2065 -210 2065 c 2,113,-1
 -194 2065 l 2,114,115
 -161 2063 -161 2063 -145 2047 c 1,116,117
 -132 2030 -132 2030 -119 1975 c 1,118,119
 -85 1968 -85 1968 -74 1919 c 0,120,121
 -66 1882 -66 1882 -82 1866 c 0,122,123
 -98 1853 -98 1853 -146 1876 c 0,124,125
 -167 1886 -167 1886 -177 1888 c 0,126,127
 -196 1890 -196 1890 -230 1864 c 0,128,129
 -235 1860 -235 1860 -239 1858 c 1,130,-1
 -238 1856 l 1,131,132
 -176 1836 -176 1836 -91 1860 c 0,133,134
 -71 1866 -71 1866 -43 1863 c 0,135,136
 -27 1862 -27 1862 -26 1861 c 0,137,138
 -22 1856 -22 1856 -18 1840 c 0,139,140
 -9 1798 -9 1798 -9 1768 c 1,141,142
 -7 1768 -7 1768 -2 1770 c 0,143,144
 20 1777 20 1777 26 1773 c 0,145,146
 32 1768 32 1768 32 1753 c 0,147,148
 33 1703 33 1703 29 1697 c 0,149,150
 27 1695 27 1695 26 1694 c 0,151,152
 20 1691 20 1691 -44 1674 c 0,153,154
 -47 1673 -47 1673 -48 1673 c 0,155,156
 -163 1633 -163 1633 -210 1599 c 0,157,158
 -247 1570 -247 1570 -255 1566 c 1,159,160
 -272 1563 -272 1563 -280 1568 c 1,161,162
 -289 1579 -289 1579 -283 1594 c 0,163,164
 -278 1604 -278 1604 -253 1640 c 1,165,166
 -259 1636 -259 1636 -270 1627 c 0,167,168
 -287 1613 -287 1613 -297 1609 c 0,169,170
 -305 1607 -305 1607 -336 1607 c 0,171,172
 -359 1608 -359 1608 -363 1610 c 0,173,174
 -373 1618 -373 1618 -376 1653 c 0,175,176
 -376 1656 -376 1656 -378 1661 c 0,177,178
 -380 1669 -380 1669 -381 1673 c 0,179,180
 -379 1696 -379 1696 -338 1740 c 0,181,182
 -334 1745 -334 1745 -332 1747 c 1,101,102
-281 1976 m 1,183,184
 -224 1976 -224 1976 -214 1973 c 0,185,186
 -211 1972 -211 1972 -201 1967 c 0,187,188
 -181 1957 -181 1957 -175 1958 c 0,189,190
 -154 1968 -154 1968 -176 1999 c 0,191,192
 -186 2011 -186 2011 -196 2016 c 1,193,194
 -203 2017 -203 2017 -221 2012 c 1,195,196
 -268 1996 -268 1996 -281 1976 c 1,183,184
-254 1922 m 1,197,198
 -281 1908 -281 1908 -282 1891 c 1,199,-1
 -253 1920 l 1,200,-1
 -254 1922 l 1,197,198
-334 1912 m 1,201,202
 -359 1885 -359 1885 -358 1851 c 0,203,204
 -358 1846 -358 1846 -357 1842 c 0,205,206
 -353 1835 -353 1835 -338 1819 c 1,207,208
 -302 1787 -302 1787 -272 1776 c 1,209,-1
 -278 1758 l 1,210,-1
 -266 1753 l 1,211,-1
 -273 1735 l 1,212,-1
 -261 1730 l 1,213,-1
 -269 1712 l 1,214,215
 -200 1744 -200 1744 -117 1768 c 0,216,217
 -76 1781 -76 1781 -72 1785 c 0,218,219
 -64 1795 -64 1795 -62 1807 c 1,220,221
 -79 1806 -79 1806 -113 1803 c 0,222,223
 -192 1795 -192 1795 -235 1801 c 1,224,225
 -304 1815 -304 1815 -325 1870 c 0,226,227
 -331 1885 -331 1885 -334 1912 c 1,201,202
-248 1645 m 1,228,-1
 -253 1642 l 1,229,-1
 -253 1640 l 1,230,-1
 -247 1643 l 1,231,-1
 -248 1645 l 1,228,-1
EndSplineSet
AlternateSubs2: "gsub_alternate_dfl_aalt_arab_FAR_Lookup_01_Subtable_01" uniFE84 uniFE83
Substitution2: "gsub_single_rtl_fina_arab_FAR_Lookup_01_Subtable_01" uniFE84
EndChar

StartChar: uniFE84
Encoding: 65156 65156 340
Width: 418
VWidth: 1639
GlyphClass: 2
Flags: W
LayerCount: 2
Fore
SplineSet
462 -66 m 1,0,1
 370 -65 370 -65 311 -39 c 0,2,3
 300 -34 300 -34 280 -22 c 0,4,5
 264 -12 264 -12 256 -8 c 0,6,7
 249 -5 249 -5 235 0 c 0,8,9
 220 5 220 5 214 8 c 0,10,11
 153 41 153 41 108 100 c 0,12,13
 41 189 41 189 -14 379 c 0,14,15
 -16 386 -16 386 -19 399 c 0,16,17
 -24 415 -24 415 -26 421 c 0,18,19
 -50 501 -50 501 -93 663 c 0,20,21
 -137 825 -137 825 -160 905 c 0,22,23
 -201 1043 -201 1043 -225 1112 c 0,24,25
 -232 1131 -232 1131 -248 1168 c 0,26,27
 -264 1205 -264 1205 -270 1223 c 0,28,29
 -271 1227 -271 1227 -281 1271 c 0,30,31
 -282 1283 -282 1283 -270 1325 c 0,32,33
 -268 1335 -268 1335 -263 1354 c 0,34,35
 -255 1392 -255 1392 -251 1412 c 0,36,37
 -241 1463 -241 1463 -239 1469 c 0,38,39
 -231 1482 -231 1482 -218 1465 c 1,40,41
 -216 1482 -216 1482 -205 1474 c 1,42,43
 -201 1469 -201 1469 -198 1465 c 1,44,-1
 -196 1465 l 1,45,46
 -193 1483 -193 1483 -182 1473 c 0,47,48
 -178 1468 -178 1468 -175 1463 c 0,49,50
 -168 1445 -168 1445 -159 1409 c 0,51,52
 -152 1382 -152 1382 -147 1369 c 1,53,-1
 -146 1369 l 1,54,55
 -147 1386 -147 1386 -136 1388 c 0,56,57
 -132 1389 -132 1389 -128 1384 c 0,58,59
 -121 1375 -121 1375 -107 1321 c 0,60,61
 -106 1317 -106 1317 -105 1314 c 0,62,63
 -102 1305 -102 1305 -45 1114 c 0,64,65
 -28 1054 -28 1054 6 935 c 0,66,67
 86 657 86 657 130 518 c 0,68,69
 139 490 139 490 155 435 c 0,70,71
 171 379 171 379 180 351 c 0,72,73
 182 345 182 345 184 333 c 0,74,75
 193 298 193 298 203 284 c 0,76,77
 256 210 256 210 398 210 c 1,78,-1
 409 164 l 1,79,80
 298 164 298 164 258 177 c 0,81,82
 208 195 208 195 171 235 c 0,83,84
 124 287 124 287 89 414 c 2,85,-1
 89 415 l 1,86,-1
 40 581 l 1,87,-1
 -115 1107 l 2,88,89
 -123 1133 -123 1133 -140 1185 c 0,90,91
 -180 1312 -180 1312 -194 1376 c 1,92,-1
 -196 1376 l 1,93,94
 -199 1349 -199 1349 -214 1284 c 1,95,96
 -225 1247 -225 1247 -225 1243 c 0,97,98
 -224 1235 -224 1235 -200 1177 c 0,99,100
 -198 1173 -198 1173 -197 1171 c 0,101,102
 -171 1098 -171 1098 -149 1022 c 0,103,104
 -99 851 -99 851 -2 499 c 0,105,106
 51 302 51 302 93 221 c 0,107,108
 123 164 123 164 159 123 c 0,109,110
 242 31 242 31 391 24 c 0,111,112
 413 23 413 23 441 23 c 1,113,-1
 462 -66 l 1,0,1
-323 1747 m 1,114,115
 -386 1770 -386 1770 -400 1855 c 0,116,117
 -404 1879 -404 1879 -401 1901 c 0,118,119
 -388 1985 -388 1985 -310 2036 c 0,120,121
 -283 2053 -283 2053 -256 2060 c 0,122,123
 -247 2062 -247 2062 -237 2063.5 c 128,-1,124
 -227 2065 -227 2065 -222.5 2065 c 128,-1,125
 -218 2065 -218 2065 -201 2065 c 2,126,-1
 -184 2065 l 1,127,128
 -151 2063 -151 2063 -136 2047 c 1,129,130
 -123 2030 -123 2030 -110 1975 c 1,131,132
 -76 1968 -76 1968 -64 1919 c 0,133,134
 -56 1882 -56 1882 -73 1866 c 0,135,136
 -89 1853 -89 1853 -136 1876 c 0,137,138
 -157 1886 -157 1886 -168 1888 c 0,139,140
 -187 1890 -187 1890 -221 1864 c 0,141,142
 -226 1860 -226 1860 -229 1858 c 1,143,-1
 -229 1856 l 1,144,145
 -167 1836 -167 1836 -82 1860 c 0,146,147
 -62 1866 -62 1866 -34 1863 c 0,148,149
 -18 1862 -18 1862 -17 1861 c 0,150,151
 -13 1856 -13 1856 -9 1840 c 0,152,153
 0 1798 0 1798 0 1768 c 1,154,155
 2 1768 2 1768 8 1770 c 0,156,157
 30 1777 30 1777 36 1773 c 0,158,159
 42 1768 42 1768 42 1753 c 0,160,161
 43 1703 43 1703 38 1697 c 0,162,163
 36 1695 36 1695 36 1694 c 0,164,165
 30 1691 30 1691 -35 1674 c 0,166,167
 -38 1673 -38 1673 -39 1673 c 0,168,169
 -154 1633 -154 1633 -200 1599 c 0,170,171
 -237 1570 -237 1570 -246 1566 c 1,172,173
 -263 1563 -263 1563 -271 1568 c 1,174,175
 -280 1579 -280 1579 -274 1594 c 0,176,177
 -269 1604 -269 1604 -243 1640 c 1,178,179
 -249 1636 -249 1636 -260 1627 c 0,180,181
 -277 1613 -277 1613 -288 1609 c 0,182,183
 -296 1607 -296 1607 -327 1607 c 0,184,185
 -350 1608 -350 1608 -354 1610 c 0,186,187
 -364 1618 -364 1618 -367 1653 c 0,188,189
 -367 1656 -367 1656 -369 1661 c 0,190,191
 -371 1669 -371 1669 -371 1673 c 0,192,193
 -369 1696 -369 1696 -329 1740 c 0,194,195
 -325 1745 -325 1745 -323 1747 c 1,114,115
-272 1976 m 1,196,197
 -215 1976 -215 1976 -204 1973 c 0,198,199
 -201 1972 -201 1972 -191 1967 c 0,200,201
 -171 1956 -171 1956 -166 1958 c 0,202,203
 -145 1968 -145 1968 -167 1999 c 0,204,205
 -177 2011 -177 2011 -186 2016 c 0,206,207
 -186 2018 -186 2018 -192.5 2017 c 128,-1,208
 -199 2016 -199 2016 -199.5 2016 c 128,-1,209
 -200 2016 -200 2016 -206 2014 c 2,210,-1
 -212 2012 l 1,211,212
 -259 1996 -259 1996 -272 1976 c 1,196,197
-244 1922 m 1,213,214
 -271 1908 -271 1908 -272 1891 c 1,215,-1
 -244 1920 l 1,216,-1
 -244 1922 l 1,213,214
-324 1912 m 1,217,218
 -349 1885 -349 1885 -349 1851 c 0,219,220
 -349 1846 -349 1846 -348 1842 c 0,221,222
 -344 1835 -344 1835 -329 1819 c 1,223,224
 -293 1787 -293 1787 -262 1776 c 1,225,-1
 -269 1758 l 1,226,-1
 -257 1753 l 1,227,-1
 -264 1735 l 1,228,-1
 -252 1730 l 1,229,-1
 -260 1712 l 1,230,231
 -191 1744 -191 1744 -108 1768 c 0,232,233
 -67 1781 -67 1781 -62 1785 c 0,234,235
 -54 1795 -54 1795 -53 1807 c 1,236,237
 -70 1806 -70 1806 -104 1803 c 0,238,239
 -182 1794 -182 1794 -225 1801 c 1,240,241
 -294 1815 -294 1815 -316 1870 c 0,242,243
 -321 1885 -321 1885 -324 1912 c 1,217,218
-238 1645 m 1,244,-1
 -243 1642 l 1,245,-1
 -243 1640 l 1,246,-1
 -238 1643 l 1,247,-1
 -238 1645 l 1,244,-1
EndSplineSet
EndChar

StartChar: uniFE85
Encoding: 1572 1572 341
AltUni2: 00fe85.ffffffff.0
Width: 915
VWidth: 1639
GlyphClass: 2
Flags: W
LayerCount: 2
Fore
SplineSet
496 -10 m 1,0,1
 446 -9 446 -9 418 7 c 0,2,3
 413 10 413 10 403 17 c 0,4,5
 390 27 390 27 383 31 c 0,6,7
 380 33 380 33 352 41 c 1,8,9
 321 54 321 54 294 79 c 1,10,11
 250 124 250 124 232 205 c 0,12,13
 208 314 208 314 231 418 c 0,14,15
 256 532 256 532 295 562 c 0,16,17
 303 568 303 568 310 571 c 0,18,19
 330 580 330 580 379 576 c 1,20,21
 427 570 427 570 479 517 c 0,22,23
 519 476 519 476 590 359 c 0,24,25
 600 343 600 343 607 331 c 0,26,27
 775 73 775 73 641 -238 c 0,28,29
 629 -265 629 -265 616 -290 c 0,30,31
 538 -440 538 -440 432 -482 c 0,32,33
 329 -521 329 -521 156 -441 c 0,34,35
 128 -428 128 -428 77 -402 c 0,36,37
 48 -388 48 -388 16 -369 c 0,38,39
 -9 -354 -9 -354 -12 -349 c 0,40,41
 -15 -344 -15 -344 -17 -334 c 0,42,43
 -19 -326 -19 -326 -20 -323 c 0,44,45
 -28 -286 -28 -286 -25 -282 c 1,46,47
 -19 -278 -19 -278 0 -279 c 0,48,49
 42 -279 42 -279 62 -282 c 0,50,51
 137 -291 137 -291 212 -271 c 0,52,53
 291 -248 291 -248 341 -210 c 0,54,55
 404 -159 404 -159 489 -22 c 2,56,-1
 490 -21 l 1,57,-1
 491 -19 l 1,58,-1
 492 -17 l 1,59,-1
 493 -16 l 1,60,-1
 494 -14 l 1,61,-1
 495 -12 l 1,62,-1
 496 -10 l 1,0,1
606 97 m 1,63,64
 603 181 603 181 597 208 c 0,65,66
 571 317 571 317 478 435 c 0,67,68
 439 484 439 484 403 508 c 1,69,70
 376 524 376 524 367 525 c 0,71,72
 344 524 344 524 321 479 c 0,73,74
 284 407 284 407 273 305 c 0,75,76
 265 223 265 223 284 185 c 0,77,78
 316 120 316 120 371 91 c 0,79,80
 393 81 393 81 411 80 c 0,81,82
 426 81 426 81 452 97 c 1,83,84
 503 134 503 134 513 196 c 0,85,86
 514 203 514 203 514 210 c 1,87,-1
 531 190 l 1,88,-1
 533 190 l 1,89,-1
 536 210 l 1,90,-1
 552 190 l 1,91,-1
 554 190 l 1,92,-1
 557 210 l 1,93,94
 588 173 588 173 604 97 c 1,95,-1
 606 97 l 1,63,64
339 402 m 0,96,97
 378 412 378 412 410 397 c 1,98,99
 475 358 475 358 494 279 c 0,100,101
 502 242 502 242 498 230 c 1,102,103
 485 204 485 204 450 197 c 0,104,105
 443 195 443 195 415 195 c 0,106,107
 363 195 363 195 347 205 c 0,108,109
 340 210 340 210 335 215 c 0,110,111
 315 236 315 236 304 284 c 0,112,113
 294 330 294 330 293 338 c 0,114,115
 293 376 293 376 324 396 c 0,116,117
 332 400 332 400 339 402 c 0,96,97
388 246 m 1,118,119
 414 238 414 238 437 261 c 0,120,121
 445 271 445 271 445 280 c 0,122,123
 444 294 444 294 428 306 c 0,124,125
 424 308 424 308 421 308 c 0,126,127
 419 308 419 308 417.5 306.5 c 128,-1,128
 416 305 416 305 413.5 303.5 c 128,-1,129
 411 302 411 302 410.5 300 c 128,-1,130
 410 298 410 298 408 295 c 2,131,-1
 405 292 l 2,132,133
 396 278 396 278 395 276 c 0,134,135
 387 259 387 259 388 246 c 1,118,119
605 93 m 1,136,-1
 604 93 l 1,137,-1
 605 93 l 1,136,-1
605 87 m 1,138,-1
 604 87 l 1,139,-1
 605 87 l 1,138,-1
605 82 m 1,140,-1
 603 82 l 1,141,-1
 605 82 l 1,140,-1
604 77 m 1,142,-1
 603 77 l 1,143,-1
 604 77 l 1,142,-1
604 74 m 1,144,145
 601 68 601 68 598 55 c 0,146,147
 596 45 596 45 594 41 c 0,148,149
 583 8 583 8 571 -16 c 0,150,151
 446 -264 446 -264 274 -314 c 0,152,153
 268 -316 268 -316 264 -317 c 0,154,155
 201 -331 201 -331 61 -330 c 1,156,-1
 61 -331 l 1,157,158
 76 -338 76 -338 106 -353 c 0,159,160
 223 -409 223 -409 280 -407 c 1,161,162
 360 -402 360 -402 428 -333 c 0,163,164
 523 -237 523 -237 574 -69 c 0,165,166
 603 21 603 21 604 74 c 1,144,145
211 845 m 1,167,168
 148 868 148 868 134 953 c 0,169,170
 130 978 130 978 132 999 c 0,171,172
 145 1083 145 1083 223 1134 c 0,173,174
 250 1151 250 1151 277 1158 c 0,175,176
 286 1160 286 1160 296 1161.5 c 128,-1,177
 306 1163 306 1163 311 1163 c 128,-1,178
 316 1163 316 1163 332 1163 c 2,179,-1
 349 1163 l 1,180,181
 382 1161 382 1161 398 1145 c 1,182,183
 411 1128 411 1128 423 1073 c 1,184,185
 457 1066 457 1066 469 1017 c 0,186,187
 477 980 477 980 461 964 c 0,188,189
 445 951 445 951 397 974 c 0,190,191
 376 984 376 984 366 986 c 0,192,193
 347 988 347 988 312 962 c 0,194,195
 307 958 307 958 304 956 c 1,196,-1
 304 954 l 1,197,198
 366 934 366 934 451 958 c 0,199,200
 471 964 471 964 499 961 c 0,201,202
 515 960 515 960 517 959 c 0,203,204
 521 954 521 954 525 938 c 0,205,206
 534 896 534 896 534 866 c 1,207,208
 536 866 536 866 541 868 c 0,209,210
 563 875 563 875 569 871 c 0,211,212
 575 866 575 866 575 851 c 0,213,214
 576 801 576 801 572 795 c 0,215,216
 570 793 570 793 569 792 c 0,217,218
 563 789 563 789 499 772 c 0,219,220
 496 771 496 771 495 771 c 0,221,222
 380 731 380 731 333 697 c 1,223,224
 297 668 297 668 287 664 c 1,225,226
 270 661 270 661 263 666 c 1,227,228
 254 677 254 677 260 692 c 0,229,230
 265 702 265 702 290 738 c 1,231,232
 284 734 284 734 273 725 c 0,233,234
 256 711 256 711 245 707 c 0,235,236
 237 705 237 705 206 705 c 0,237,238
 183 706 183 706 180 708 c 0,239,240
 170 716 170 716 167 751 c 0,241,242
 167 754 167 754 164 759 c 0,243,244
 162 767 162 767 162 771 c 0,245,246
 164 794 164 794 205 838 c 0,247,248
 209 843 209 843 211 845 c 1,167,168
261 1074 m 1,249,250
 318 1074 318 1074 329 1071 c 0,251,252
 332 1070 332 1070 342 1065 c 0,253,254
 362 1054 362 1054 368 1056 c 0,255,256
 389 1066 389 1066 367 1097 c 0,257,258
 357 1109 357 1109 347 1114 c 0,259,260
 347 1116 347 1116 341 1115 c 128,-1,261
 335 1114 335 1114 334 1114 c 128,-1,262
 333 1114 333 1114 327 1112 c 2,263,-1
 322 1110 l 1,264,265
 274 1094 274 1094 261 1074 c 1,249,250
289 1020 m 1,266,267
 262 1006 262 1006 261 989 c 1,268,-1
 289 1018 l 1,269,-1
 289 1020 l 1,266,267
209 1010 m 1,270,271
 184 983 184 983 184 949 c 0,272,273
 184 943 184 943 186 940 c 0,274,275
 190 933 190 933 205 917 c 1,276,277
 241 885 241 885 271 874 c 1,278,-1
 264 856 l 1,279,-1
 276 851 l 1,280,-1
 270 833 l 1,281,-1
 282 828 l 1,282,-1
 273 810 l 1,283,284
 342 842 342 842 425 866 c 0,285,286
 466 879 466 879 471 883 c 0,287,288
 479 893 479 893 480 905 c 1,289,290
 463 904 463 904 429 901 c 0,291,292
 351 892 351 892 308 899 c 1,293,294
 239 913 239 913 217 968 c 0,295,296
 212 983 212 983 209 1010 c 1,270,271
295 743 m 1,297,-1
 290 740 l 1,298,-1
 290 738 l 1,299,-1
 295 741 l 1,300,-1
 295 743 l 1,297,-1
EndSplineSet
AlternateSubs2: "gsub_alternate_dfl_aalt_arab_FAR_Lookup_01_Subtable_01" uniFE86 uniFE85
Substitution2: "gsub_single_rtl_fina_arab_FAR_Lookup_01_Subtable_01" uniFE86
EndChar

StartChar: uniFE86
Encoding: 65158 65158 342
Width: 744
VWidth: 1639
GlyphClass: 2
Flags: W
LayerCount: 2
Fore
SplineSet
528 -66 m 1,0,1
 435 -62 435 -62 376 -21 c 0,2,3
 361 -11 361 -11 330 3 c 0,4,5
 273 28 273 28 252 60 c 0,6,7
 248 66 248 66 246 71 c 0,8,9
 235 91 235 91 228 123 c 0,10,11
 204 225 204 225 251 348 c 0,12,13
 274 404 274 404 301 435 c 0,14,15
 343 484 343 484 421 473 c 0,16,17
 462 466 462 466 493 443 c 0,18,19
 539 406 539 406 584 333 c 0,20,21
 593 319 593 319 608 291 c 0,22,23
 617 274 617 274 622 267 c 0,24,25
 652 220 652 220 656 210 c 1,26,-1
 724 210 l 1,27,-1
 734 164 l 1,28,-1
 612 164 l 1,29,30
 595 219 595 219 554 284 c 1,31,32
 505 357 505 357 465 392 c 0,33,34
 433 418 433 418 409 421 c 0,35,36
 397 422 397 422 376 407 c 0,37,38
 342 383 342 383 313 321 c 1,39,40
 282 250 282 250 273 187 c 0,41,42
 268 146 268 146 272 131 c 0,43,44
 289 82 289 82 353 51 c 0,45,46
 382 37 382 37 411 31 c 0,47,48
 465 20 465 20 595 21 c 1,49,-1
 594 -2 l 1,50,-1
 600 -2 l 1,51,-1
 599 -25 l 1,52,-1
 605 -25 l 1,53,54
 606 -28 606 -28 606 -32 c 128,-1,55
 606 -36 606 -36 605 -41 c 128,-1,56
 604 -46 604 -46 604 -49 c 128,-1,57
 604 -52 604 -52 602.5 -58 c 128,-1,58
 601 -64 601 -64 600.5 -65.5 c 128,-1,59
 600 -67 600 -67 598 -74 c 2,60,-1
 595 -80 l 2,61,62
 578 -128 578 -128 531 -197 c 0,63,64
 464 -293 464 -293 406 -331 c 0,65,66
 278 -414 278 -414 24 -380 c 1,67,68
 70 -413 70 -413 137 -441 c 1,69,70
 236 -484 236 -484 305 -482 c 1,71,72
 384 -477 384 -477 452 -418 c 0,73,74
 554 -329 554 -329 600 -172 c 0,75,76
 621 -102 621 -102 630 -38 c 1,77,78
 634 3 634 3 631 21 c 1,79,-1
 767 23 l 1,80,-1
 788 -67 l 1,81,-1
 727 -67 l 1,82,83
 730 -87 730 -87 725 -126 c 0,84,85
 720 -169 720 -169 699 -246 c 0,86,87
 638 -473 638 -473 494 -545 c 0,88,89
 451 -566 451 -566 405 -571 c 1,90,91
 344 -575 344 -575 273 -559 c 1,92,93
 215 -544 215 -544 108 -491 c 2,94,-1
 107 -490 l 2,95,96
 94 -483 94 -483 69 -471 c 0,97,98
 22 -447 22 -447 -0 -433 c 0,99,100
 -42 -406 -42 -406 -51 -394 c 0,101,102
 -53 -390 -53 -390 -60 -353 c 0,103,104
 -64 -332 -64 -332 -64 -330 c 0,105,106
 -58 -322 -58 -322 -42 -325 c 1,107,108
 -1 -325 -1 -325 7 -326 c 0,109,110
 140 -350 140 -350 216 -338 c 0,111,112
 403 -304 403 -304 528 -66 c 1,0,1
555 149 m 1,113,114
 512 133 512 133 462 133 c 0,115,116
 401 133 401 133 385 136 c 0,117,118
 334 144 334 144 312 177 c 0,119,120
 311 180 311 180 309 195 c 0,121,122
 308 199 308 199 305 209 c 0,123,124
 299 226 299 226 299 233 c 0,125,126
 297 251 297 251 311 280 c 1,127,128
 334 318 334 318 400 318 c 1,129,130
 467 316 467 316 499 279 c 0,131,132
 523 250 523 250 544 195 c 1,133,-1
 549 172 l 1,134,-1
 555 149 l 1,113,114
493 192 m 1,135,136
 481 221 481 221 469 228 c 0,137,138
 462 231 462 231 448 227 c 2,139,-1
 447 226 l 1,140,141
 410 211 410 211 405 184 c 1,142,143
 456 177 456 177 493 192 c 1,135,136
228 758 m 1,144,145
 165 781 165 781 151 866 c 0,146,147
 147 891 147 891 150 912 c 0,148,149
 163 996 163 996 241 1047 c 0,150,151
 268 1064 268 1064 294 1071 c 0,152,153
 303 1073 303 1073 313.5 1074.5 c 128,-1,154
 324 1076 324 1076 328.5 1076 c 128,-1,155
 333 1076 333 1076 350 1076 c 2,156,-1
 367 1076 l 1,157,158
 400 1074 400 1074 415 1058 c 1,159,160
 428 1041 428 1041 441 986 c 1,161,162
 475 979 475 979 486 930 c 0,163,164
 494 893 494 893 478 877 c 0,165,166
 462 864 462 864 414 887 c 0,167,168
 393 897 393 897 383 899 c 0,169,170
 364 901 364 901 330 875 c 0,171,172
 325 871 325 871 321 869 c 1,173,-1
 322 868 l 1,174,175
 384 848 384 848 469 871 c 0,176,177
 489 877 489 877 517 874 c 0,178,179
 533 873 533 873 534 872 c 0,180,181
 538 867 538 867 542 851 c 0,182,183
 551 809 551 809 551 779 c 1,184,185
 553 779 553 779 558 782 c 0,186,187
 580 789 580 789 586 784 c 0,188,189
 592 779 592 779 592 764 c 0,190,191
 593 714 593 714 589 708 c 0,192,193
 587 706 587 706 586 705 c 0,194,195
 580 702 580 702 516 685 c 0,196,197
 513 684 513 684 512 684 c 0,198,199
 397 644 397 644 351 610 c 0,200,201
 314 581 314 581 305 577 c 1,202,203
 288 574 288 574 280 579 c 1,204,205
 271 590 271 590 277 605 c 0,206,207
 282 615 282 615 307 651 c 1,208,209
 301 647 301 647 290 638 c 0,210,211
 273 624 273 624 263 620 c 0,212,213
 255 618 255 618 224 618 c 0,214,215
 201 619 201 619 197 622 c 0,216,217
 187 630 187 630 184 664 c 0,218,219
 184 667 184 667 182 672 c 0,220,221
 180 680 180 680 179 684 c 0,222,223
 181 707 181 707 222 751 c 0,224,225
 226 756 226 756 228 758 c 1,144,145
279 987 m 1,226,227
 336 987 336 987 347 984 c 0,228,229
 350 983 350 983 359 978 c 0,230,231
 379 968 379 968 385 969 c 0,232,233
 406 979 406 979 384 1010 c 0,234,235
 374 1022 374 1022 364 1027 c 0,236,237
 364 1029 364 1029 358 1028 c 128,-1,238
 352 1027 352 1027 351 1027 c 128,-1,239
 350 1027 350 1027 345 1025 c 2,240,-1
 339 1023 l 1,241,242
 292 1007 292 1007 279 987 c 1,226,227
306 933 m 1,243,244
 279 919 279 919 279 902 c 1,245,-1
 307 932 l 1,246,-1
 306 933 l 1,243,244
226 923 m 1,247,248
 201 896 201 896 202 862 c 0,249,250
 202 856 202 856 203 853 c 0,251,252
 207 846 207 846 222 830 c 1,253,254
 258 798 258 798 288 787 c 1,255,-1
 282 769 l 1,256,-1
 294 764 l 1,257,-1
 287 746 l 1,258,-1
 299 741 l 1,259,-1
 291 723 l 1,260,261
 360 755 360 755 443 779 c 0,262,263
 484 792 484 792 488 796 c 0,264,265
 496 806 496 806 498 818 c 1,266,267
 481 817 481 817 447 814 c 0,268,269
 369 805 369 805 325 812 c 1,270,271
 256 826 256 826 235 881 c 0,272,273
 229 896 229 896 226 923 c 1,247,248
312 656 m 1,274,-1
 307 653 l 1,275,-1
 307 651 l 1,276,-1
 313 654 l 1,277,-1
 312 656 l 1,274,-1
EndSplineSet
EndChar

StartChar: uniFE87
Encoding: 1573 1573 343
AltUni2: 00fe87.ffffffff.0
Width: 509
VWidth: 1639
GlyphClass: 2
Flags: W
LayerCount: 2
Fore
SplineSet
217 -43 m 1,0,1
 211 -33 211 -33 206 -7 c 0,2,3
 203 6 203 6 198 33 c 0,4,5
 193 60 193 60 190 72 c 0,6,7
 151 254 151 254 129 344 c 0,8,9
 112 416 112 416 -18 891 c 0,10,11
 -82 1126 -82 1126 -115 1284 c 0,12,13
 -119 1305 -119 1305 -111 1340 c 0,14,15
 -104 1373 -104 1373 -91 1430 c 0,16,17
 -90 1433 -90 1433 -88 1443 c 0,18,19
 -82 1471 -82 1471 -76 1476 c 0,20,21
 -71 1478 -71 1478 -65 1467 c 0,22,23
 -64 1465 -64 1465 -62.5 1462 c 128,-1,24
 -61 1459 -61 1459 -61 1458 c 1,25,26
 -59 1478 -59 1478 -50 1473 c 1,27,28
 -44 1468 -44 1468 -41 1458 c 1,29,-1
 -40 1458 l 1,30,31
 -36 1476 -36 1476 -28 1474 c 1,32,33
 -24 1471 -24 1471 -16 1450 c 0,34,35
 -10 1432 -10 1432 7 1355 c 1,36,-1
 9 1355 l 1,37,38
 9 1378 9 1378 18 1386 c 1,39,40
 23 1387 23 1387 26 1384 c 0,41,42
 35 1373 35 1373 46 1320 c 0,43,44
 48 1312 48 1312 49 1307 c 0,45,46
 59 1276 59 1276 108 1077 c 0,47,48
 109 1071 109 1071 110 1068 c 0,49,50
 268 447 268 447 288 358 c 0,51,52
 297 318 297 318 306 280 c 0,53,54
 341 112 341 112 329 2 c 1,55,56
 319 -66 319 -66 308 -80 c 0,57,58
 305 -84 305 -84 301 -85 c 1,59,60
 289 -57 289 -57 281 5 c 1,61,-1
 279 5 l 1,62,63
 275 -32 275 -32 260 -43 c 1,64,-1
 252 -21 l 1,65,-1
 250 -21 l 1,66,67
 247 -35 247 -35 238 -43 c 1,68,-1
 230 -21 l 1,69,-1
 229 -21 l 1,70,71
 226 -35 226 -35 217 -43 c 1,0,1
-40 1368 m 1,72,73
 -45 1355 -45 1355 -51 1323 c 1,74,75
 -65 1269 -65 1269 -64 1246 c 0,76,77
 -62 1228 -62 1228 -42 1159 c 1,78,79
 1 992 l 1,80,81
 123 540 123 540 181 312 c 0,82,83
 192 267 192 267 212 175 c 0,84,85
 225 114 225 114 232 84 c 1,86,-1
 234 84 l 1,87,88
 234 101 234 101 235 134 c 0,89,90
 237 184 237 184 235 210 c 0,91,92
 221 368 221 368 142 659 c 0,93,94
 125 722 125 722 93 850 c 0,95,96
 61 978 61 978 45 1040 c 0,97,98
 -14 1257 -14 1257 -40 1368 c 1,72,73
282 7 m 1,99,-1
 280 7 l 1,100,-1
 282 7 l 1,99,-1
255 -569 m 1,101,102
 192 -546 192 -546 178 -461 c 0,103,104
 174 -436 174 -436 177 -415 c 0,105,106
 190 -331 190 -331 268 -280 c 0,107,108
 295 -263 295 -263 322 -256 c 0,109,110
 330 -254 330 -254 341 -252.5 c 128,-1,111
 352 -251 352 -251 356 -251 c 128,-1,112
 360 -251 360 -251 377 -251 c 2,113,-1
 394 -251 l 2,114,115
 427 -253 427 -253 442 -269 c 1,116,117
 455 -286 455 -286 468 -341 c 1,118,119
 502 -348 502 -348 514 -397 c 0,120,121
 522 -434 522 -434 505 -449 c 0,122,123
 489 -462 489 -462 442 -440 c 0,124,125
 421 -430 421 -430 410 -428 c 0,126,127
 391 -426 391 -426 357 -452 c 0,128,129
 352 -456 352 -456 349 -458 c 1,130,-1
 349 -459 l 1,131,132
 411 -479 411 -479 496 -456 c 0,133,134
 516 -450 516 -450 544 -453 c 0,135,136
 560 -454 560 -454 561 -454 c 0,137,138
 565 -459 565 -459 569 -476 c 0,139,140
 578 -518 578 -518 578 -548 c 1,141,142
 580 -548 580 -548 586 -545 c 0,143,144
 608 -538 608 -538 614 -543 c 0,145,146
 620 -548 620 -548 620 -563 c 0,147,148
 621 -613 621 -613 616 -619 c 0,149,150
 614 -621 614 -621 614 -622 c 0,151,152
 608 -625 608 -625 543 -642 c 0,153,154
 540 -643 540 -643 539 -643 c 0,155,156
 424 -683 424 -683 378 -717 c 0,157,158
 341 -746 341 -746 332 -749 c 1,159,160
 315 -752 315 -752 307 -748 c 1,161,162
 298 -737 298 -737 304 -722 c 0,163,164
 309 -712 309 -712 335 -676 c 1,165,166
 329 -680 329 -680 318 -689 c 0,167,168
 301 -703 301 -703 290 -707 c 0,169,170
 282 -709 282 -709 251 -708 c 0,171,172
 228 -707 228 -707 224 -705 c 0,173,174
 214 -697 214 -697 211 -663 c 0,175,176
 211 -660 211 -660 209 -654 c 0,177,178
 207 -646 207 -646 207 -643 c 0,179,180
 209 -620 209 -620 249 -576 c 0,181,182
 253 -571 253 -571 255 -569 c 1,101,102
306 -339 m 1,183,184
 363 -339 363 -339 374 -343 c 0,185,186
 377 -344 377 -344 387 -349 c 0,187,188
 407 -360 407 -360 412 -358 c 0,189,190
 433 -348 433 -348 411 -317 c 0,191,192
 401 -305 401 -305 392 -300 c 1,193,194
 385 -299 385 -299 366 -303 c 1,195,196
 319 -319 319 -319 306 -339 c 1,183,184
334 -394 m 1,197,198
 307 -408 307 -408 306 -425 c 1,199,-1
 334 -395 l 1,200,-1
 334 -394 l 1,197,198
254 -403 m 1,201,202
 229 -430 229 -430 229 -464 c 0,203,204
 229 -470 229 -470 230 -474 c 0,205,206
 234 -481 234 -481 249 -497 c 1,207,208
 285 -529 285 -529 316 -540 c 1,209,-1
 309 -558 l 1,210,-1
 321 -563 l 1,211,-1
 314 -581 l 1,212,-1
 326 -585 l 1,213,-1
 318 -604 l 1,214,215
 387 -572 387 -572 470 -548 c 0,216,217
 511 -535 511 -535 516 -531 c 0,218,219
 524 -521 524 -521 525 -508 c 1,220,221
 508 -509 508 -509 474 -513 c 0,222,223
 395 -521 395 -521 353 -515 c 1,224,225
 284 -501 284 -501 262 -446 c 0,226,227
 257 -430 257 -430 254 -403 c 1,201,202
340 -671 m 1,228,-1
 334 -674 l 1,229,-1
 335 -676 l 1,230,-1
 340 -672 l 1,231,-1
 340 -671 l 1,228,-1
EndSplineSet
AlternateSubs2: "gsub_alternate_dfl_aalt_arab_FAR_Lookup_01_Subtable_01" uniFE88 uniFE87
Substitution2: "gsub_single_rtl_fina_arab_FAR_Lookup_01_Subtable_01" uniFE88
EndChar

StartChar: uniFE88
Encoding: 65160 65160 344
Width: 719
VWidth: 1639
GlyphClass: 2
Flags: W
LayerCount: 2
Fore
SplineSet
764 -66 m 1,0,1
 672 -65 672 -65 613 -39 c 0,2,3
 602 -34 602 -34 582 -22 c 0,4,5
 566 -12 566 -12 558 -8 c 0,6,7
 551 -5 551 -5 537 0 c 0,8,9
 522 5 522 5 516 8 c 0,10,11
 455 41 455 41 410 100 c 0,12,13
 343 189 343 189 288 379 c 0,14,15
 286 386 286 386 282 399 c 0,16,17
 277 415 277 415 276 421 c 0,18,19
 252 501 252 501 209 663 c 0,20,21
 165 825 165 825 141 905 c 0,22,23
 100 1043 100 1043 77 1112 c 0,24,25
 70 1131 70 1131 54 1168 c 0,26,27
 38 1205 38 1205 31 1223 c 0,28,29
 30 1227 30 1227 20 1271 c 0,30,31
 19 1283 19 1283 32 1325 c 0,32,33
 34 1335 34 1335 38 1354 c 0,34,35
 46 1392 46 1392 50 1412 c 0,36,37
 60 1463 60 1463 63 1469 c 0,38,39
 71 1482 71 1482 84 1465 c 1,40,41
 86 1482 86 1482 97 1474 c 1,42,43
 101 1469 101 1469 104 1465 c 1,44,-1
 105 1465 l 1,45,46
 108 1483 108 1483 120 1473 c 0,47,48
 124 1468 124 1468 127 1463 c 0,49,50
 134 1445 134 1445 143 1409 c 0,51,52
 150 1382 150 1382 155 1369 c 1,53,-1
 156 1369 l 1,54,55
 155 1386 155 1386 166 1388 c 0,56,57
 170 1389 170 1389 174 1384 c 0,58,59
 181 1375 181 1375 194 1321 c 0,60,61
 195 1317 195 1317 196 1314 c 0,62,63
 199 1305 199 1305 256 1114 c 0,64,65
 273 1054 273 1054 308 935 c 0,66,67
 388 657 388 657 432 518 c 0,68,69
 441 490 441 490 457 435 c 0,70,71
 473 379 473 379 481 351 c 0,72,73
 483 345 483 345 486 333 c 0,74,75
 495 298 495 298 504 284 c 0,76,77
 557 210 557 210 700 210 c 1,78,-1
 711 164 l 1,79,80
 600 164 600 164 560 177 c 0,81,82
 510 195 510 195 473 235 c 0,83,84
 426 287 426 287 390 414 c 2,85,-1
 390 415 l 1,86,-1
 341 581 l 1,87,-1
 186 1107 l 2,88,89
 178 1133 178 1133 162 1185 c 0,90,91
 122 1312 122 1312 107 1376 c 1,92,-1
 106 1376 l 1,93,94
 103 1349 103 1349 87 1284 c 1,95,96
 76 1247 76 1247 77 1243 c 0,97,98
 78 1235 78 1235 102 1177 c 0,99,100
 104 1173 104 1173 104 1171 c 0,101,102
 130 1098 130 1098 153 1022 c 0,103,104
 203 851 203 851 299 499 c 0,105,106
 352 302 352 302 394 221 c 0,107,108
 424 164 424 164 461 123 c 0,109,110
 544 31 544 31 693 24 c 0,111,112
 715 23 715 23 743 23 c 1,113,-1
 764 -66 l 1,0,1
225 -443 m 1,114,115
 162 -420 162 -420 148 -335 c 0,116,117
 144 -310 144 -310 147 -289 c 0,118,119
 160 -205 160 -205 238 -154 c 0,120,121
 265 -137 265 -137 292 -130 c 0,122,123
 301 -128 301 -128 311 -126.5 c 128,-1,124
 321 -125 321 -125 325.5 -125 c 128,-1,125
 330 -125 330 -125 347 -125 c 2,126,-1
 364 -125 l 1,127,128
 397 -127 397 -127 412 -143 c 1,129,130
 425 -160 425 -160 438 -215 c 1,131,132
 472 -222 472 -222 484 -270 c 0,133,134
 492 -307 492 -307 475 -323 c 0,135,136
 459 -336 459 -336 412 -313 c 0,137,138
 391 -303 391 -303 380 -302 c 0,139,140
 361 -300 361 -300 327 -325 c 0,141,142
 322 -329 322 -329 318 -331 c 1,143,-1
 319 -333 l 1,144,145
 381 -353 381 -353 466 -330 c 0,146,147
 486 -324 486 -324 514 -326 c 0,148,149
 530 -327 530 -327 531 -328 c 0,150,151
 535 -333 535 -333 539 -349 c 0,152,153
 548 -391 548 -391 548 -421 c 1,154,155
 550 -421 550 -421 555 -419 c 0,156,157
 577 -412 577 -412 584 -417 c 0,158,159
 590 -422 590 -422 590 -436 c 0,160,161
 591 -486 591 -486 586 -493 c 0,162,163
 584 -495 l 0,164,165
 578 -498 578 -498 513 -515 c 0,166,167
 510 -516 510 -516 509 -517 c 0,168,169
 394 -557 394 -557 348 -590 c 1,170,171
 312 -619 312 -619 302 -623 c 1,172,173
 285 -626 285 -626 277 -622 c 1,174,175
 268 -611 268 -611 274 -595 c 0,176,177
 279 -585 279 -585 305 -549 c 1,178,179
 299 -553 299 -553 288 -563 c 0,180,181
 272 -577 272 -577 260 -581 c 0,182,183
 252 -583 252 -583 221 -582 c 0,184,185
 198 -581 198 -581 194 -579 c 0,186,187
 184 -571 184 -571 181 -536 c 0,188,189
 181 -533 181 -533 179 -528 c 0,190,191
 177 -520 177 -520 177 -517 c 0,192,193
 179 -494 179 -494 219 -450 c 0,194,195
 223 -445 223 -445 225 -443 c 1,114,115
276 -213 m 1,196,197
 333 -213 333 -213 344 -216 c 0,198,199
 347 -217 347 -217 357 -223 c 0,200,201
 377 -234 377 -234 382 -231 c 0,202,203
 403 -221 403 -221 381 -191 c 0,204,205
 371 -179 371 -179 361 -174 c 0,206,207
 361 -172 361 -172 355 -173 c 128,-1,208
 349 -174 349 -174 348.5 -174 c 128,-1,209
 348 -174 348 -174 342 -175 c 2,210,-1
 336 -177 l 1,211,212
 289 -193 289 -193 276 -213 c 1,196,197
304 -267 m 1,213,214
 277 -281 277 -281 276 -298 c 1,215,-1
 304 -269 l 1,216,-1
 304 -267 l 1,213,214
224 -277 m 1,217,218
 199 -304 199 -304 199 -338 c 0,219,220
 199 -344 199 -344 200 -348 c 0,221,222
 204 -355 204 -355 219 -371 c 1,223,224
 255 -403 255 -403 286 -413 c 1,225,-1
 279 -431 l 1,226,-1
 291 -436 l 1,227,-1
 284 -454 l 1,228,-1
 296 -459 l 1,229,-1
 288 -477 l 1,230,231
 357 -445 357 -445 440 -421 c 0,232,233
 481 -408 481 -408 485 -404 c 0,234,235
 493 -394 493 -394 495 -382 c 1,236,237
 478 -383 478 -383 444 -387 c 0,238,239
 365 -395 365 -395 323 -389 c 1,240,241
 254 -375 254 -375 232 -320 c 0,242,243
 227 -304 227 -304 224 -277 c 1,217,218
310 -544 m 1,244,-1
 304 -548 l 1,245,-1
 305 -549 l 1,246,-1
 310 -546 l 1,247,-1
 310 -544 l 1,244,-1
EndSplineSet
EndChar

StartChar: uniFE89
Encoding: 1574 1574 345
AltUni2: 00fe89.ffffffff.0
Width: 1366
VWidth: 1639
GlyphClass: 2
Flags: W
LayerCount: 2
Fore
SplineSet
934 -44 m 1,0,1
 856 -44 856 -44 776 -18 c 0,2,3
 770 -16 770 -16 695 23 c 0,4,5
 692 24 692 24 691 25 c 0,6,7
 617 62 617 62 602 73 c 0,8,9
 581 90 581 90 566 110 c 1,10,11
 545 143 545 143 532 198 c 0,12,13
 512 285 512 285 523 358 c 0,14,15
 555 571 555 571 712 723 c 0,16,17
 807 817 807 817 904 809 c 1,18,19
 954 802 954 802 1001 755 c 0,20,21
 1014 741 1014 741 1021 730 c 0,22,23
 1023 726 1023 726 1034 691 c 0,24,25
 1036 686 1036 686 1037 682 c 0,26,27
 1042 675 1042 675 1056 663 c 1,28,29
 1073 645 1073 645 1080 628 c 0,30,31
 1086 613 1086 613 1080 589 c 0,32,33
 1065 512 1065 512 1052 492 c 1,34,35
 1044 488 1044 488 1016 507 c 0,36,37
 959 545 959 545 918 541 c 1,38,39
 882 535 882 535 838 500 c 0,40,41
 779 455 779 455 717 377 c 0,42,43
 672 321 672 321 668 282 c 1,44,45
 669 268 669 268 699 255 c 0,46,47
 702 254 702 254 709 251 c 0,48,49
 756 231 756 231 841 221 c 2,50,-1
 959 207 l 1,51,52
 1011 198 1011 198 1025 190 c 0,53,54
 1060 172 1060 172 1076 130 c 0,55,56
 1077 127 1077 127 1079 119 c 0,57,58
 1084 105 1084 105 1087 100 c 0,59,60
 1091 93 1091 93 1103 81 c 0,61,62
 1113 70 1113 70 1117 66 c 0,63,64
 1140 27 1140 27 1146 -25 c 0,65,66
 1164 -197 1164 -197 984 -336 c 1,67,68
 803 -468 803 -468 574 -485 c 1,69,70
 440 -494 440 -494 352 -466 c 0,71,72
 327 -458 327 -458 257 -421 c 0,73,74
 247 -415 247 -415 225 -406 c 0,75,76
 202 -396 202 -396 192 -390 c 0,77,78
 117 -344 117 -344 63 -272 c 1,79,80
 -6 -177 -6 -177 -41 -28 c 0,81,82
 -72 107 -72 107 -59 203 c 1,83,84
 -42 309 -42 309 -20 364 c 1,85,86
 -2 396 -2 396 4 400 c 0,87,88
 12 404 12 404 19 395 c 1,89,90
 35 400 35 400 40 395 c 1,91,92
 50 402 50 402 57 400 c 1,93,94
 63 395 63 395 62 384 c 0,95,96
 63 377 63 377 67 364 c 0,97,98
 72 348 72 348 73 339 c 0,99,100
 74 330 74 330 59 288 c 0,101,102
 58 285 58 285 58 284 c 0,103,104
 41 216 41 216 43 162 c 1,105,-1
 45 162 l 1,106,107
 46 213 46 213 80 285 c 0,108,109
 95 314 95 314 106 313 c 0,110,111
 109 312 109 312 110 312 c 0,112,113
 118 306 118 306 114 287 c 0,114,115
 98 228 98 228 97 221 c 0,116,117
 79 123 79 123 92 30 c 0,118,119
 99 -27 99 -27 117 -57 c 0,120,121
 129 -76 129 -76 167 -108 c 0,122,123
 249 -178 249 -178 363 -203 c 1,124,125
 576 -246 576 -246 802 -131 c 0,126,127
 902 -81 902 -81 934 -44 c 1,0,1
627 476 m 1,128,129
 634 482 634 482 667 520 c 1,130,131
 754 610 754 610 810 626 c 0,132,133
 861 640 861 640 915 622 c 0,134,135
 920 620 920 620 949 605 c 0,136,137
 958 599 958 599 962 602 c 0,138,139
 970 609 970 609 981 660 c 0,140,141
 982 664 982 664 983 666 c 0,142,143
 987 684 987 684 985 689 c 0,144,145
 980 699 980 699 964 712 c 0,146,147
 907 760 907 760 883 759 c 1,148,149
 853 755 853 755 795 705 c 0,150,151
 712 636 712 636 661 544 c 1,152,153
 637 505 637 505 627 476 c 1,128,129
647 380 m 1,154,-1
 646 379 l 1,155,-1
 647 380 l 1,154,-1
645 376 m 1,156,157
 624 352 624 352 628 320 c 1,158,-1
 629 320 l 1,159,-1
 645 376 l 1,156,157
580 328 m 1,160,161
 579 325 579 325 577.5 322.5 c 128,-1,162
 576 320 576 320 575.5 316 c 128,-1,163
 575 312 575 312 574 308.5 c 128,-1,164
 573 305 573 305 572.5 300 c 128,-1,165
 572 295 572 295 572 292.5 c 128,-1,166
 572 290 572 290 572 284.5 c 128,-1,167
 572 279 572 279 572 277.5 c 128,-1,168
 572 276 572 276 572 269 c 2,169,-1
 572 262 l 2,170,171
 572 211 572 211 576 198 c 0,172,173
 620 69 620 69 843 48 c 0,174,175
 900 43 900 43 901 43 c 0,176,177
 915 43 915 43 941 42 c 0,178,179
 968 41 968 41 982 41 c 0,180,181
 1013 40 1013 40 1018 38 c 0,182,183
 1026 31 1026 31 1023 15 c 1,184,185
 1032 6 1032 6 1028 -8 c 1,186,187
 1038 -16 1038 -16 1033 -31 c 2,188,-1
 1032 -33 l 1,189,190
 1021 -55 1021 -55 1005 -72 c 0,191,192
 957 -127 957 -127 842 -185 c 1,193,194
 776 -216 776 -216 721 -231 c 0,195,196
 683 -243 683 -243 610 -253 c 0,197,198
 593 -256 593 -256 514 -259 c 0,199,200
 238 -271 238 -271 95 -116 c 0,201,202
 67 -86 67 -86 46 -46 c 1,203,204
 13 19 13 19 -7 141 c 1,205,-1
 -8 141 l 1,206,207
 -11 11 -11 11 10 -56 c 0,208,209
 36 -133 36 -133 72 -194 c 1,210,211
 100 -237 100 -237 136 -274 c 0,212,213
 300 -445 300 -445 599 -380 c 1,214,215
 661 -364 661 -364 694 -353 c 1,216,217
 767 -322 767 -322 783 -313 c 0,218,219
 856 -270 856 -270 890 -246 c 0,220,221
 1039 -137 1039 -137 1052 -3 c 0,222,223
 1062 107 1062 107 993 144 c 0,224,225
 972 156 972 156 911 164 c 0,226,227
 891 167 891 167 851 171 c 0,228,229
 747 182 747 182 697 198 c 1,230,231
 631 221 631 221 601 264 c 1,232,233
 591 282 591 282 580 328 c 1,160,161
44 161 m 1,234,-1
 42 161 l 1,235,-1
 44 161 l 1,234,-1
-170 836 m 1,236,237
 -233 859 -233 859 -247 945 c 0,238,239
 -251 970 -251 970 -249 991 c 0,240,241
 -236 1075 -236 1075 -157 1126 c 0,242,243
 -131 1143 -131 1143 -104 1150 c 0,244,245
 -95 1152 -95 1152 -84.5 1153.5 c 128,-1,246
 -74 1155 -74 1155 -69.5 1155 c 128,-1,247
 -65 1155 -65 1155 -48 1155 c 2,248,-1
 -32 1155 l 1,249,250
 1 1153 1 1153 17 1137 c 1,251,252
 30 1120 30 1120 42 1064 c 1,253,254
 76 1057 76 1057 88 1009 c 0,255,256
 96 972 96 972 80 956 c 0,257,258
 64 943 64 943 16 966 c 0,259,260
 -5 976 -5 976 -15 977 c 0,261,262
 -34 979 -34 979 -69 954 c 0,263,264
 -74 950 -74 950 -77 948 c 1,265,-1
 -77 946 l 1,266,267
 -15 926 -15 926 71 950 c 0,268,269
 91 956 91 956 119 953 c 0,270,271
 135 952 135 952 136 951 c 0,272,273
 140 946 140 946 144 930 c 0,274,275
 153 888 153 888 153 858 c 1,276,277
 155 858 155 858 160 860 c 0,278,279
 182 867 182 867 188 863 c 0,280,281
 194 858 194 858 194 843 c 0,282,283
 195 793 195 793 191 787 c 0,284,285
 189 785 189 785 188 784 c 0,286,287
 182 781 182 781 118 764 c 0,288,289
 115 763 115 763 114 763 c 0,290,291
 -1 723 -1 723 -48 689 c 0,292,293
 -85 660 -85 660 -94 656 c 1,294,295
 -111 653 -111 653 -118 658 c 1,296,297
 -127 669 -127 669 -121 684 c 0,298,299
 -116 694 -116 694 -91 730 c 1,300,301
 -97 726 -97 726 -108 717 c 0,302,303
 -125 703 -125 703 -135 699 c 0,304,305
 -143 697 -143 697 -175 697 c 0,306,307
 -198 698 -198 698 -201 700 c 0,308,309
 -211 708 -211 708 -214 743 c 0,310,311
 -214 746 -214 746 -216 751 c 0,312,313
 -218 759 -218 759 -219 763 c 0,314,315
 -217 786 -217 786 -176 830 c 0,316,317
 -172 834 -172 834 -170 836 c 1,236,237
-120 1066 m 1,318,319
 -63 1066 -63 1066 -52 1063 c 0,320,321
 -49 1062 -49 1062 -39 1057 c 0,322,323
 -19 1047 -19 1047 -13 1048 c 0,324,325
 8 1058 8 1058 -14 1088 c 0,326,327
 -24 1100 -24 1100 -34 1105 c 0,328,329
 -34 1107 -34 1107 -40 1106 c 128,-1,330
 -46 1105 -46 1105 -47 1105 c 128,-1,331
 -48 1105 -48 1105 -54 1104 c 2,332,-1
 -59 1102 l 1,333,334
 -107 1086 -107 1086 -120 1066 c 1,318,319
-92 1012 m 1,335,336
 -119 998 -119 998 -120 981 c 1,337,-1
 -91 1010 l 1,338,-1
 -92 1012 l 1,335,336
-172 1002 m 1,339,340
 -197 975 -197 975 -197 941 c 0,341,342
 -197 936 -197 936 -195 932 c 0,343,344
 -191 925 -191 925 -176 909 c 1,345,346
 -140 877 -140 877 -110 866 c 1,347,-1
 -116 848 l 1,348,-1
 -105 843 l 1,349,-1
 -111 825 l 1,350,-1
 -99 820 l 1,351,-1
 -107 802 l 1,352,353
 -38 834 -38 834 44 858 c 0,354,355
 85 871 85 871 90 875 c 0,356,357
 98 885 98 885 99 897 c 1,358,359
 82 896 82 896 49 892 c 0,360,361
 -29 883 -29 883 -73 891 c 1,362,363
 -142 905 -142 905 -164 959 c 0,364,365
 -169 975 -169 975 -172 1002 c 1,339,340
-86 735 m 1,366,-1
 -91 731 l 1,367,-1
 -91 730 l 1,368,-1
 -85 733 l 1,369,-1
 -86 735 l 1,366,-1
EndSplineSet
AlternateSubs2: "gsub_alternate_dfl_aalt_arab_FAR_Lookup_01_Subtable_01" uniFE8A uniFE8B uniFE89 uniFE8C
Substitution2: "gsub_single_rtl_fina_arab_FAR_Lookup_01_Subtable_01" uniFE8A
Substitution2: "gsub_single_rtl_init_arab_FAR_Lookup_01_Subtable_01" uniFE8B
Substitution2: "gsub_single_rtl_medi_arab_FAR_Lookup_01_Subtable_01" uniFE8C
EndChar

StartChar: uniFE8A
Encoding: 65162 65162 346
Width: 1106
VWidth: 1639
GlyphClass: 2
Flags: W
LayerCount: 2
Fore
SplineSet
921 -336 m 1,0,1
 831 -317 831 -317 796 -303 c 0,2,3
 785 -298 785 -298 765 -285 c 0,4,5
 748 -274 748 -274 740 -271 c 0,6,7
 731 -266 731 -266 712 -258 c 0,8,9
 673 -242 673 -242 655 -226 c 1,10,11
 627 -198 627 -198 613 -139 c 0,12,13
 603 -93 603 -93 602 -85 c 0,14,15
 599 -9 599 -9 662 61 c 1,16,17
 782 188 782 188 984 210 c 0,18,19
 988 210 988 210 1086 210 c 1,20,-1
 1097 164 l 1,21,22
 915 163 915 163 775 64 c 0,23,24
 689 3 689 3 664 -69 c 1,25,26
 654 -116 654 -116 657 -136 c 1,27,28
 667 -171 667 -171 721 -203 c 1,29,30
 767 -228 767 -228 889 -252 c 0,31,32
 908 -256 908 -256 922 -259 c 0,33,34
 946 -265 946 -265 978 -271 c 1,35,36
 996 -276 996 -276 1002 -282 c 0,37,38
 1004 -286 1004 -286 1011 -323 c 0,39,40
 1015 -344 1015 -344 1014 -348 c 0,41,42
 1006 -364 1006 -364 973 -384 c 1,43,44
 916 -427 916 -427 853 -451 c 0,45,46
 726 -500 726 -500 555 -500 c 0,47,48
 455 -500 455 -500 389 -489 c 1,49,50
 247 -460 247 -460 167 -382 c 1,51,52
 95 -308 95 -308 76 -156 c 0,53,54
 75 -147 75 -147 74 -130 c 0,55,56
 73 -104 73 -104 71 -92 c 1,57,-1
 70 -92 l 1,58,59
 70 -105 70 -105 65 -129 c 0,60,61
 62 -143 62 -143 60 -149 c 0,62,63
 49 -249 49 -249 70 -318 c 0,64,65
 99 -409 99 -409 155 -481 c 1,66,67
 253 -601 253 -601 410 -632 c 0,68,69
 443 -639 443 -639 476 -640 c 0,70,71
 692 -646 692 -646 900 -510 c 0,72,73
 1003 -441 1003 -441 1051 -371 c 1,74,75
 1068 -341 1068 -341 1077 -318 c 0,76,77
 1085 -293 1085 -293 1087 -276 c 0,78,79
 1090 -249 1090 -249 1086 -233 c 1,80,81
 1073 -200 1073 -200 1036 -182 c 0,82,83
 1007 -168 1007 -168 906 -146 c 0,84,85
 901 -145 901 -145 898 -144 c 0,86,87
 886 -141 886 -141 862 -136 c 0,88,89
 817 -126 817 -126 795 -120 c 1,90,91
 765 -109 765 -109 772 -89 c 1,92,93
 760 -80 760 -80 767 -66 c 1,94,95
 749 -56 749 -56 769 -36 c 0,96,97
 792 -17 792 -17 838 -2 c 0,98,99
 916 24 916 24 1102 23 c 0,100,101
 1119 23 1119 23 1129 23 c 1,102,-1
 1150 -66 l 1,103,104
 1049 -66 1049 -66 988 -77 c 0,105,106
 944 -84 944 -84 922 -95 c 1,107,108
 938 -100 938 -100 972 -106 c 0,109,110
 1054 -123 1054 -123 1088 -146 c 1,111,112
 1113 -168 1113 -168 1124 -203 c 0,113,114
 1129 -223 1129 -223 1131 -226 c 0,115,116
 1133 -229 1133 -229 1155 -249 c 0,117,118
 1163 -257 1163 -257 1167 -264 c 0,119,120
 1213 -360 1213 -360 1148 -459 c 0,121,122
 1142 -468 1142 -468 1136 -476 c 0,123,124
 1090 -535 1090 -535 995 -599 c 0,125,126
 826 -712 826 -712 618 -727 c 0,127,128
 501 -735 501 -735 409 -707 c 0,129,130
 394 -702 394 -702 311 -662 c 0,131,132
 308 -660 308 -660 306 -659 c 0,133,134
 295 -652 295 -652 271 -642 c 0,135,136
 247 -631 247 -631 236 -625 c 0,137,138
 165 -582 165 -582 117 -520 c 1,139,140
 53 -432 53 -432 24 -308 c 0,141,142
 -9 -164 -9 -164 14 -56 c 1,143,144
 36 38 36 38 68 90 c 1,145,146
 92 124 92 124 101 122 c 1,147,148
 106 119 106 119 109 116 c 1,149,150
 123 124 123 124 130 116 c 1,151,152
 146 129 146 129 150 114 c 0,153,154
 151 107 151 107 149 100 c 1,155,156
 159 92 159 92 155 77 c 1,157,158
 167 68 167 68 155 41 c 1,159,160
 140 -5 140 -5 132 -62 c 1,161,-1
 133 -62 l 1,162,163
 142 -28 142 -28 174 18 c 1,164,165
 191 39 191 39 202 31 c 1,166,167
 206 24 206 24 200 5 c 0,168,169
 186 -41 186 -41 181 -64 c 0,170,171
 160 -160 160 -160 172 -251 c 0,172,173
 180 -302 180 -302 188 -318 c 0,174,175
 194 -331 194 -331 226 -358 c 0,176,177
 282 -405 282 -405 381 -433 c 0,178,179
 592 -492 592 -492 809 -400 c 0,180,181
 844 -387 844 -387 884 -362 c 1,182,183
 917 -339 917 -339 921 -338 c 1,184,-1
 921 -336 l 1,0,1
132 -64 m 1,185,-1
 131 -66 l 1,186,-1
 132 -64 l 1,185,-1
73 -85 m 1,187,-1
 72 -87 l 1,188,-1
 73 -85 l 1,187,-1
73 -90 m 1,189,-1
 71 -90 l 1,190,-1
 73 -90 l 1,189,-1
-88 479 m 1,191,192
 -151 502 -151 502 -165 587 c 0,193,194
 -169 612 -169 612 -166 633 c 0,195,196
 -153 717 -153 717 -75 768 c 0,197,198
 -48 785 -48 785 -21 792 c 0,199,200
 -12 794 -12 794 -2 795.5 c 128,-1,201
 8 797 8 797 12.5 797 c 128,-1,202
 17 797 17 797 34 797 c 2,203,-1
 51 797 l 1,204,205
 84 795 84 795 99 779 c 1,206,207
 112 762 112 762 125 707 c 1,208,209
 159 700 159 700 171 651 c 0,210,211
 179 614 179 614 162 599 c 0,212,213
 146 586 146 586 99 608 c 0,214,215
 78 618 78 618 67 620 c 0,216,217
 48 622 48 622 14 596 c 0,218,219
 10 592 10 592 6 590 c 1,220,-1
 6 589 l 1,221,222
 68 569 68 569 153 592 c 0,223,224
 173 598 173 598 201 595 c 0,225,226
 217 594 217 594 218 594 c 0,227,228
 222 589 222 589 226 572 c 0,229,230
 235 530 235 530 235 500 c 1,231,232
 237 500 237 500 243 503 c 0,233,234
 265 510 265 510 271 505 c 0,235,236
 277 500 277 500 277 485 c 0,237,238
 278 435 278 435 273 429 c 0,239,240
 271 427 271 427 271 426 c 0,241,242
 265 423 265 423 200 406 c 0,243,244
 197 405 197 405 196 405 c 0,245,246
 81 365 81 365 35 331 c 0,247,248
 -2 302 -2 302 -11 298 c 1,249,250
 -28 295 -28 295 -36 300 c 1,251,252
 -45 311 -45 311 -39 326 c 0,253,254
 -34 336 -34 336 -8 372 c 1,255,256
 -14 368 -14 368 -25 359 c 0,257,258
 -42 345 -42 345 -53 341 c 0,259,260
 -61 339 -61 339 -92 339 c 0,261,262
 -115 340 -115 340 -119 343 c 0,263,264
 -129 351 -129 351 -132 385 c 0,265,266
 -132 388 -132 388 -134 393 c 0,267,268
 -136 401 -136 401 -136 405 c 0,269,270
 -134 428 -134 428 -94 472 c 0,271,272
 -90 477 -90 477 -88 479 c 1,191,192
-37 708 m 1,273,274
 20 708 20 708 31 705 c 0,275,276
 34 704 34 704 44 699 c 0,277,278
 64 689 64 689 69 690 c 0,279,280
 90 700 90 700 68 731 c 0,281,282
 58 743 58 743 48 748 c 0,283,284
 48 750 48 750 42 749 c 128,-1,285
 36 748 36 748 35.5 748 c 128,-1,286
 35 748 35 748 29 746 c 2,287,-1
 23 745 l 1,288,289
 -24 728 -24 728 -37 708 c 1,273,274
-9 654 m 1,290,291
 -36 640 -36 640 -37 623 c 1,292,-1
 -9 653 l 1,293,-1
 -9 654 l 1,290,291
-89 645 m 1,294,295
 -114 618 -114 618 -114 584 c 0,296,297
 -114 578 -114 578 -113 574 c 0,298,299
 -109 567 -109 567 -94 551 c 1,300,301
 -58 519 -58 519 -27 508 c 1,302,-1
 -34 490 l 1,303,-1
 -22 485 l 1,304,-1
 -29 467 l 1,305,-1
 -17 462 l 1,306,-1
 -25 444 l 1,307,308
 44 476 44 476 127 500 c 0,309,310
 168 513 168 513 173 517 c 0,311,312
 181 527 181 527 182 540 c 1,313,314
 165 539 165 539 131 535 c 0,315,316
 52 527 52 527 10 533 c 1,317,318
 -59 547 -59 547 -81 602 c 0,319,320
 -86 618 -86 618 -89 645 c 1,294,295
-3 377 m 1,321,-1
 -9 374 l 1,322,-1
 -8 372 l 1,323,-1
 -3 376 l 1,324,-1
 -3 377 l 1,321,-1
EndSplineSet
EndChar

StartChar: uniFE8B
Encoding: 65163 65163 347
Width: 621
VWidth: 1639
GlyphClass: 2
Flags: W
LayerCount: 2
Fore
SplineSet
-72 907 m 1,0,1
 -114 940 -114 940 -122 950 c 0,2,3
 -125 954 -125 954 -126 956 c 0,4,5
 -132 967 -132 967 -141 1009 c 0,6,7
 -161 1101 -161 1101 -77 1175 c 0,8,9
 -46 1202 -46 1202 -12 1215 c 0,10,11
 17 1226 17 1226 77 1227 c 0,12,13
 108 1226 108 1226 118 1219 c 1,14,15
 139 1197 139 1197 151 1137 c 1,16,17
 184 1133 184 1133 196 1086 c 1,18,19
 207 1039 207 1039 182 1027 c 1,20,-1
 183 1025 l 2,21,22
 183 1027 183 1027 202 1026 c 2,23,-1
 222 1025 l 2,24,25
 224 1024 224 1024 229 1025 c 0,26,27
 236 1025 236 1025 238 1023 c 0,28,29
 242 1019 242 1019 244 1002 c 1,30,31
 254 972 254 972 253 930 c 1,32,33
 287 936 287 936 290 935 c 0,34,35
 296 930 296 930 296 915 c 0,36,37
 296 864 296 864 287 856 c 1,38,39
 278 851 278 851 256 848 c 1,40,41
 224 836 224 836 199 830 c 0,42,43
 99 797 99 797 46 759 c 0,44,45
 42 756 42 756 32 749 c 0,46,47
 11 732 11 732 -2 728 c 0,48,49
 -18 725 -18 725 -25 730 c 1,50,51
 -33 740 -33 740 -27 756 c 0,52,53
 -21 769 -21 769 10 807 c 1,54,55
 4 803 4 803 -7 793 c 0,56,57
 -30 775 -30 775 -42 771 c 0,58,59
 -49 769 -49 769 -79 769 c 0,60,61
 -106 770 -106 770 -108 771 c 0,62,63
 -113 775 -113 775 -121 813 c 0,64,65
 -121 816 -121 816 -123 822 c 0,66,67
 -125 829 -125 829 -125 833 c 0,68,69
 -122 853 -122 853 -89 889 c 0,70,71
 -78 903 -78 903 -72 907 c 1,0,1
-10 1138 m 1,72,73
 0 1136 0 1136 20 1137 c 0,74,75
 48 1137 48 1137 62 1132 c 0,76,77
 64 1131 64 1131 70 1128 c 0,78,79
 89 1118 89 1118 95 1120 c 0,80,81
 114 1132 114 1132 97 1160 c 1,82,83
 88 1172 88 1172 78 1176 c 0,84,85
 66 1179 66 1179 51 1173 c 0,86,87
 4 1157 4 1157 -10 1138 c 1,72,73
19 1086 m 1,88,89
 -18 1069 -18 1069 -13 1048 c 1,90,-1
 20 1084 l 1,91,-1
 19 1086 l 1,88,89
-66 1071 m 1,92,93
 -81 1056 -81 1056 -91 1020 c 1,94,95
 -90 998 -90 998 -90 999 c 1,96,97
 -77 966 -77 966 -14 938 c 0,98,99
 -11 937 -11 937 -10 936 c 2,100,-1
 -17 920 l 1,101,-1
 -5 913 l 1,102,-1
 -12 897 l 1,103,-1
 0 891 l 1,104,-1
 -6 877 l 1,105,106
 1 879 1 879 13 886 c 0,107,108
 26 893 26 893 33 895 c 0,109,110
 54 902 54 902 98 916 c 0,111,112
 133 927 133 927 150 933 c 0,113,114
 188 944 188 944 193 950 c 0,115,116
 198 959 198 959 199 969 c 1,117,118
 196 969 196 969 193.5 968.5 c 128,-1,119
 191 968 191 968 189 967 c 128,-1,120
 187 966 187 966 183.5 966 c 128,-1,121
 180 966 180 966 178.5 965 c 128,-1,122
 177 964 177 964 173 964 c 128,-1,123
 169 964 169 964 167.5 964 c 128,-1,124
 166 964 166 964 162 964 c 2,125,-1
 157 963 l 1,126,127
 130 960 130 960 115 959 c 0,128,129
 23 959 23 959 -8 973 c 1,130,131
 -50 993 -50 993 -59 1036 c 0,132,133
 -65 1060 -65 1060 -66 1071 c 1,92,93
170 1022 m 1,134,135
 162 1023 162 1023 124 1040 c 0,136,137
 119 1042 119 1042 116 1043 c 0,138,139
 68 1062 68 1062 37 1028 c 0,140,141
 32 1022 32 1022 29 1017 c 1,142,143
 68 1001 68 1001 145 1016 c 0,144,145
 161 1019 161 1019 170 1020 c 1,146,-1
 170 1022 l 1,134,135
181 1025 m 1,147,-1
 182 1023 l 1,148,-1
 181 1025 l 1,147,-1
177 1023 m 1,149,-1
 173 1022 l 1,150,-1
 177 1022 l 1,151,-1
 177 1023 l 1,149,-1
14 810 m 1,152,-1
 13 809 l 1,153,-1
 14 810 l 1,152,-1
11 809 m 1,154,-1
 10 807 l 1,155,-1
 11 809 l 1,154,-1
-78 210 m 1,156,157
 67 210 67 210 113 215 c 0,158,159
 138 217 138 217 162 225 c 1,160,161
 176 235 l 0,162,163
 177 242 177 242 159 271 c 0,164,165
 147 288 147 288 119 319 c 0,166,167
 94 348 94 348 84 362 c 0,168,169
 77 373 77 373 75 402 c 0,170,171
 75 404 75 404 73 408 c 0,172,173
 71 414 71 414 70 417 c 0,174,175
 70 426 70 426 74 451 c 1,176,177
 76 477 76 477 83 525 c 0,178,179
 88 565 88 565 91 569 c 0,180,181
 93 571 93 571 93 572 c 0,182,183
 92 575 92 575 101 574 c 2,184,-1
 110 572 l 2,185,186
 114 572 114 572 123 574 c 0,187,188
 138 576 138 576 143 574 c 0,189,190
 154 572 154 572 172 546 c 2,191,-1
 173 544 l 1,192,193
 199 511 199 511 236 444 c 0,194,195
 243 432 243 432 257 409 c 0,196,197
 282 368 282 368 292 346 c 0,198,199
 357 203 357 203 334 79 c 0,200,201
 330 58 330 58 324 41 c 0,202,203
 288 -62 288 -62 117 -67 c 0,204,205
 89 -68 89 -68 35 -66 c 0,206,207
 2 -65 2 -65 -14 -66 c 1,208,-1
 -34 23 l 1,209,210
 102 23 102 23 153 47 c 0,211,212
 160 50 160 50 165 52 c 0,213,214
 256 105 256 105 240 261 c 0,215,216
 236 308 236 308 232 323 c 0,217,218
 213 385 213 385 178 446 c 0,219,220
 173 453 173 453 162 468 c 0,221,222
 146 490 146 490 141 500 c 1,223,-1
 139 500 l 1,224,225
 138 479 138 479 130 428 c 0,226,227
 126 401 126 401 128 397 c 0,228,229
 134 387 134 387 170 346 c 1,230,231
 214 288 214 288 226 238 c 1,232,233
 237 206 237 206 235 195 c 1,234,235
 229 174 229 174 165 169 c 1,236,237
 112 163 112 163 -67 164 c 1,238,-1
 -78 210 l 1,156,157
EndSplineSet
EndChar

StartChar: uniFE8C
Encoding: 65164 65164 348
Width: 531
VWidth: 1639
GlyphClass: 2
Flags: W
LayerCount: 2
Fore
SplineSet
11 763 m 1,0,1
 -48 787 -48 787 -60 867 c 0,2,3
 -64 895 -64 895 -59 917 c 0,4,5
 -53 947 -53 947 -26 986 c 0,6,7
 40 1079 40 1079 129 1079 c 0,8,9
 134 1079 134 1079 145 1080 c 0,10,11
 190 1082 190 1082 206 1069 c 1,12,13
 220 1056 220 1056 228 1016 c 0,14,15
 231 1003 231 1003 234 995 c 0,16,17
 235 994 235 994 256 981 c 0,18,19
 261 977 261 977 263 976 c 0,20,21
 295 939 295 939 280 898 c 0,22,23
 274 885 274 885 266 877 c 1,24,25
 266 879 266 879 286 878 c 2,26,-1
 307 877 l 1,27,-1
 322 877 l 1,28,29
 326 873 326 873 328 856 c 1,30,31
 337 822 337 822 338 782 c 1,32,33
 340 782 340 782 346 785 c 0,34,35
 369 793 369 793 374 789 c 0,36,37
 381 783 381 783 381 768 c 0,38,39
 382 720 382 720 371 710 c 0,40,41
 362 703 362 703 304 689 c 0,42,43
 297 687 297 687 293 686 c 0,44,45
 177 647 177 647 129 612 c 1,46,-1
 82 581 l 1,47,48
 65 579 65 579 59 584 c 0,49,50
 57 586 57 586 55.5 589 c 128,-1,51
 54 592 54 592 54 595.5 c 128,-1,52
 54 599 54 599 54.5 600.5 c 128,-1,53
 55 602 55 602 56 606 c 2,54,-1
 57 610 l 1,55,56
 63 621 63 621 78 640 c 0,57,58
 88 652 88 652 92 658 c 1,59,60
 85 654 85 654 72 643 c 0,61,62
 54 629 54 629 43 625 c 0,63,64
 30 620 30 620 1 623 c 1,65,66
 -22 624 -22 624 -24 625 c 0,67,68
 -29 630 -29 630 -36 666 c 0,69,70
 -36 669 -36 669 -39 676 c 0,71,72
 -41 683 -41 683 -41 686 c 0,73,74
 -39 709 -39 709 -1 748 c 0,75,76
 7 757 7 757 11 763 c 1,0,1
73 991 m 1,77,78
 130 991 130 991 141 987 c 0,79,80
 145 986 145 986 154 981 c 0,81,82
 172 972 172 972 178 973 c 1,83,84
 200 981 200 981 183 1011 c 1,85,86
 173 1025 173 1025 162 1030 c 0,87,88
 155 1032 155 1032 135 1027 c 1,89,90
 88 1009 88 1009 73 991 c 1,77,78
105 940 m 1,91,-1
 104 938 l 1,92,-1
 105 940 l 1,91,-1
102 938 m 1,93,94
 68 917 68 917 71 902 c 1,95,96
 86 911 86 911 102 938 c 1,93,94
18 925 m 1,97,98
 2 909 2 909 -5 874 c 0,99,100
 -9 858 -9 858 -6 853 c 0,101,102
 6 824 6 824 59 797 c 0,103,104
 68 793 68 793 74 790 c 1,105,-1
 65 774 l 1,106,-1
 79 768 l 1,107,-1
 70 751 l 1,108,-1
 84 745 l 1,109,-1
 77 730 l 1,110,111
 84 732 84 732 97 739 c 0,112,113
 111 746 111 746 117 748 c 0,114,115
 184 771 184 771 233 786 c 0,116,117
 271 797 271 797 277 803 c 0,118,119
 283 812 283 812 283 822 c 1,120,121
 266 821 266 821 232 817 c 0,122,123
 155 809 155 809 114 815 c 1,124,125
 48 829 48 829 27 881 c 1,126,127
 22 897 22 897 18 925 c 1,97,98
258 876 m 1,128,129
 246 876 246 876 207 894 c 0,130,131
 203 896 203 896 200 897 c 0,132,133
 151 914 151 914 122 882 c 0,134,135
 117 875 117 875 113 869 c 1,136,137
 153 856 153 856 227 870 c 0,138,139
 246 873 246 873 259 874 c 1,140,-1
 258 876 l 1,128,129
262 877 m 1,141,-1
 263 876 l 1,142,-1
 262 877 l 1,141,-1
97 663 m 1,143,-1
 92 659 l 1,144,-1
 92 658 l 1,145,-1
 97 663 l 1,143,-1
-78 210 m 1,146,147
 -1 210 -1 210 36 212 c 0,148,149
 93 216 93 216 115 233 c 0,150,151
 144 258 144 258 166 345 c 0,152,153
 169 357 169 357 171 362 c 0,154,155
 178 397 178 397 185 408 c 1,156,157
 197 415 197 415 230 412 c 1,158,159
 247 414 247 414 250 408 c 0,160,161
 253 404 253 404 254 396 c 0,162,163
 256 389 256 389 257 387 c 0,164,165
 261 372 261 372 264 344 c 0,166,167
 267 315 267 315 271 300 c 1,168,169
 272 302 272 302 275 308 c 0,170,171
 287 333 287 333 300 323 c 1,172,173
 306 316 306 316 307 303 c 0,174,175
 306 263 306 263 312 254 c 1,176,177
 324 240 324 240 362 228 c 0,178,179
 414 210 414 210 496 210 c 1,180,-1
 506 164 l 1,181,182
 386 164 386 164 340 178 c 0,183,184
 335 179 335 179 332 180 c 0,185,186
 272 202 272 202 244 244 c 1,187,188
 233 263 233 263 223 310 c 1,189,-1
 221 310 l 1,190,191
 220 291 220 291 208 261 c 1,192,193
 193 207 193 207 170 187 c 1,194,195
 145 169 145 169 90 166 c 0,196,197
 54 164 54 164 -28 164 c 0,198,199
 -55 164 -55 164 -67 164 c 1,200,-1
 -78 210 l 1,146,147
187 162 m 1,201,-1
 200 146 l 1,202,-1
 208 162 l 1,203,-1
 209 162 l 1,204,-1
 221 146 l 1,205,-1
 229 162 l 1,206,-1
 231 162 l 1,207,208
 254 130 254 130 277 108 c 0,209,210
 361 29 361 29 498 24 c 0,211,212
 517 23 517 23 539 23 c 1,213,-1
 559 -66 l 1,214,215
 478 -65 478 -65 423 -44 c 0,216,217
 412 -39 412 -39 392 -27 c 0,218,219
 371 -15 371 -15 361 -10 c 0,220,221
 353 -6 353 -6 336 1 c 0,222,223
 288 22 288 22 270 41 c 1,224,-1
 268 41 l 1,225,226
 261 23 261 23 240 -3 c 0,227,228
 206 -42 206 -42 168 -56 c 0,229,230
 127 -71 127 -71 31 -67 c 0,231,232
 1 -66 1 -66 -14 -66 c 1,233,-1
 -34 23 l 1,234,235
 39 23 39 23 54 28 c 0,236,237
 140 48 140 48 179 141 c 0,238,239
 184 152 184 152 187 162 c 1,201,-1
EndSplineSet
EndChar

StartChar: alefarabic
Encoding: 1575 1575 349
AltUni2: 00fe8d.ffffffff.0
Width: 427
VWidth: 1639
GlyphClass: 2
Flags: HW
AnchorPoint: "GposMark2BaseAnchorClassErabAbove_01_02" 25 1628 basechar 0
AnchorPoint: "GposMark2BaseAnchorClassErabBelow_01_02" 25 -235 basechar 0
LayerCount: 2
Fore
SplineSet
131 -43 m 1,0,1
 125 -33 125 -33 120 -7 c 0,2,3
 117 6 117 6 113 33 c 0,4,5
 108 60 108 60 105 72 c 0,6,7
 66 254 66 254 44 344 c 0,8,9
 27 416 27 416 -104 891 c 0,10,11
 -168 1126 -168 1126 -201 1284 c 0,12,13
 -205 1305 -205 1305 -197 1340 c 0,14,15
 -190 1373 -190 1373 -177 1430 c 0,16,17
 -176 1433 -176 1433 -174 1443 c 0,18,19
 -168 1471 -168 1471 -161 1476 c 0,20,21
 -156 1478 -156 1478 -150 1467 c 0,22,23
 -149 1465 -149 1465 -148 1462 c 128,-1,24
 -147 1459 -147 1459 -146 1458 c 1,25,26
 -144 1478 -144 1478 -135 1473 c 1,27,28
 -129 1468 -129 1468 -127 1458 c 1,29,-1
 -125 1458 l 1,30,31
 -121 1476 -121 1476 -114 1474 c 1,32,33
 -110 1471 -110 1471 -102 1450 c 0,34,35
 -96 1432 -96 1432 -78 1355 c 1,36,-1
 -77 1355 l 1,37,38
 -77 1378 -77 1378 -67 1386 c 1,39,40
 -62 1387 -62 1387 -59 1384 c 0,41,42
 -50 1373 -50 1373 -40 1320 c 0,43,44
 -38 1312 -38 1312 -37 1307 c 0,45,46
 -27 1276 -27 1276 22 1077 c 0,47,48
 23 1071 23 1071 25 1068 c 0,49,50
 183 447 183 447 203 358 c 0,51,52
 212 318 212 318 220 280 c 0,53,54
 255 112 255 112 243 2 c 1,55,56
 233 -66 233 -66 223 -80 c 0,57,58
 220 -84 220 -84 216 -85 c 1,59,60
 204 -57 204 -57 195 5 c 1,61,-1
 194 5 l 1,62,63
 190 -32 190 -32 174 -43 c 1,64,-1
 166 -21 l 1,65,-1
 165 -21 l 1,66,67
 162 -35 162 -35 153 -43 c 1,68,-1
 145 -21 l 1,69,-1
 143 -21 l 1,70,71
 140 -35 140 -35 131 -43 c 1,0,1
-126 1368 m 1,72,73
 -131 1355 -131 1355 -137 1323 c 1,74,75
 -151 1269 -151 1269 -149 1246 c 0,76,77
 -147 1228 -147 1228 -128 1159 c 1,78,79
 -85 992 l 1,80,81
 37 540 37 540 95 312 c 0,82,83
 106 267 106 267 127 175 c 0,84,85
 140 114 140 114 147 84 c 1,86,-1
 148 84 l 1,87,88
 148 101 148 101 149 134 c 0,89,90
 151 184 151 184 149 210 c 0,91,92
 135 368 135 368 56 659 c 0,93,94
 39 722 39 722 8 850 c 0,95,96
 -24 978 -24 978 -41 1040 c 0,97,98
 -100 1257 -100 1257 -126 1368 c 1,72,73
196 7 m 1,99,-1
 195 7 l 1,100,-1
 196 7 l 1,99,-1
EndSplineSet
AlternateSubs2: "gsub_alternate_dfl_aalt_arab_FAR_Lookup_01_Subtable_01" uniFE8E alefarabic
Substitution2: "gsub_single_rtl_fina_arab_FAR_Lookup_01_Subtable_01" uniFE8E
EndChar

StartChar: uniFE8E
Encoding: 65166 65166 350
Width: 500
VWidth: 1639
GlyphClass: 2
Flags: HW
AnchorPoint: "GposMark2BaseAnchorClassErabAbove_01_02" 172.5 1633 basechar 0
AnchorPoint: "GposMark2BaseAnchorClassErabBelow_01_02" 172.5 -216 basechar 0
LayerCount: 2
Fore
SplineSet
545 -66 m 1,0,1
 453 -65 453 -65 394 -39 c 0,2,3
 383 -34 383 -34 363 -22 c 0,4,5
 347 -12 347 -12 339 -8 c 0,6,7
 332 -5 332 -5 318 0 c 0,8,9
 303 5 303 5 297 8 c 0,10,11
 236 41 236 41 191 100 c 0,12,13
 124 189 124 189 69 379 c 0,14,15
 67 386 67 386 63 399 c 0,16,17
 58 415 58 415 57 421 c 0,18,19
 33 501 33 501 -10 663 c 0,20,21
 -54 825 -54 825 -78 905 c 0,22,23
 -119 1043 -119 1043 -142 1112 c 0,24,25
 -149 1131 -149 1131 -165 1168 c 0,26,27
 -181 1205 -181 1205 -188 1223 c 0,28,29
 -189 1227 -189 1227 -199 1271 c 0,30,31
 -200 1283 -200 1283 -187 1325 c 0,32,33
 -185 1335 -185 1335 -181 1354 c 0,34,35
 -173 1392 -173 1392 -169 1412 c 0,36,37
 -159 1463 -159 1463 -156 1469 c 0,38,39
 -148 1482 -148 1482 -135 1465 c 1,40,41
 -133 1482 -133 1482 -122 1474 c 1,42,43
 -118 1469 -118 1469 -115 1465 c 1,44,-1
 -114 1465 l 1,45,46
 -111 1483 -111 1483 -99 1473 c 0,47,48
 -95 1468 -95 1468 -92 1463 c 0,49,50
 -85 1445 -85 1445 -76 1409 c 0,51,52
 -69 1382 -69 1382 -64 1369 c 1,53,-1
 -63 1369 l 1,54,55
 -64 1386 -64 1386 -53 1388 c 0,56,57
 -49 1389 -49 1389 -45 1384 c 0,58,59
 -38 1375 -38 1375 -24 1321 c 0,60,61
 -23 1317 -23 1317 -22 1314 c 0,62,63
 -19 1305 -19 1305 37 1114 c 0,64,65
 54 1054 54 1054 89 935 c 0,66,67
 169 657 169 657 213 518 c 0,68,69
 222 490 222 490 238 435 c 0,70,71
 254 379 254 379 262 351 c 0,72,73
 264 345 264 345 267 333 c 0,74,75
 276 298 276 298 286 284 c 0,76,77
 339 210 339 210 481 210 c 1,78,-1
 492 164 l 1,79,80
 381 164 381 164 341 177 c 0,81,82
 291 195 291 195 254 235 c 0,83,84
 207 287 207 287 172 414 c 2,85,-1
 171 415 l 1,86,-1
 122 581 l 1,87,-1
 -33 1107 l 2,88,89
 -41 1133 -41 1133 -57 1185 c 0,90,91
 -97 1312 -97 1312 -112 1376 c 1,92,-1
 -113 1376 l 1,93,94
 -116 1349 -116 1349 -132 1284 c 1,95,96
 -143 1247 -143 1247 -142 1243 c 0,97,98
 -141 1235 -141 1235 -117 1177 c 0,99,100
 -115 1173 -115 1173 -115 1171 c 0,101,102
 -89 1098 -89 1098 -66 1022 c 0,103,104
 -16 851 -16 851 80 499 c 0,105,106
 133 302 133 302 175 221 c 0,107,108
 205 164 205 164 242 123 c 0,109,110
 325 31 325 31 474 24 c 0,111,112
 496 23 496 23 524 23 c 1,113,-1
 545 -66 l 1,0,1
EndSplineSet
EndChar

StartChar: afii57416
Encoding: 1576 1576 351
AltUni2: 00fe8f.ffffffff.0
Width: 1601
VWidth: 1639
GlyphClass: 2
Flags: HW
AnchorPoint: "GposMark2BaseAnchorClassErabAbove_01_02" 668.5 798 basechar 0
AnchorPoint: "GposMark2BaseAnchorClassErabBelow_01_02" 668.5 -721 basechar 0
LayerCount: 2
Fore
SplineSet
1231 303 m 1,0,1
 1227 307 1227 307 1194 343 c 0,2,3
 1162 376 1162 376 1133 403 c 0,4,5
 1129 407 1129 407 1117 417 c 0,6,7
 1091 439 1091 439 1084 449 c 0,8,9
 1082 452 1082 452 1084 458 c 0,10,11
 1084 463 1084 463 1084 464 c 0,12,13
 1083 470 1083 470 1079 481 c 0,14,15
 1075 493 1075 493 1073 499 c 0,16,17
 1072 506 1072 506 1080 535 c 1,18,19
 1090 585 1090 585 1096 608 c 0,20,21
 1104 639 1104 639 1105 640 c 0,22,23
 1112 648 1112 648 1125 636 c 1,24,25
 1131 647 1131 647 1146 636 c 1,26,27
 1148 641 1148 641 1151.5 643 c 128,-1,28
 1155 645 1155 645 1160.5 641.5 c 128,-1,29
 1166 638 1166 638 1169.5 635.5 c 128,-1,30
 1173 633 1173 633 1180 626 c 2,31,-1
 1187 620 l 1,32,33
 1241 570 1241 570 1281 515 c 0,34,35
 1287 506 1287 506 1320 448 c 0,36,37
 1326 437 1326 437 1340 415 c 0,38,39
 1362 381 1362 381 1369 364 c 0,40,41
 1413 258 1413 258 1383 153 c 0,42,43
 1345 24 1345 24 1124 -54 c 0,44,45
 900 -131 900 -131 611 -131 c 0,46,47
 427 -131 427 -131 333 -107 c 0,48,49
 284 -93 284 -93 182 -43 c 1,50,51
 85 7 85 7 53 34 c 0,52,53
 34 51 34 51 19 69 c 0,54,55
 -29 125 -29 125 -51 221 c 0,56,57
 -76 333 -76 333 -58 435 c 1,58,59
 -43 503 -43 503 -14 538 c 1,60,61
 11 562 11 562 20 553 c 1,62,63
 36 558 36 558 42 553 c 1,64,65
 53 558 53 558 59 553.5 c 128,-1,66
 65 549 65 549 67.5 539.5 c 128,-1,67
 70 530 70 530 72 519 c 0,68,69
 72 515 72 515 75 507 c 0,70,71
 77 496 77 496 77 492 c 0,72,73
 77 486 77 486 64 437 c 0,74,75
 61 425 61 425 61 417 c 1,76,-1
 62 417 l 1,77,78
 71 445 71 445 94 464 c 1,79,80
 109 471 109 471 116 464 c 0,81,82
 124 452 124 452 112 419 c 0,83,84
 111 415 111 415 110 413 c 0,85,86
 95 354 95 354 100 302 c 1,87,88
 100 272 100 272 108 261 c 1,89,90
 135 234 135 234 191 210 c 1,91,92
 289 164 289 164 429 149 c 0,93,94
 692 121 692 121 949 185 c 0,95,96
 1126 229 1126 229 1231 302 c 1,97,-1
 1231 303 l 1,0,1
1 412 m 1,98,99
 -17 302 -17 302 -15 266 c 0,100,101
 -13 245 -13 245 -10 226 c 0,102,103
 32 62 32 62 254 -9 c 0,104,105
 309 -26 309 -26 367 -36 c 0,106,107
 417 -43 417 -43 542 -43 c 0,108,109
 770 -43 770 -43 958 13 c 1,110,111
 1122 59 1122 59 1206 126 c 0,112,113
 1298 201 1298 201 1299 320 c 0,114,115
 1299 366 1299 366 1293 385 c 0,116,117
 1275 442 1275 442 1223 503 c 0,118,119
 1176 556 1176 556 1170 562 c 0,120,121
 1160 570 1160 570 1152 574 c 1,122,123
 1147 543 1147 543 1137 507 c 0,124,125
 1133 485 1133 485 1134 479 c 0,126,127
 1138 471 1138 471 1173 442 c 0,128,129
 1177 438 1177 438 1179 436 c 0,130,131
 1248 370 1248 370 1263 347 c 0,132,133
 1277 325 1277 325 1282 307 c 0,134,135
 1290 271 1290 271 1290 267 c 0,136,137
 1288 261 1288 261 1284 257 c 0,138,139
 1267 238 1267 238 1212 213 c 1,140,141
 1138 176 1138 176 1056 154 c 0,142,143
 888 106 888 106 648 95 c 0,144,145
 507 88 507 88 372 107 c 1,146,147
 228 129 228 129 142 172 c 0,148,149
 66 210 66 210 35 264 c 0,150,151
 13 303 13 303 3 405 c 0,152,153
 3 409 3 409 3 412 c 1,154,-1
 1 412 l 1,98,99
61 417 m 1,155,-1
 60 415 l 1,156,-1
 61 417 l 1,155,-1
597 -366 m 1,157,158
 604 -343 604 -343 648 -276 c 0,159,160
 654 -268 654 -268 657 -262 c 0,161,162
 671 -229 671 -229 680 -225 c 0,163,164
 682 -225 682 -225 686 -227 c 0,165,166
 691 -230 691 -230 694 -230 c 0,167,168
 696 -230 696 -230 698 -227 c 0,169,170
 702 -225 702 -225 703 -225 c 0,171,172
 705 -225 705 -225 710 -228 c 0,173,174
 714 -230 714 -230 715 -230 c 0,175,176
 717 -230 717 -230 720 -227 c 0,177,178
 724 -225 724 -225 726 -225 c 0,179,180
 730 -227 730 -227 757 -248 c 1,181,182
 786 -268 786 -268 827 -298 c 0,183,184
 877 -334 877 -334 883 -341 c 1,185,-1
 875 -354 l 1,186,-1
 887 -362 l 1,187,-1
 888 -364 l 1,188,-1
 880 -377 l 1,189,-1
 893 -385 l 1,190,-1
 893 -387 l 1,191,-1
 889 -395 l 1,192,-1
 935 -428 l 1,193,-1
 935 -430 l 1,194,-1
 852 -571 l 1,195,-1
 850 -571 l 1,196,-1
 791 -525 l 1,197,-1
 789 -525 l 1,198,-1
 788 -528 l 1,199,-1
 787 -528 l 1,200,-1
 774 -517 l 1,201,-1
 772 -517 l 1,202,-1
 767 -528 l 1,203,-1
 766 -528 l 1,204,-1
 608 -412 l 1,205,-1
 615 -399 l 1,206,-1
 615 -397 l 1,207,-1
 602 -389 l 1,208,-1
 610 -376 l 1,209,-1
 609 -374 l 1,210,-1
 597 -366 l 1,157,158
721 -290 m 1,211,212
 714 -297 714 -297 686 -348 c 0,213,214
 683 -353 683 -353 682 -356 c 0,215,216
 669 -377 669 -377 668 -382 c 1,217,218
 672 -390 672 -390 689 -402 c 0,219,220
 746 -443 746 -443 748 -444 c 0,221,222
 765 -457 765 -457 769 -458 c 1,223,224
 770 -456 770 -456 773 -454.5 c 128,-1,225
 776 -453 776 -453 777.5 -449.5 c 128,-1,226
 779 -446 779 -446 780 -443.5 c 128,-1,227
 781 -441 781 -441 783 -437 c 2,228,-1
 785 -433 l 2,229,230
 790 -425 790 -425 800 -407 c 0,231,232
 816 -380 816 -380 825 -367 c 1,233,-1
 824 -366 l 1,234,-1
 721 -290 l 1,211,212
EndSplineSet
AlternateSubs2: "gsub_alternate_dfl_aalt_arab_FAR_Lookup_01_Subtable_01" uniFE90 uniFE91 afii57416 uniFE92
Substitution2: "gsub_single_rtl_fina_arab_FAR_Lookup_01_Subtable_01" uniFE90
Substitution2: "gsub_single_rtl_init_arab_FAR_Lookup_01_Subtable_01" uniFE91
Substitution2: "gsub_single_rtl_medi_arab_FAR_Lookup_01_Subtable_01" uniFE92
EndChar

StartChar: uniFE90
Encoding: 65168 65168 352
Width: 1458
VWidth: 1639
GlyphClass: 2
Flags: HW
AnchorPoint: "GposMark2BaseAnchorClassErabAbove_01_02" 706.5 704 basechar 0
AnchorPoint: "GposMark2BaseAnchorClassErabBelow_01_02" 706.5 -721 basechar 0
LayerCount: 2
Fore
SplineSet
1502 -66 m 1,0,1
 1447 -65 1447 -65 1406 -44 c 0,2,3
 1400 -41 1400 -41 1388 -33 c 0,4,5
 1372 -22 1372 -22 1365 -18 c 0,6,7
 1358 -14 1358 -14 1342 -9 c 0,8,9
 1322 -2 1322 -2 1312 3 c 0,10,11
 1289 16 1289 16 1263 39 c 0,12,13
 1262 40 1262 40 1259 43 c 0,14,15
 1248 53 1248 53 1244 54 c 0,16,17
 1238 53 1238 53 1225 39 c 0,18,19
 1218 33 1218 33 1203 23 c 0,20,21
 1188 12 1188 12 1181 7 c 0,22,23
 1116 -37 1116 -37 1039 -67 c 0,24,25
 789 -167 789 -167 541 -149 c 0,26,27
 377 -136 377 -136 279 -97 c 0,28,29
 247 -85 247 -85 189 -52 c 1,30,31
 86 -2 86 -2 46 37 c 0,32,33
 34 49 34 49 24 59 c 0,34,35
 -28 119 -28 119 -51 221 c 0,36,37
 -89 391 -89 391 -43 492 c 0,38,39
 -23 532 -23 532 -9 546 c 0,40,41
 -6 549 -6 549 11 550 c 0,42,43
 14 550 14 550 16 551 c 0,44,45
 18 551 18 551 24 552 c 0,46,47
 48 554 48 554 53 549 c 0,48,49
 62 542 62 542 64 510 c 0,50,51
 65 507 65 507 66 503 c 0,52,53
 69 496 69 496 69 492 c 0,54,55
 69 485 69 485 57 427 c 0,56,57
 55 417 55 417 55 410 c 1,58,59
 80 452 80 452 83 455 c 0,60,61
 86 458 86 458 88 459 c 0,62,63
 99 470 99 470 108 460 c 0,64,65
 110 457 110 457 110 456 c 0,66,67
 114 445 114 445 104 403 c 1,68,69
 91 338 91 338 95 297 c 0,70,71
 99 264 99 264 105 254 c 0,72,73
 108 249 108 249 111.5 245 c 128,-1,74
 115 241 115 241 121.5 236 c 128,-1,75
 128 231 128 231 130.5 229.5 c 128,-1,76
 133 228 133 228 142 222 c 2,77,-1
 150 216 l 2,78,79
 212 174 212 174 301 154 c 1,80,81
 384 132 384 132 521 126 c 0,82,83
 688 119 688 119 839 156 c 1,84,85
 1033 207 1033 207 1147 317 c 0,86,87
 1156 326 1156 326 1173 344 c 0,88,89
 1191 363 1191 363 1200 372 c 0,90,91
 1217 385 1217 385 1223 376 c 1,92,93
 1239 384 1239 384 1243 380 c 0,94,95
 1245 377 1245 377 1245 376 c 1,96,97
 1257 384 1257 384 1262 382 c 0,98,99
 1265 380 1265 380 1266.5 376 c 128,-1,100
 1268 372 1268 372 1269 365 c 2,101,-1
 1270 358 l 1,102,103
 1277 336 1277 336 1280 315 c 1,104,105
 1281 282 1281 282 1285 274 c 1,106,107
 1306 295 1306 295 1310 295 c 0,108,109
 1313 294 1313 294 1314 294 c 0,110,111
 1319 290 1319 290 1321 279 c 0,112,113
 1321 277 1321 277 1321 236 c 1,114,115
 1380 210 1380 210 1439 210 c 1,116,-1
 1449 164 l 1,117,118
 1349 164 1349 164 1315 176 c 0,119,120
 1269 195 1269 195 1248 235 c 1,121,122
 1238 258 1238 258 1232 300 c 1,123,124
 1226 296 1226 296 1180 251 c 0,125,126
 1175 247 1175 247 1173 244 c 0,127,128
 1129 208 1129 208 1053 167 c 1,129,130
 876 79 876 79 590 79 c 0,131,132
 470 79 470 79 410 85 c 0,133,134
 262 101 262 101 176 138 c 1,135,136
 79 182 79 182 38 251 c 0,137,138
 15 291 15 291 -2 397 c 0,139,140
 -3 402 -3 402 -4 405 c 1,141,-1
 -5 405 l 1,142,143
 -6 396 -6 396 -10 379 c 0,144,145
 -13 368 -13 368 -14 362 c 0,146,147
 -25 278 -25 278 -9 223 c 0,148,149
 42 55 42 55 255 -20 c 0,150,151
 343 -50 343 -50 436 -57 c 0,152,153
 774 -82 774 -82 1040 69 c 0,154,155
 1070 86 1070 86 1172 170 c 0,156,157
 1179 175 1179 175 1183 179 c 1,158,-1
 1190 164 l 1,159,-1
 1205 179 l 1,160,-1
 1211 164 l 1,161,-1
 1226 179 l 1,162,163
 1276 80 1276 80 1366 39 c 0,164,165
 1379 33 1379 33 1390 30 c 0,166,167
 1417 23 1417 23 1482 23 c 1,168,-1
 1502 -66 l 1,0,1
55 410 m 1,169,-1
 53 405 l 1,170,-1
 55 410 l 1,169,-1
-2 407 m 1,171,-1
 -4 407 l 1,172,-1
 -2 407 l 1,171,-1
597 -366 m 1,173,174
 604 -343 604 -343 648 -276 c 0,175,176
 654 -268 654 -268 657 -262 c 0,177,178
 671 -229 671 -229 680 -225 c 0,179,180
 682 -225 682 -225 686 -227 c 0,181,182
 691 -230 691 -230 694 -230 c 0,183,184
 696 -230 696 -230 698 -227 c 0,185,186
 702 -225 702 -225 703 -225 c 0,187,188
 705 -225 705 -225 710 -228 c 0,189,190
 714 -230 714 -230 715 -230 c 0,191,192
 717 -230 717 -230 720 -227 c 0,193,194
 724 -225 724 -225 726 -225 c 0,195,196
 730 -227 730 -227 757 -248 c 1,197,198
 786 -268 786 -268 827 -298 c 0,199,200
 877 -334 877 -334 883 -341 c 1,201,-1
 875 -354 l 1,202,-1
 887 -362 l 1,203,-1
 888 -364 l 1,204,-1
 880 -377 l 1,205,-1
 893 -385 l 1,206,-1
 893 -387 l 1,207,-1
 889 -395 l 1,208,-1
 935 -428 l 1,209,-1
 935 -430 l 1,210,-1
 852 -571 l 1,211,-1
 850 -571 l 1,212,-1
 791 -525 l 1,213,-1
 789 -525 l 1,214,-1
 788 -528 l 1,215,-1
 787 -528 l 1,216,-1
 774 -517 l 1,217,-1
 772 -517 l 1,218,-1
 767 -528 l 1,219,-1
 766 -528 l 1,220,-1
 608 -412 l 1,221,-1
 615 -399 l 1,222,-1
 615 -397 l 1,223,-1
 602 -389 l 1,224,-1
 610 -376 l 1,225,-1
 609 -374 l 1,226,-1
 597 -366 l 1,173,174
721 -290 m 1,227,228
 714 -297 714 -297 686 -348 c 0,229,230
 683 -353 683 -353 682 -356 c 0,231,232
 669 -377 669 -377 668 -382 c 1,233,234
 672 -390 672 -390 689 -402 c 0,235,236
 746 -443 746 -443 748 -444 c 0,237,238
 765 -457 765 -457 769 -458 c 1,239,240
 770 -456 770 -456 773 -454.5 c 128,-1,241
 776 -453 776 -453 777.5 -449.5 c 128,-1,242
 779 -446 779 -446 780 -443.5 c 128,-1,243
 781 -441 781 -441 783 -437 c 2,244,-1
 785 -433 l 2,245,246
 790 -425 790 -425 800 -407 c 0,247,248
 816 -380 816 -380 825 -367 c 1,249,-1
 824 -366 l 1,250,-1
 721 -290 l 1,227,228
EndSplineSet
EndChar

StartChar: uniFE91
Encoding: 65169 65169 353
Width: 525
VWidth: 1639
GlyphClass: 2
Flags: HW
AnchorPoint: "GposMark2BaseAnchorClassErabAbove_01_02" 182.5 726 basechar 0
AnchorPoint: "GposMark2BaseAnchorClassErabBelow_01_02" 182.5 -626 basechar 0
LayerCount: 2
Fore
SplineSet
-78 210 m 1,0,1
 67 210 67 210 113 215 c 0,2,3
 138 217 138 217 162 225 c 1,4,5
 176 235 l 0,6,7
 177 242 177 242 159 271 c 0,8,9
 147 288 147 288 119 319 c 0,10,11
 94 348 94 348 84 362 c 0,12,13
 77 373 77 373 75 402 c 0,14,15
 75 404 75 404 73 408 c 0,16,17
 71 414 71 414 70 417 c 0,18,19
 70 426 70 426 74 451 c 1,20,21
 76 477 76 477 83 525 c 0,22,23
 88 565 88 565 91 569 c 0,24,25
 93 571 93 571 93 572 c 0,26,27
 92 575 92 575 101 574 c 2,28,-1
 110 572 l 2,29,30
 114 572 114 572 123 574 c 0,31,32
 138 576 138 576 143 574 c 0,33,34
 154 572 154 572 172 546 c 2,35,-1
 173 544 l 1,36,37
 199 511 199 511 236 444 c 0,38,39
 243 432 243 432 257 409 c 0,40,41
 282 368 282 368 292 346 c 0,42,43
 357 203 357 203 334 79 c 0,44,45
 330 58 330 58 324 41 c 0,46,47
 288 -62 288 -62 117 -67 c 0,48,49
 89 -68 89 -68 35 -66 c 0,50,51
 2 -65 2 -65 -14 -66 c 1,52,-1
 -34 23 l 1,53,54
 102 23 102 23 153 47 c 0,55,56
 160 50 160 50 165 52 c 0,57,58
 256 105 256 105 240 261 c 0,59,60
 236 308 236 308 232 323 c 0,61,62
 213 385 213 385 178 446 c 0,63,64
 173 453 173 453 162 468 c 0,65,66
 146 490 146 490 141 500 c 1,67,-1
 139 500 l 1,68,69
 138 479 138 479 130 428 c 0,70,71
 126 401 126 401 128 397 c 0,72,73
 134 387 134 387 170 346 c 1,74,75
 214 288 214 288 226 238 c 1,76,77
 237 206 237 206 235 195 c 1,78,79
 229 174 229 174 165 169 c 1,80,81
 112 163 112 163 -67 164 c 1,82,-1
 -78 210 l 1,0,1
281 -425 m 1,83,84
 277 -440 277 -440 248 -415 c 0,85,86
 245 -412 245 -412 243 -412 c 0,87,88
 228 -401 228 -401 200 -380 c 0,89,90
 171 -358 171 -358 156 -348 c 0,91,92
 127 -329 127 -329 121 -321 c 1,93,94
 119 -315 119 -315 121 -305 c 0,95,96
 121 -303 121 -303 117 -300 c 0,97,98
 114 -296 114 -296 114 -295 c 0,99,100
 113 -293 113 -293 115 -289 c 0,101,102
 116 -284 116 -284 115 -282 c 0,103,104
 114 -280 114 -280 112 -276 c 0,105,106
 109 -272 109 -272 108 -271 c 0,107,108
 109 -268 109 -268 121 -246 c 0,109,110
 127 -237 127 -237 137 -218 c 0,111,112
 148 -199 148 -199 154 -190 c 0,113,114
 158 -183 158 -183 166 -169 c 0,115,116
 175 -154 175 -154 179 -148 c 0,117,118
 186 -135 186 -135 191 -133 c 1,119,120
 198 -134 198 -134 206 -141 c 1,121,122
 211 -129 211 -129 228 -141 c 1,123,124
 232 -125 232 -125 263 -152 c 0,125,126
 266 -155 266 -155 268 -156 c 2,127,-1
 356 -220 l 2,128,129
 359 -222 359 -222 367 -227 c 0,130,131
 385 -240 385 -240 389 -246 c 1,132,133
 390 -251 390 -251 385 -262 c 1,134,135
 396 -267 396 -267 392 -281 c 0,136,137
 391 -284 391 -284 391 -285 c 0,138,139
 401 -292 401 -292 397 -300 c 1,140,-1
 397 -302 l 1,141,142
 437 -325 437 -325 442 -336 c 0,143,144
 443 -339 443 -339 441 -344 c 128,-1,145
 439 -349 439 -349 437 -353.5 c 128,-1,146
 435 -358 435 -358 430 -363 c 2,147,-1
 425 -369 l 1,148,149
 418 -381 418 -381 403 -407 c 0,150,151
 388 -433 388 -433 382 -444 c 0,152,153
 380 -447 380 -447 376 -456 c 0,154,155
 367 -473 367 -473 361 -476 c 1,156,157
 356 -476 356 -476 340 -464 c 0,158,159
 315 -446 315 -446 281 -425 c 1,83,84
333 -272 m 1,160,161
 319 -263 319 -263 292 -241 c 0,162,163
 250 -207 250 -207 229 -198 c 1,164,-1
 175 -290 l 1,165,-1
 176 -292 l 1,166,-1
 277 -367 l 1,167,-1
 278 -367 l 1,168,-1
 314 -308 l 1,169,-1
 333 -272 l 1,160,161
EndSplineSet
EndChar

StartChar: uniFE92
Encoding: 65170 65170 354
Width: 516
VWidth: 1639
GlyphClass: 2
Flags: HW
AnchorPoint: "GposMark2BaseAnchorClassErabAbove_01_02" 240.5 567 basechar 0
AnchorPoint: "GposMark2BaseAnchorClassErabBelow_01_02" 240.5 -626 basechar 0
LayerCount: 2
Fore
SplineSet
-78 210 m 1,0,1
 -65 210 -65 210 -38 209 c 0,2,3
 79 204 79 204 117 235 c 0,4,5
 125 242 125 242 131 249 c 0,6,7
 149 273 149 273 170 360 c 0,8,9
 176 384 176 384 181 399 c 0,10,11
 186 417 186 417 223 412 c 0,12,13
 227 412 227 412 228 412 c 2,14,-1
 248 412 l 1,15,16
 252 407 252 407 257 387 c 2,17,-1
 265 349 l 1,18,19
 267 311 267 311 269 308 c 0,20,21
 271 304 271 304 274 300 c 1,22,23
 285 334 285 334 301 321 c 0,24,25
 309 314 309 314 307 280 c 0,26,27
 307 262 307 262 312 253 c 1,28,29
 323 240 323 240 358 227 c 2,30,-1
 359 226 l 2,31,32
 407 210 407 210 496 210 c 1,33,-1
 506 164 l 1,34,35
 385 164 385 164 342 175 c 0,36,37
 276 194 276 194 245 244 c 0,38,39
 232 267 232 267 223 310 c 1,40,-1
 221 310 l 1,41,42
 220 291 220 291 208 261 c 1,43,44
 193 207 193 207 170 187 c 1,45,46
 145 169 145 169 90 166 c 0,47,48
 54 164 54 164 -28 164 c 0,49,50
 -55 164 -55 164 -67 164 c 1,51,-1
 -78 210 l 1,0,1
187 162 m 1,52,-1
 200 146 l 1,53,-1
 208 162 l 1,54,-1
 209 162 l 1,55,-1
 221 146 l 1,56,-1
 229 162 l 1,57,-1
 231 162 l 1,58,59
 254 130 254 130 277 108 c 0,60,61
 361 29 361 29 498 24 c 0,62,63
 517 23 517 23 539 23 c 1,64,-1
 559 -66 l 1,65,66
 478 -65 478 -65 423 -44 c 0,67,68
 412 -39 412 -39 392 -27 c 0,69,70
 371 -15 371 -15 361 -10 c 0,71,72
 353 -6 353 -6 336 1 c 0,73,74
 288 22 288 22 270 41 c 1,75,-1
 268 41 l 1,76,77
 261 23 261 23 240 -3 c 0,78,79
 206 -42 206 -42 168 -56 c 0,80,81
 127 -71 127 -71 31 -67 c 0,82,83
 1 -66 1 -66 -14 -66 c 1,84,-1
 -34 23 l 1,85,86
 39 23 39 23 54 28 c 0,87,88
 140 48 140 48 179 141 c 0,89,90
 184 152 184 152 187 162 c 1,52,-1
162 -274 m 1,91,92
 164 -267 164 -267 181 -238 c 0,93,94
 188 -226 188 -226 203 -200 c 0,95,96
 218 -174 218 -174 225 -162 c 0,97,98
 239 -138 239 -138 241 -138 c 0,99,100
 250 -135 250 -135 261 -141 c 1,101,102
 266 -131 266 -131 283 -141 c 1,103,104
 287 -125 287 -125 318 -152 c 0,105,106
 321 -155 321 -155 323 -156 c 2,107,-1
 411 -220 l 2,108,109
 443 -245 443 -245 444 -246 c 0,110,111
 445 -251 445 -251 440 -262 c 1,112,113
 451 -270 451 -270 446 -285 c 1,114,115
 452 -288 452 -288 455 -299 c 0,116,117
 457 -303 457 -303 458 -305 c 0,118,119
 462 -309 462 -309 474 -317 c 0,120,121
 493 -330 493 -330 497 -336 c 0,122,123
 498 -339 498 -339 496 -344 c 128,-1,124
 494 -349 494 -349 492 -353.5 c 128,-1,125
 490 -358 490 -358 485 -363 c 2,126,-1
 480 -369 l 1,127,-1
 434 -448 l 2,128,129
 433 -450 433 -450 430 -457 c 0,130,131
 422 -473 422 -473 416 -476 c 1,132,133
 412 -476 412 -476 393 -462 c 0,134,135
 365 -442 365 -442 336 -425 c 1,136,137
 330 -437 330 -437 296 -410 c 0,138,139
 282 -400 282 -400 254 -379 c 0,140,141
 199 -338 199 -338 173 -320 c 1,142,143
 174 -303 174 -303 168 -297 c 1,144,145
 169 -280 169 -280 162 -274 c 1,91,92
287 -198 m 1,146,147
 272 -212 272 -212 238 -275 c 0,148,149
 233 -284 233 -284 230 -290 c 1,150,-1
 230 -292 l 1,151,-1
 332 -367 l 1,152,-1
 333 -367 l 1,153,-1
 368 -308 l 1,154,-1
 388 -272 l 1,155,-1
 287 -198 l 1,146,147
EndSplineSet
EndChar

StartChar: afii57417
Encoding: 1577 1577 355
AltUni2: 00fe93.ffffffff.0
Width: 596
VWidth: 1639
GlyphClass: 2
Flags: HW
AnchorPoint: "GposMark2BaseAnchorClassErabAbove_01_02" 99 1173 basechar 0
AnchorPoint: "GposMark2BaseAnchorClassErabBelow_01_02" 99 -216 basechar 0
LayerCount: 2
Fore
SplineSet
-118 1017 m 1,0,1
 -62 969 -62 969 -35 948 c 0,2,3
 -33 946 -33 946 -26 940 c 0,4,5
 -11 927 -11 927 -5 927 c 1,6,7
 -2 928 -2 928 13 946 c 0,8,9
 19 954 19 954 33 971 c 0,10,11
 47 988 47 988 54 995 c 0,12,13
 70 1014 70 1014 74 1014 c 0,14,15
 81 1013 81 1013 87 1009 c 1,16,17
 95 1021 95 1021 107 1009 c 1,18,-1
 109 1009 l 1,19,20
 115 1023 115 1023 144 998 c 0,21,22
 149 994 149 994 150 992 c 0,23,24
 226 929 226 929 262 899 c 1,25,-1
 262 897 l 1,26,-1
 254 887 l 1,27,-1
 254 886 l 1,28,-1
 267 876 l 1,29,-1
 268 874 l 1,30,-1
 259 864 l 1,31,-1
 260 863 l 1,32,-1
 273 853 l 1,33,-1
 273 851 l 1,34,-1
 269 848 l 1,35,-1
 270 846 l 1,36,-1
 315 810 l 1,37,-1
 315 809 l 1,38,39
 303 793 303 793 278 763 c 0,40,41
 252 733 252 733 241 718 c 0,42,43
 239 716 239 716 235 709 c 0,44,45
 220 689 220 689 213 689 c 0,46,47
 207 690 207 690 197 699 c 0,48,49
 162 730 162 730 157 735 c 1,50,-1
 155 735 l 1,51,52
 148 730 148 730 139 740 c 1,53,-1
 137 740 l 1,54,55
 129 723 129 723 87 762 c 0,56,57
 82 767 82 767 80 769 c 0,58,59
 66 781 66 781 62 781 c 0,60,61
 55 779 55 779 43 759 c 0,62,63
 36 750 36 750 21 732 c 0,64,65
 6 713 6 713 -1 705 c 0,66,67
 -3 703 -3 703 -7 698 c 0,68,69
 -16 688 -16 688 -20 686 c 0,70,71
 -24 684 -24 684 -36 694 c 2,72,-1
 -37 695 l 2,73,74
 -40 698 -40 698 -48 706 c 0,75,76
 -68 725 -68 725 -77 728 c 0,77,78
 -89 733 -89 733 -97 731 c 0,79,80
 -99 731 -99 731 -103 730 c 0,81,82
 -107 728 -107 728 -111 730 c 0,83,84
 -119 734 -119 734 -148 761 c 0,85,86
 -175 784 -175 784 -222 822 c 0,87,88
 -246 843 -246 843 -247 846 c 0,89,90
 -247 853 -247 853 -242 858 c 1,91,-1
 -243 859 l 1,92,93
 -258 872 -258 872 -248 881 c 1,94,-1
 -248 882 l 1,95,96
 -267 894 -267 894 -245 918 c 0,97,98
 -241 922 -241 922 -239 923 c 0,99,100
 -194 973 -194 973 -162 1017 c 1,101,-1
 -160 1017 l 1,102,103
 -147 1009 -147 1009 -140 1017 c 1,104,-1
 -139 1017 l 1,105,106
 -126 1009 -126 1009 -119 1017 c 1,107,-1
 -118 1017 l 1,0,1
202 874 m 1,108,-1
 136 932 l 1,109,-1
 110 950 l 1,110,-1
 89 928 l 1,111,-1
 44 874 l 1,112,-1
 135 795 l 1,113,-1
 136 795 l 1,114,-1
 202 874 l 1,108,-1
-125 950 m 1,115,-1
 -171 894 l 1,116,-1
 -190 868 l 1,117,118
 -173 856 -173 856 -126 815 c 0,119,120
 -123 813 -123 813 -117 808 c 0,121,122
 -105 798 -105 798 -100 795 c 1,123,124
 -96 795 -96 795 -85 809 c 0,125,126
 -79 816 -79 816 -66 831 c 0,127,128
 -53 846 -53 846 -48 853 c 0,129,130
 -47 854 -47 854 -44 857 c 0,131,132
 -33 868 -33 868 -36 874 c 0,133,134
 -43 884 -43 884 -61 897 c 0,135,136
 -71 906 -71 906 -93 923 c 0,137,138
 -115 942 -115 942 -125 950 c 1,115,-1
-15 481 m 1,139,140
 -13 515 -13 515 5 592 c 0,141,142
 14 628 14 628 21 633 c 1,143,144
 20 636 20 636 29 635 c 2,145,-1
 38 633 l 1,146,147
 75 635 75 635 100 623 c 0,148,149
 204 571 204 571 280 497 c 0,150,151
 311 467 311 467 361 380 c 0,152,153
 365 374 365 374 368 369 c 0,154,155
 414 297 414 297 416 292 c 0,156,157
 465 180 465 180 450 64 c 1,158,159
 440 9 440 9 418 -16 c 0,160,161
 371 -65 371 -65 264 -66 c 0,162,163
 211 -65 211 -65 179 -54 c 0,164,165
 169 -51 169 -51 128 -25 c 0,166,167
 121 -20 121 -20 115 -18 c 0,168,169
 108 -14 108 -14 93 -10 c 0,170,171
 82 -7 82 -7 77 -5 c 0,172,173
 39 12 39 12 16 43 c 0,174,175
 -8 76 -8 76 -24 144 c 0,176,177
 -52 268 -52 268 -35 356 c 0,178,179
 -31 371 -31 371 -20 399 c 0,180,181
 -6 435 -6 435 -3 454 c 1,182,-1
 -10 458 l 1,183,-1
 -8 477 l 1,184,-1
 -15 481 l 1,139,140
37 367 m 1,185,186
 13 311 13 311 11 254 c 0,187,188
 9 151 9 151 35 106 c 0,189,190
 37 102 37 102 39 100 c 0,191,192
 92 18 92 18 202 23 c 0,193,194
 272 27 272 27 313 64 c 0,195,196
 373 115 373 115 357 240 c 0,197,198
 349 302 349 302 323 351 c 0,199,200
 287 418 287 418 223 474 c 0,201,202
 168 521 168 521 114 551 c 1,203,204
 82 572 82 572 67 576 c 1,205,206
 65 568 65 568 59 549 c 0,207,208
 43 496 43 496 44 471 c 1,209,-1
 55 466 l 1,210,-1
 47 449 l 1,211,-1
 61 443 l 1,212,-1
 52 426 l 1,213,-1
 66 431 l 1,214,-1
 83 426 l 1,215,216
 87 431 87 431 104 426 c 1,217,218
 106 429 106 429 109.5 429.5 c 128,-1,219
 113 430 113 430 114.5 430 c 128,-1,220
 116 430 116 430 122 427 c 2,221,-1
 127 425 l 2,222,223
 137 420 137 420 156 409 c 0,224,225
 176 398 176 398 185 394 c 0,226,227
 290 330 290 330 318 275 c 0,228,229
 325 261 325 261 328 249 c 0,230,231
 339 213 339 213 338 202 c 1,232,233
 328 178 328 178 288 167 c 0,234,235
 251 159 251 159 154 159 c 0,236,237
 94 160 94 160 71 180 c 1,238,239
 55 197 55 197 45 239 c 0,240,241
 29 310 29 310 39 367 c 1,242,-1
 37 367 l 1,185,186
39 371 m 1,243,-1
 38 369 l 1,244,-1
 39 371 l 1,243,-1
160 344 m 1,245,246
 123 301 123 301 127 229 c 0,247,248
 128 218 128 218 130 210 c 1,249,250
 192 196 192 196 251 218 c 0,251,252
 280 229 280 229 281 243 c 1,253,254
 277 255 277 255 253 276 c 0,255,256
 235 292 235 292 160 344 c 1,245,246
EndSplineSet
AlternateSubs2: "gsub_alternate_dfl_aalt_arab_FAR_Lookup_01_Subtable_01" uniFE94 afii57417
Substitution2: "gsub_single_rtl_fina_arab_FAR_Lookup_01_Subtable_01" uniFE94
EndChar

StartChar: uniFE94
Encoding: 65172 65172 356
Width: 663
VWidth: 1639
GlyphClass: 2
Flags: HW
AnchorPoint: "GposMark2BaseAnchorClassErabAbove_01_02" 293 1364 basechar 0
AnchorPoint: "GposMark2BaseAnchorClassErabBelow_01_02" 293 -216 basechar 0
LayerCount: 2
Fore
SplineSet
216 1214 m 1,0,-1
 228 1204 l 1,1,-1
 230 1204 l 1,2,-1
 237 1214 l 1,3,-1
 238 1214 l 1,4,-1
 250 1204 l 1,5,-1
 251 1204 l 1,6,-1
 258 1214 l 1,7,-1
 260 1214 l 1,8,-1
 405 1092 l 1,9,-1
 406 1091 l 1,10,11
 400 1080 400 1080 410 1069 c 1,12,-1
 411 1068 l 1,13,14
 405 1057 405 1057 416 1046 c 1,15,-1
 416 1045 l 2,16,17
 417 1036 417 1036 453 1008 c 0,18,19
 456 1005 456 1005 458 1004 c 2,20,-1
 458 1002 l 1,21,22
 443 985 443 985 413 949 c 0,23,24
 393 925 393 925 384 913 c 0,25,26
 361 883 361 883 356 882 c 0,27,28
 353 882 353 882 344 890 c 2,29,-1
 342 892 l 2,30,31
 318 912 318 912 306 922 c 0,32,33
 297 929 297 929 281 930 c 0,34,35
 279 930 279 930 277 928 c 0,36,37
 271 926 271 926 268 927 c 0,38,39
 263 929 263 929 228 959 c 0,40,41
 224 962 224 962 223 963 c 0,42,43
 207 976 207 976 206 976 c 0,44,45
 200 975 200 975 183 953 c 0,46,47
 173 941 173 941 152 915 c 0,48,49
 131 889 131 889 121 877 c 1,50,-1
 119 877 l 1,51,52
 84 907 84 907 78 912 c 0,53,54
 63 923 63 923 58 920 c 1,55,-1
 56 920 l 1,56,57
 43 928 43 928 36 920 c 1,58,-1
 35 920 l 1,59,-1
 -64 1002 l 1,60,-1
 -111 1041 l 1,61,-1
 -111 1043 l 1,62,-1
 -101 1053 l 1,63,-1
 -102 1055 l 1,64,-1
 -116 1064 l 1,65,-1
 -116 1066 l 1,66,-1
 -107 1076 l 1,67,-1
 -107 1077 l 1,68,-1
 -121 1087 l 1,69,-1
 -122 1089 l 1,70,71
 -111 1099 -111 1099 -52 1173 c 0,72,73
 -46 1180 -46 1180 -43 1184 c 0,74,75
 -25 1205 -25 1205 -22 1206 c 0,76,77
 -14 1206 -14 1206 -7 1200 c 1,78,-1
 -6 1200 l 1,79,80
 2 1212 2 1212 14 1200 c 1,81,-1
 16 1200 l 1,82,83
 26 1211 26 1211 48 1191 c 0,84,85
 58 1182 58 1182 80 1165 c 0,86,87
 120 1134 120 1134 136 1117 c 1,88,-1
 137 1117 l 1,89,90
 147 1136 147 1136 202 1198 c 0,91,92
 211 1208 211 1208 216 1214 c 1,0,-1
345 1071 m 1,93,94
 301 1109 301 1109 279 1125 c 0,95,96
 256 1144 256 1144 254 1145 c 0,97,98
 251 1145 251 1145 247.5 1143 c 128,-1,99
 244 1141 244 1141 242.5 1139 c 128,-1,100
 241 1137 241 1137 238 1132 c 2,101,-1
 236 1127 l 1,102,103
 194 1079 194 1079 193 1077 c 0,104,105
 189 1070 189 1070 187 1066 c 1,106,-1
 253 1010 l 1,107,-1
 279 992 l 1,108,-1
 297 1012 l 1,109,-1
 345 1069 l 1,110,-1
 345 1071 l 1,93,94
109 1066 m 1,111,-1
 39 1125 l 1,112,-1
 16 1141 l 1,113,-1
 -4 1120 l 1,114,-1
 -49 1066 l 1,115,-1
 -19 1038 l 1,116,-1
 42 987 l 1,117,-1
 44 987 l 1,118,-1
 109 1066 l 1,111,-1
207 881 m 1,119,-1
 221 854 l 1,120,-1
 222 854 l 1,121,-1
 228 881 l 1,122,-1
 242 854 l 1,123,-1
 244 854 l 1,124,-1
 250 881 l 1,125,126
 260 870 260 870 269 842 c 2,127,-1
 270 840 l 2,128,129
 273 832 273 832 279 816 c 0,130,131
 291 786 291 786 294 772 c 1,132,-1
 302 792 l 1,133,134
 312 781 312 781 323 748 c 1,135,136
 346 688 346 688 354 666 c 0,137,138
 362 645 362 645 470 362 c 2,139,-1
 500 284 l 2,140,141
 512 254 512 254 518 248 c 0,142,143
 549 218 549 218 623 212 c 0,144,145
 637 211 637 211 644 210 c 1,146,-1
 655 164 l 1,147,148
 587 164 587 164 552 171 c 0,149,150
 514 179 514 179 499 189 c 0,151,152
 450 226 450 226 409 342 c 0,153,154
 401 363 401 363 400 367 c 0,155,156
 377 429 377 429 329 553 c 0,157,158
 272 699 272 699 246 772 c 1,159,-1
 244 772 l 1,160,161
 244 763 244 763 239 746 c 0,162,163
 232 720 232 720 233 707 c 0,164,165
 237 688 237 688 251 649 c 0,166,167
 262 618 262 618 266 604 c 1,168,169
 278 574 278 574 274 564 c 1,170,171
 269 558 269 558 253 551 c 1,172,173
 216 524 216 524 198 510 c 0,174,175
 104 431 104 431 36 335 c 0,176,177
 -12 267 -12 267 -12 212 c 1,178,179
 -9 198 -9 198 17 185 c 0,180,181
 33 178 33 178 98 170 c 0,182,183
 104 169 104 169 107 169 c 0,184,185
 188 160 188 160 239 194 c 0,186,187
 292 229 292 229 323 305 c 1,188,189
 171 269 171 269 69 302 c 1,190,-1
 68 305 l 1,191,-1
 82 320 l 1,192,-1
 64 325 l 1,193,-1
 63 328 l 1,194,-1
 76 343 l 1,195,-1
 59 348 l 1,196,-1
 58 351 l 1,197,198
 133 425 133 425 204 469 c 0,199,200
 227 484 227 484 244 490 c 1,201,202
 259 492 259 492 261 489 c 1,203,204
 280 491 280 491 282 489 c 1,205,-1
 302 494 l 1,206,207
 307 478 307 478 321 444 c 0,208,209
 343 390 343 390 349 364 c 2,210,-1
 358 325 l 1,211,212
 353 315 353 315 325 308 c 1,213,-1
 336 287 l 1,214,-1
 346 307 l 1,215,-1
 358 287 l 1,216,-1
 367 307 l 1,217,218
 372 301 372 301 397 249 c 0,219,220
 399 245 399 245 400 243 c 0,221,222
 459 131 459 131 478 106 c 0,223,224
 527 42 527 42 586 26 c 1,225,226
 608 22 608 22 687 23 c 1,227,-1
 708 -66 l 1,228,229
 640 -65 640 -65 610 -52 c 0,230,231
 601 -48 601 -48 585 -37 c 0,232,233
 571 -27 571 -27 565 -23 c 0,234,235
 557 -19 557 -19 540 -13 c 0,236,237
 517 -5 517 -5 506 2 c 0,238,239
 437 46 437 46 394 143 c 0,240,241
 390 153 390 153 387 161 c 1,242,243
 380 154 380 154 367 137 c 0,244,245
 347 112 347 112 335 103 c 0,246,247
 291 76 291 76 167 81 c 0,248,249
 152 82 152 82 144 82 c 0,250,251
 58 82 58 82 37 121 c 0,252,253
 35 125 35 125 35 128 c 1,254,255
 -16 129 -16 129 -42 157 c 0,256,257
 -49 166 -49 166 -55 190 c 0,258,259
 -70 245 -70 245 -63 280 c 0,260,261
 -39 392 -39 392 100 519 c 0,262,263
 111 529 111 529 123 540 c 0,264,265
 172 580 172 580 189 590 c 0,266,267
 191 592 191 592 198 596 c 0,268,269
 215 605 215 605 218 610 c 1,270,271
 219 617 219 617 206 648 c 1,272,273
 182 722 182 722 179 745 c 0,274,275
 177 752 177 752 178 759 c 128,-1,276
 179 766 179 766 182 779 c 2,277,-1
 186 792 l 1,278,279
 198 857 198 857 207 881 c 1,119,-1
297 379 m 1,280,-1
 251 348 l 1,281,-1
 251 346 l 1,282,283
 277 351 277 351 301 367 c 1,284,-1
 297 379 l 1,280,-1
250 346 m 1,285,-1
 248 344 l 1,286,-1
 250 346 l 1,285,-1
324 307 m 1,287,-1
 323 305 l 1,288,-1
 324 307 l 1,287,-1
EndSplineSet
EndChar

StartChar: afii57418
Encoding: 1578 1578 357
AltUni2: 00fe95.ffffffff.0
Width: 1601
VWidth: 1639
GlyphClass: 2
Flags: HW
AnchorPoint: "GposMark2BaseAnchorClassErabAbove_01_02" 668.5 1098 basechar 0
AnchorPoint: "GposMark2BaseAnchorClassErabBelow_01_02" 668.5 -281 basechar 0
LayerCount: 2
Fore
SplineSet
357 946 m 1,0,1
 370 935 370 935 397 913 c 0,2,3
 425 890 425 890 438 879 c 0,4,5
 466 857 466 857 467 856 c 0,6,7
 475 857 475 857 496 889 c 0,8,9
 502 896 502 896 514 909 c 0,10,11
 526 923 526 923 531 930 c 0,12,13
 544 947 544 947 547 948 c 1,14,15
 550 947 550 947 559 943 c 0,16,17
 562 942 562 942 565 945 c 0,18,19
 568 948 568 948 570 948 c 0,20,21
 572 948 572 948 576 945 c 0,22,23
 580 943 580 943 581 943 c 0,24,25
 583 943 583 943 587 945 c 0,26,27
 591 947 591 947 593 948 c 0,28,29
 599 945 599 945 619 927 c 1,30,31
 641 911 641 911 679 877 c 0,32,33
 703 856 703 856 704 854 c 0,34,35
 708 846 708 846 700 841 c 1,36,37
 714 825 714 825 705 818 c 1,38,39
 717 805 717 805 717 799 c 1,40,41
 744 786 744 786 756 768 c 0,42,43
 758 765 758 765 759 763 c 0,44,45
 759 758 759 758 748 745 c 2,46,-1
 713 704 l 1,47,48
 686 668 686 668 679 666 c 1,49,50
 670 666 670 666 641 695 c 0,51,52
 631 704 631 704 625 707 c 0,53,54
 615 715 615 715 603 712 c 0,55,56
 601 712 601 712 597 710 c 0,57,58
 592 709 592 709 590 710 c 0,59,60
 582 716 582 716 558 736 c 0,61,62
 494 791 494 791 482 799 c 1,63,-1
 513 771 l 1,64,-1
 525 759 l 1,65,-1
 505 731 l 1,66,-1
 446 659 l 1,67,-1
 444 659 l 1,68,-1
 387 708 l 1,69,-1
 386 708 l 1,70,-1
 382 702 l 1,71,-1
 381 702 l 1,72,-1
 369 713 l 1,73,-1
 368 713 l 1,74,-1
 361 702 l 1,75,-1
 360 702 l 1,76,-1
 242 800 l 1,77,-1
 242 802 l 1,78,-1
 251 810 l 1,79,-1
 237 823 l 1,80,-1
 237 825 l 1,81,-1
 245 833 l 1,82,-1
 232 846 l 1,83,-1
 231 848 l 1,84,-1
 312 946 l 1,85,-1
 314 946 l 1,86,87
 327 938 327 938 334 946 c 1,88,-1
 335 946 l 1,89,90
 348 938 348 938 355 946 c 1,91,-1
 357 946 l 1,0,1
603 772 m 1,92,-1
 635 812 l 1,93,-1
 646 828 l 1,94,95
 645 831 645 831 643 833.5 c 128,-1,96
 641 836 641 836 637 840 c 2,97,-1
 632 843 l 2,98,99
 629 846 629 846 621 854 c 0,100,101
 595 879 595 879 585 881 c 0,102,103
 580 881 580 881 575 873 c 2,104,-1
 574 871 l 2,105,106
 570 866 570 866 561 855 c 0,107,108
 552 844 552 844 547 840 c 0,109,110
 540 826 540 826 540 825 c 0,111,112
 544 820 544 820 558 809 c 0,113,114
 564 805 564 805 574 795 c 0,115,116
 594 778 594 778 603 772 c 1,92,-1
413 827 m 1,117,-1
 370 863 l 1,118,-1
 351 877 l 1,119,-1
 337 866 l 1,120,-1
 303 822 l 1,121,-1
 348 784 l 1,122,-1
 367 771 l 1,123,-1
 380 784 l 1,124,-1
 414 825 l 1,125,-1
 413 827 l 1,117,-1
480 840 m 1,126,-1
 480 840 l 1,126,-1
486 817 m 1,127,-1
 486 817 l 1,127,-1
1231 303 m 1,128,129
 1227 307 1227 307 1194 343 c 0,130,131
 1162 376 1162 376 1133 403 c 0,132,133
 1129 407 1129 407 1117 417 c 0,134,135
 1091 439 1091 439 1084 449 c 0,136,137
 1082 452 1082 452 1084 458 c 0,138,139
 1084 463 1084 463 1084 464 c 0,140,141
 1083 470 1083 470 1079 481 c 0,142,143
 1075 493 1075 493 1073 499 c 0,144,145
 1072 506 1072 506 1080 535 c 1,146,147
 1090 585 1090 585 1096 608 c 0,148,149
 1104 639 1104 639 1105 640 c 0,150,151
 1112 648 1112 648 1125 636 c 1,152,153
 1131 647 1131 647 1146 636 c 1,154,155
 1148 641 1148 641 1151.5 643 c 128,-1,156
 1155 645 1155 645 1160.5 641.5 c 128,-1,157
 1166 638 1166 638 1169.5 635.5 c 128,-1,158
 1173 633 1173 633 1180 626 c 2,159,-1
 1187 620 l 1,160,161
 1241 570 1241 570 1281 515 c 0,162,163
 1287 506 1287 506 1320 448 c 0,164,165
 1326 437 1326 437 1340 415 c 0,166,167
 1362 381 1362 381 1369 364 c 0,168,169
 1413 258 1413 258 1383 153 c 0,170,171
 1345 24 1345 24 1124 -54 c 0,172,173
 900 -131 900 -131 611 -131 c 0,174,175
 427 -131 427 -131 333 -107 c 0,176,177
 284 -93 284 -93 182 -43 c 1,178,179
 85 7 85 7 53 34 c 0,180,181
 34 51 34 51 19 69 c 0,182,183
 -29 125 -29 125 -51 221 c 0,184,185
 -76 333 -76 333 -58 435 c 1,186,187
 -43 503 -43 503 -14 538 c 1,188,189
 11 562 11 562 20 553 c 1,190,191
 36 558 36 558 42 553 c 1,192,193
 53 558 53 558 59 553.5 c 128,-1,194
 65 549 65 549 67.5 539.5 c 128,-1,195
 70 530 70 530 72 519 c 0,196,197
 72 515 72 515 75 507 c 0,198,199
 77 496 77 496 77 492 c 0,200,201
 77 486 77 486 64 437 c 0,202,203
 61 425 61 425 61 417 c 1,204,-1
 62 417 l 1,205,206
 71 445 71 445 94 464 c 1,207,208
 109 471 109 471 116 464 c 0,209,210
 124 452 124 452 112 419 c 0,211,212
 111 415 111 415 110 413 c 0,213,214
 95 354 95 354 100 302 c 1,215,216
 100 272 100 272 108 261 c 1,217,218
 135 234 135 234 191 210 c 1,219,220
 289 164 289 164 429 149 c 0,221,222
 692 121 692 121 949 185 c 0,223,224
 1126 229 1126 229 1231 302 c 1,225,-1
 1231 303 l 1,128,129
1 412 m 1,226,227
 -17 302 -17 302 -15 266 c 0,228,229
 -13 245 -13 245 -10 226 c 0,230,231
 32 62 32 62 254 -9 c 0,232,233
 309 -26 309 -26 367 -36 c 0,234,235
 417 -43 417 -43 542 -43 c 0,236,237
 770 -43 770 -43 958 13 c 1,238,239
 1122 59 1122 59 1206 126 c 0,240,241
 1298 201 1298 201 1299 320 c 0,242,243
 1299 366 1299 366 1293 385 c 0,244,245
 1275 442 1275 442 1223 503 c 0,246,247
 1176 556 1176 556 1170 562 c 0,248,249
 1160 570 1160 570 1152 574 c 1,250,251
 1147 543 1147 543 1137 507 c 0,252,253
 1133 485 1133 485 1134 479 c 0,254,255
 1138 471 1138 471 1173 442 c 0,256,257
 1177 438 1177 438 1179 436 c 0,258,259
 1248 370 1248 370 1263 347 c 0,260,261
 1277 325 1277 325 1282 307 c 0,262,263
 1290 271 1290 271 1290 267 c 0,264,265
 1288 261 1288 261 1284 257 c 0,266,267
 1267 238 1267 238 1212 213 c 1,268,269
 1138 176 1138 176 1056 154 c 0,270,271
 888 106 888 106 648 95 c 0,272,273
 507 88 507 88 372 107 c 1,274,275
 228 129 228 129 142 172 c 0,276,277
 66 210 66 210 35 264 c 0,278,279
 13 303 13 303 3 405 c 0,280,281
 3 409 3 409 3 412 c 1,282,-1
 1 412 l 1,226,227
61 417 m 1,283,-1
 60 415 l 1,284,-1
 61 417 l 1,283,-1
EndSplineSet
AlternateSubs2: "gsub_alternate_dfl_aalt_arab_FAR_Lookup_01_Subtable_01" uniFE96 uniFE97 afii57418 uniFE98
Substitution2: "gsub_single_rtl_fina_arab_FAR_Lookup_01_Subtable_01" uniFE96
Substitution2: "gsub_single_rtl_init_arab_FAR_Lookup_01_Subtable_01" uniFE97
Substitution2: "gsub_single_rtl_medi_arab_FAR_Lookup_01_Subtable_01" uniFE98
EndChar

StartChar: uniFE96
Encoding: 65174 65174 358
Width: 1460
VWidth: 1639
GlyphClass: 2
Flags: HW
AnchorPoint: "GposMark2BaseAnchorClassErabAbove_01_02" 707.5 1082 basechar 0
AnchorPoint: "GposMark2BaseAnchorClassErabBelow_01_02" 707.5 -317 basechar 0
LayerCount: 2
Fore
SplineSet
358 932 m 1,0,1
 371 921 371 921 398 898 c 0,2,3
 425 875 425 875 438 864 c 0,4,5
 440 862 440 862 447 856 c 0,6,7
 464 842 464 842 469 841 c 1,8,9
 475 843 475 843 491 864 c 0,10,11
 533 919 533 919 538 923 c 128,-1,12
 543 927 543 927 546 930 c 0,13,14
 549 931 549 931 561 928 c 0,15,16
 562 928 562 928 570 932 c 0,17,18
 572 932 572 932 576 930 c 0,19,20
 580 929 580 929 582 928 c 0,21,22
 584 927 584 927 588 930 c 0,23,24
 593 932 593 932 595 932 c 0,25,26
 603 929 603 929 630 904 c 0,27,28
 639 896 639 896 660 880 c 0,29,30
 697 851 697 851 712 835 c 1,31,-1
 702 823 l 1,32,-1
 717 812 l 1,33,-1
 707 800 l 1,34,-1
 722 789 l 1,35,-1
 718 787 l 1,36,-1
 764 746 l 1,37,-1
 682 648 l 1,38,-1
 680 648 l 1,39,40
 673 654 673 654 659 665 c 0,41,42
 644 677 644 677 639 682 c 0,43,44
 624 693 624 693 618 690 c 1,45,-1
 617 690 l 1,46,47
 605 698 605 698 597 690 c 1,48,-1
 596 690 l 1,49,-1
 484 784 l 1,50,-1
 483 782 l 1,51,-1
 528 745 l 1,52,-1
 529 743 l 1,53,-1
 468 669 l 2,54,55
 467 668 467 668 463 662 c 0,56,57
 451 646 451 646 444 646 c 1,58,59
 437 648 437 648 406 677 c 0,60,61
 398 684 398 684 393 687 c 0,62,63
 382 692 382 692 371 694 c 0,64,65
 368 694 368 694 365 691 c 0,66,67
 360 689 360 689 358 690 c 0,68,69
 345 695 345 695 300 737 c 0,70,71
 296 741 296 741 294 743 c 0,72,73
 291 745 291 745 282 751 c 0,74,75
 238 783 238 783 253 795 c 1,76,-1
 252 797 l 1,77,78
 237 810 237 810 247 818 c 1,79,-1
 247 820 l 1,80,81
 230 830 230 830 247 850 c 0,82,83
 251 854 251 854 252 856 c 0,84,85
 314 931 314 931 314 932 c 2,86,-1
 316 932 l 1,87,88
 329 924 329 924 336 932 c 1,89,-1
 337 932 l 1,90,91
 350 924 350 924 357 932 c 1,92,-1
 358 932 l 1,0,1
587 868 m 1,93,-1
 539 812 l 1,94,-1
 603 758 l 1,95,-1
 604 758 l 1,96,-1
 650 812 l 1,97,98
 642 825 642 825 596 860 c 0,99,100
 590 865 590 865 587 868 c 1,93,-1
351 864 m 1,101,-1
 304 809 l 1,102,-1
 305 807 l 1,103,-1
 350 769 l 1,104,-1
 367 756 l 1,105,-1
 379 764 l 1,106,-1
 405 797 l 1,107,-1
 412 812 l 1,108,-1
 394 828 l 1,109,-1
 351 864 l 1,101,-1
475 830 m 1,110,-1
 467 823 l 1,111,112
 472 814 472 814 477 819 c 1,113,114
 479 824 479 824 475 830 c 1,110,-1
480 807 m 1,115,-1
 473 800 l 1,116,117
 478 791 478 791 482 796 c 1,118,119
 484 801 484 801 480 807 c 1,115,-1
1504 -66 m 1,120,121
 1450 -65 1450 -65 1406 -44 c 0,122,123
 1400 -41 1400 -41 1388 -33 c 0,124,125
 1372 -22 1372 -22 1365 -18 c 0,126,127
 1358 -14 1358 -14 1343 -9 c 0,128,129
 1323 -1 1323 -1 1314 3 c 0,130,131
 1282 22 1282 22 1263 39 c 0,132,133
 1262 40 1262 40 1259 43 c 0,134,135
 1248 53 1248 53 1244 54 c 0,136,137
 1238 53 1238 53 1225 39 c 0,138,139
 1218 33 1218 33 1203 23 c 0,140,141
 1188 12 1188 12 1181 7 c 0,142,143
 1116 -37 1116 -37 1039 -67 c 0,144,145
 789 -167 789 -167 541 -149 c 0,146,147
 377 -136 377 -136 279 -97 c 0,148,149
 247 -85 247 -85 189 -52 c 1,150,151
 86 -2 86 -2 46 37 c 0,152,153
 34 49 34 49 24 59 c 0,154,155
 -28 119 -28 119 -51 221 c 0,156,157
 -89 391 -89 391 -43 492 c 0,158,159
 -23 532 -23 532 -9 546 c 0,160,161
 -6 549 -6 549 11 550 c 0,162,163
 14 550 14 550 16 551 c 0,164,165
 18 551 18 551 24 552 c 0,166,167
 48 554 48 554 53 549 c 0,168,169
 62 542 62 542 64 510 c 0,170,171
 65 507 65 507 66 503 c 0,172,173
 69 496 69 496 69 492 c 0,174,175
 69 485 69 485 57 427 c 0,176,177
 55 417 55 417 55 410 c 1,178,179
 80 452 80 452 83 455 c 0,180,181
 86 458 86 458 88 459 c 0,182,183
 99 470 99 470 108 460 c 0,184,185
 110 457 110 457 110 456 c 0,186,187
 114 445 114 445 104 403 c 1,188,189
 91 338 91 338 95 297 c 0,190,191
 99 264 99 264 105 254 c 0,192,193
 108 249 108 249 111.5 245 c 128,-1,194
 115 241 115 241 121.5 236 c 128,-1,195
 128 231 128 231 130.5 229.5 c 128,-1,196
 133 228 133 228 142 222 c 2,197,-1
 150 216 l 2,198,199
 212 174 212 174 301 154 c 1,200,201
 384 132 384 132 521 126 c 0,202,203
 688 119 688 119 839 156 c 1,204,205
 1033 207 1033 207 1147 317 c 0,206,207
 1156 326 1156 326 1173 344 c 0,208,209
 1191 363 1191 363 1200 372 c 0,210,211
 1217 385 1217 385 1223 376 c 1,212,213
 1239 384 1239 384 1243 380 c 0,214,215
 1245 377 1245 377 1245 376 c 1,216,217
 1257 384 1257 384 1262 382 c 0,218,219
 1265 380 1265 380 1266.5 376 c 128,-1,220
 1268 372 1268 372 1269 365 c 2,221,-1
 1270 358 l 1,222,223
 1277 336 1277 336 1280 315 c 1,224,225
 1281 282 1281 282 1285 274 c 1,226,227
 1306 295 1306 295 1310 295 c 0,228,229
 1313 294 1313 294 1314 294 c 0,230,231
 1319 290 1319 290 1321 279 c 0,232,233
 1321 277 1321 277 1321 236 c 1,234,235
 1380 210 1380 210 1440 210 c 1,236,-1
 1451 164 l 1,237,238
 1351 164 1351 164 1316 176 c 0,239,240
 1269 195 1269 195 1248 235 c 1,241,242
 1238 258 1238 258 1232 300 c 1,243,244
 1226 296 1226 296 1180 251 c 0,245,246
 1175 247 1175 247 1173 244 c 0,247,248
 1129 208 1129 208 1053 167 c 1,249,250
 876 79 876 79 590 79 c 0,251,252
 470 79 470 79 410 85 c 0,253,254
 262 101 262 101 176 138 c 1,255,256
 79 182 79 182 38 251 c 0,257,258
 15 291 15 291 -2 397 c 0,259,260
 -3 402 -3 402 -4 405 c 1,261,-1
 -5 405 l 1,262,263
 -6 396 -6 396 -10 379 c 0,264,265
 -13 368 -13 368 -14 362 c 0,266,267
 -25 278 -25 278 -9 223 c 0,268,269
 42 55 42 55 255 -20 c 0,270,271
 343 -50 343 -50 436 -57 c 0,272,273
 774 -82 774 -82 1040 69 c 0,274,275
 1070 86 1070 86 1172 170 c 0,276,277
 1179 175 1179 175 1183 179 c 1,278,-1
 1190 164 l 1,279,-1
 1205 179 l 1,280,-1
 1211 164 l 1,281,-1
 1226 179 l 1,282,283
 1277 75 1277 75 1376 36 c 0,284,285
 1392 30 1392 30 1406 26 c 0,286,287
 1422 22 1422 22 1483 23 c 1,288,-1
 1504 -66 l 1,120,121
55 410 m 1,289,-1
 53 405 l 1,290,-1
 55 410 l 1,289,-1
-2 407 m 1,291,-1
 -4 407 l 1,292,-1
 -2 407 l 1,291,-1
EndSplineSet
EndChar

StartChar: uniFE97
Encoding: 65175 65175 359
Width: 596
VWidth: 1639
GlyphClass: 2
Flags: HW
AnchorPoint: "GposMark2BaseAnchorClassErabAbove_01_02" 47.5 1113 basechar 0
AnchorPoint: "GposMark2BaseAnchorClassErabBelow_01_02" 47.5 -218 basechar 0
LayerCount: 2
Fore
SplineSet
-225 859 m 1,0,1
 -214 875 -214 875 -168 930 c 0,2,3
 -166 932 -166 932 -162 939 c 0,4,5
 -151 954 -151 954 -145 956 c 0,6,7
 -143 956 -143 956 -139 954 c 0,8,9
 -134 952 -134 952 -132 951 c 0,10,11
 -130 951 -130 951 -127 954 c 0,12,13
 -123 956 -123 956 -122 956 c 0,14,15
 -119 955 -119 955 -112 951 c 0,16,17
 -109 950 -109 950 -105 953 c 0,18,19
 -100 955 -100 955 -98 954 c 0,20,21
 -93 952 -93 952 -88.5 949 c 128,-1,22
 -84 946 -84 946 -76 939 c 2,23,-1
 -68 932 l 2,24,25
 -59 925 -59 925 -42 910 c 0,26,27
 -24 895 -24 895 -17 889 c 0,28,29
 10 868 10 868 11 868 c 0,30,31
 14 868 14 868 16.5 870 c 128,-1,32
 19 872 19 872 20.5 874.5 c 0,33,34
 22 878 22 878 25 882 c 2,35,-1
 28 886 l 1,36,37
 56 918 56 918 72 938 c 0,38,39
 88 957 88 957 93 957 c 0,40,41
 100 956 100 956 106 951 c 1,42,43
 114 963 114 963 126 951 c 1,44,-1
 127 951 l 1,45,46
 137 962 137 962 160 941 c 0,47,48
 170 933 170 933 189 917 c 0,49,50
 209 900 209 900 219 892 c 0,51,52
 222 889 222 889 229 884 c 0,53,54
 247 871 247 871 253 861 c 1,55,-1
 245 853 l 1,56,-1
 245 851 l 1,57,-1
 259 838 l 1,58,-1
 250 830 l 1,59,-1
 250 828 l 1,60,-1
 264 815 l 1,61,-1
 260 813 l 1,62,-1
 306 772 l 1,63,64
 301 767 301 767 249 703 c 0,65,66
 247 701 247 701 246 700 c 128,-1,67
 245 699 245 699 241 693 c 0,68,69
 229 677 229 677 223 677 c 0,70,71
 220 677 220 677 217 679 c 128,-1,72
 214 681 214 681 210 685 c 2,73,-1
 206 689 l 1,74,75
 166 723 l 2,76,-1
 165 723 l 1,77,78
 158 718 158 718 148 728 c 1,79,-1
 147 728 l 1,80,81
 137 717 137 717 112 740 c 0,82,83
 98 752 98 752 69 776 c 0,84,85
 39 800 39 800 25 812 c 1,86,-1
 24 810 l 1,87,-1
 69 772 l 1,88,-1
 70 771 l 1,89,-1
 12 699 l 1,90,-1
 -12 674 l 1,91,-1
 -28 684 l 1,92,-1
 -67 715 l 1,93,-1
 -87 725 l 1,94,-1
 -89 725 l 1,95,96
 -96 712 -96 712 -118 730 c 0,97,98
 -122 733 -122 733 -123 735 c 0,99,100
 -142 750 -142 750 -214 812 c 1,101,-1
 -215 813 l 1,102,-1
 -206 823 l 1,103,-1
 -207 825 l 1,104,-1
 -219 835 l 1,105,-1
 -220 836 l 1,106,-1
 -211 846 l 1,107,-1
 -212 848 l 1,108,-1
 -225 858 l 1,109,-1
 -225 859 l 1,0,1
193 840 m 1,110,-1
 145 881 l 1,111,-1
 127 892 l 1,112,-1
 114 877 l 1,113,-1
 81 840 l 1,114,-1
 129 799 l 1,115,-1
 147 787 l 1,116,-1
 160 802 l 1,117,-1
 193 840 l 1,110,-1
-43 836 m 1,118,-1
 -91 877 l 1,119,-1
 -108 889 l 1,120,-1
 -122 874 l 1,121,-1
 -154 836 l 1,122,123
 -146 825 -146 825 -98 787 c 0,124,125
 -93 783 -93 783 -91 781 c 1,126,-1
 -90 781 l 1,127,-1
 -43 836 l 1,118,-1
16 858 m 1,128,129
 6 848 6 848 15 845 c 1,130,131
 20 845 20 845 24 850 c 1,132,-1
 24 851 l 1,133,-1
 16 858 l 1,128,129
21 835 m 1,134,135
 11 825 11 825 20 822 c 1,136,137
 25 822 25 822 29 827 c 1,138,-1
 29 828 l 1,139,-1
 21 835 l 1,134,135
-115 210 m 1,140,141
 30 210 30 210 76 215 c 0,142,143
 101 217 101 217 124 225 c 1,144,145
 138 235 138 235 139 235 c 0,146,147
 140 242 140 242 121 271 c 0,148,149
 109 288 109 288 82 319 c 0,150,151
 57 348 57 348 47 362 c 0,152,153
 40 373 40 373 38 402 c 0,154,155
 38 404 38 404 35 408 c 0,156,157
 33 414 33 414 33 417 c 0,158,159
 33 426 33 426 37 451 c 1,160,161
 39 477 39 477 46 525 c 0,162,163
 51 565 51 565 53 569 c 0,164,165
 55 571 55 571 56 572 c 0,166,167
 55 575 55 575 64 574 c 2,168,-1
 73 572 l 2,169,170
 77 572 77 572 85 574 c 0,171,172
 100 576 100 576 106 574 c 0,173,174
 117 572 117 572 134 546 c 2,175,-1
 136 544 l 1,176,177
 162 511 162 511 199 444 c 0,178,179
 206 432 206 432 220 409 c 0,180,181
 245 368 245 368 255 346 c 0,182,183
 320 203 320 203 297 79 c 0,184,185
 293 58 293 58 287 41 c 0,186,187
 251 -62 251 -62 80 -67 c 0,188,189
 52 -68 52 -68 -3 -66 c 0,190,191
 -36 -65 -36 -65 -51 -66 c 1,192,-1
 -72 23 l 1,193,194
 64 23 64 23 116 47 c 0,195,196
 123 50 123 50 127 52 c 0,197,198
 218 105 218 105 203 261 c 0,199,200
 199 308 199 308 195 323 c 0,201,202
 176 385 176 385 140 446 c 0,203,204
 135 453 135 453 125 468 c 0,205,206
 109 490 109 490 103 500 c 1,207,-1
 102 500 l 1,208,209
 101 479 101 479 93 428 c 0,210,211
 89 401 89 401 91 397 c 0,212,213
 97 387 97 387 133 346 c 1,214,215
 177 288 177 288 188 238 c 1,216,217
 199 206 199 206 198 195 c 1,218,219
 192 174 192 174 128 169 c 1,220,221
 75 163 75 163 -104 164 c 1,222,-1
 -115 210 l 1,140,141
EndSplineSet
EndChar

StartChar: uniFE98
Encoding: 65176 65176 360
Width: 491
VWidth: 1639
GlyphClass: 2
Flags: HW
AnchorPoint: "GposMark2BaseAnchorClassErabAbove_01_02" 180.5 967 basechar 0
AnchorPoint: "GposMark2BaseAnchorClassErabBelow_01_02" 180.5 -221 basechar 0
LayerCount: 2
Fore
SplineSet
-32 817 m 1,0,1
 22 771 22 771 49 748 c 0,2,3
 74 728 74 728 79 727 c 1,4,5
 85 729 85 729 101 749 c 0,6,7
 105 755 105 755 114 768 c 0,8,9
 140 804 140 804 156 815 c 1,10,11
 161 815 161 815 161 816 c 128,-1,12
 161 817 161 817 166 815 c 2,13,-1
 170 813 l 2,14,15
 174 812 174 812 180.5 813 c 128,-1,16
 187 814 187 814 191 813 c 0,17,18
 194 812 194 812 198 815 c 0,19,20
 203 817 203 817 206 817 c 0,21,22
 217 811 217 811 243 786 c 0,23,24
 252 778 252 778 271 763 c 0,25,26
 307 735 307 735 321 720 c 1,27,28
 315 710 315 710 326 697 c 1,29,30
 320 687 320 687 332 674 c 1,31,-1
 327 672 l 1,32,-1
 373 631 l 1,33,-1
 315 561 l 1,34,-1
 292 535 l 1,35,-1
 276 544 l 1,36,-1
 237 576 l 1,37,-1
 216 582 l 1,38,-1
 203 579 l 1,39,-1
 174 602 l 1,40,-1
 93 669 l 1,41,-1
 92 667 l 1,42,-1
 137 630 l 1,43,-1
 138 628 l 1,44,45
 129 616 129 616 108 592 c 0,46,47
 87 568 87 568 78 556 c 0,48,49
 60 532 60 532 55 531 c 0,50,51
 52 531 52 531 49.5 533 c 128,-1,52
 47 535 47 535 43 539 c 2,53,-1
 39 543 l 1,54,55
 6 571 6 571 3 572 c 0,56,57
 0 574 0 574 -6 575 c 0,58,59
 -15 578 -15 578 -19 582 c 1,60,-1
 -21 582 l 1,61,62
 -27 574 -27 574 -33 576 c 0,63,64
 -40 579 -40 579 -61 599 c 0,65,66
 -70 606 -70 606 -88 621 c 0,67,68
 -106 636 -106 636 -114 643 c 2,69,-1
 -143 667 l 1,70,71
 -148 674 -148 674 -139 680 c 2,72,-1
 -138 681 l 1,73,-1
 -139 682 l 1,74,75
 -154 695 -154 695 -143 704 c 1,76,-1
 -144 705 l 1,77,78
 -161 715 -161 715 -144 735 c 0,79,80
 -140 739 -140 739 -138 741 c 0,81,82
 -76 816 -76 816 -77 817 c 2,83,-1
 -75 817 l 1,84,-1
 -63 805 l 1,85,-1
 -62 805 l 1,86,-1
 -55 817 l 1,87,-1
 -54 817 l 1,88,-1
 -42 805 l 1,89,-1
 -40 805 l 1,90,-1
 -34 817 l 1,91,-1
 -32 817 l 1,0,1
196 753 m 1,92,-1
 148 697 l 1,93,-1
 212 643 l 1,94,-1
 214 643 l 1,95,-1
 259 697 l 1,96,97
 251 710 251 710 205 745 c 0,98,99
 199 750 199 750 196 753 c 1,92,-1
24 697 m 1,100,-1
 -21 735 l 1,101,-1
 -39 746 l 1,102,-1
 -53 735 l 1,103,-1
 -86 692 l 1,104,-1
 -42 656 l 1,105,-1
 -24 641 l 1,106,-1
 -10 653 l 1,107,-1
 24 697 l 1,100,-1
84 715 m 1,108,-1
 77 708 l 1,109,110
 82 699 82 699 86 704 c 1,111,112
 88 709 88 709 84 715 c 1,108,-1
90 692 m 1,113,-1
 82 686 l 1,114,115
 87 677 87 677 92 681 c 1,116,117
 94 686 94 686 90 692 c 1,113,-1
-115 210 m 1,118,119
 -38 210 -38 210 -1 212 c 0,120,121
 56 216 56 216 78 233 c 0,122,123
 107 258 107 258 129 345 c 0,124,125
 132 357 132 357 134 362 c 0,126,127
 141 397 141 397 147 408 c 1,128,129
 159 415 159 415 192 412 c 1,130,131
 209 414 209 414 213 408 c 0,132,133
 216 404 216 404 217 396 c 0,134,135
 219 389 219 389 219 387 c 0,136,137
 223 372 223 372 226 344 c 0,138,139
 229 315 229 315 233 300 c 1,140,141
 234 302 234 302 237 308 c 0,142,143
 249 333 249 333 263 323 c 1,144,145
 269 316 269 316 269 303 c 0,146,147
 268 263 268 263 274 254 c 1,148,149
 286 240 286 240 325 228 c 0,150,151
 377 210 377 210 459 210 c 1,152,-1
 469 164 l 1,153,154
 349 164 349 164 303 178 c 0,155,156
 298 179 298 179 295 180 c 0,157,158
 235 202 235 202 207 244 c 1,159,160
 196 263 196 263 185 310 c 1,161,-1
 184 310 l 1,162,163
 183 291 183 291 171 261 c 1,164,165
 156 207 156 207 133 187 c 1,166,167
 108 169 108 169 52 166 c 0,168,169
 16 164 16 164 -65 164 c 0,170,171
 -92 164 -92 164 -104 164 c 1,172,-1
 -115 210 l 1,118,119
149 162 m 1,173,-1
 162 146 l 1,174,-1
 171 162 l 1,175,-1
 172 162 l 1,176,-1
 184 146 l 1,177,-1
 192 162 l 1,178,-1
 194 162 l 1,179,180
 217 130 217 130 240 108 c 0,181,182
 324 29 324 29 461 24 c 0,183,184
 480 23 480 23 502 23 c 1,185,-1
 522 -66 l 1,186,187
 441 -65 441 -65 386 -44 c 0,188,189
 375 -39 375 -39 355 -27 c 0,190,191
 334 -15 334 -15 323 -10 c 0,192,193
 315 -6 315 -6 299 1 c 0,194,195
 251 22 251 22 232 41 c 1,196,-1
 231 41 l 1,197,198
 224 23 224 23 203 -3 c 0,199,200
 169 -42 169 -42 131 -56 c 0,201,202
 90 -71 90 -71 -6 -67 c 0,203,204
 -36 -66 -36 -66 -51 -66 c 1,205,-1
 -72 23 l 1,206,207
 1 23 1 23 17 28 c 0,208,209
 103 48 103 48 142 141 c 0,210,211
 146 152 146 152 149 162 c 1,173,-1
EndSplineSet
EndChar

